<svg xmlns="http://www.w3.org/2000/svg" width="244.5" height="237.65" viewBox="0 0 244.5 237.65">
  <defs>
    <style>
      .cls-1 {
        fill: #8763bf;
      }
    </style>
  </defs>
  <g id="Ebene_2" data-name="Ebene 2">
    <g id="Ebene_1-2" data-name="Ebene 1">
      <g>
        <path class="cls-1" d="M203.94,156.55a40.88,40.88,0,0,0-5.56.39l1,3.9a36.56,36.56,0,1,1-9.88,2.7l-1-3.93a40.56,40.56,0,1,0,15.45-3.06"/>
        <path class="cls-1" d="M89.46,233.55A36.55,36.55,0,1,1,116.11,172l4.29-1.2a40.56,40.56,0,1,0,1.81,50.06l-4.4-.85a36.6,36.6,0,0,1-28.35,13.53"/>
        <g>
          <path d="M60.68,34.41a18,18,0,0,0,2.19.13A17.27,17.27,0,0,0,79.7,13,17.39,17.39,0,0,0,45.63,15.1a17.08,17.08,0,0,0,3.48,12.72A17.28,17.28,0,0,0,60.68,34.41ZM49.52,15.6A13.44,13.44,0,0,1,62.85,3.92,13.83,13.83,0,0,1,64.54,4,13.43,13.43,0,0,1,75.9,14,13.23,13.23,0,0,1,76.2,19h0a13.48,13.48,0,0,1-24,6.47A13.24,13.24,0,0,1,49.52,15.6Z"/>
          <path d="M140.84,60.1a17.89,17.89,0,0,0,2.19.14,17.26,17.26,0,0,0,8.88-32.12,17.66,17.66,0,0,0-6.71-2.29,17.38,17.38,0,0,0-19.41,15,17.3,17.3,0,0,0,15,19.31ZM129.68,41.29A13.44,13.44,0,0,1,143,29.61a14.12,14.12,0,0,1,1.7.11,13.43,13.43,0,0,1,11.35,10,13.23,13.23,0,0,1,.3,4.94h0a13.48,13.48,0,0,1-24,6.47A13.19,13.19,0,0,1,129.68,41.29Z"/>
          <path d="M206.42,198.48l-24.33-85.63.35.06A7.92,7.92,0,0,0,184,113a9.08,9.08,0,0,0,1.49-18l-29.79-5L144.21,78.82a20.06,20.06,0,0,0-37.3-10.89c-1.08,1.83-2.49,4-4.12,6.45l-2,3L80.45,73l-5.52-5.82.92-7.31a20.61,20.61,0,0,0-33-18.77A20.32,20.32,0,0,0,35,54.71L30.27,90a26.42,26.42,0,0,0,1.86,13.79l-4,35.49L11.67,160.65l-.05,0-1.08,1.53-1.23,1.6,0,0L0,176.91l29.59,20.83,2.16-3a16.16,16.16,0,0,0-.19-19.05l16-21.54.11-.15a20.79,20.79,0,0,0,2.25-5.31L54,134l8.89,11.86,4,14.05L70.37,158l-3.94-13.93L55.29,129.22h0l-.62-.81L39.9,108.68l-.11-.14a22.61,22.61,0,0,1-4.36-7.13c6.87,1.2,23.16,4.06,31.07,5.7l13.56,28.74a11.76,11.76,0,0,1,1,2.49l4.2,14.91,4-.34-4.4-15.62a14.73,14.73,0,0,0-1.27-3.2L70.1,105.54l.08-.67.22-.92-.1,0,1.58-12.5.48.14,18.39,4c-4.21,10.22-5.19,20.56,4,27.14L105,130.26H92.87v4H105.3L123.62,168,122,173.65l-.82.19-10.93,2.67L89,181.72c-9.44,2.36-14.86,7.92-14.86,15.27,0,7.56,5.87,13.57,15,15.31,8.28,1.59,26,4.43,33.64,5.64l4,.61,4.15.69a25.88,25.88,0,0,0,4.26.36,22,22,0,0,0,7.18-1.15,24.56,24.56,0,0,0,14.6-32.75,22.53,22.53,0,0,0-5.5-7.85A78.52,78.52,0,0,1,185,137.6l17.6,62ZM28.66,192.29,5.48,176l7-9.89,15.18,11a12.22,12.22,0,0,1,.95,15.15Zm17.47-44.65a16.29,16.29,0,0,1-1.77,4.22L28.81,172.78c-.31-.25-.62-.5-.95-.74l-13-9.13,17-22.15,3.57-31.31L51,130ZM66.45,103.1c-9.19-1.87-27-5-32.16-5.87a22.5,22.5,0,0,1-.13-6.76l4.71-35.25a16.4,16.4,0,0,1,6.33-11A16.68,16.68,0,0,1,72,59.38l-.52,4.12L60.57,52.05l-2.84,2.69L68.2,65.79c-5.06,1.14-8.22,5.09-9.67,7.38L47.59,61l-2.92,2.63L65.23,86.49a11.34,11.34,0,0,0,2.92,3.13Zm2-18.81-.09-.16-7.11-7.9c.68-1.31,4.09-7.14,10.37-6.81l6.79,7.16,24.17,5.23A6,6,0,0,1,107,89.07a6.11,6.11,0,0,1-7.35,4.46L73.24,87.74A7.58,7.58,0,0,1,68.48,84.29ZM98.82,97.35a9.57,9.57,0,0,0,2.3.27A10,10,0,0,0,110.85,90a9.85,9.85,0,0,0-5.94-11.56l1.23-1.88c1.58-2.41,3.08-4.69,4.21-6.6a16.06,16.06,0,0,1,29.82,9.48l-.07.94,13.66,13.3,31,5.24A5.09,5.09,0,0,1,184,109a5.63,5.63,0,0,1-.84-.06l-32.61-5.5a5.1,5.1,0,0,1-2.7-1.37L135.66,90.27l-11.32,19.07A15.66,15.66,0,0,1,122,112.4c-7-2-24.32-8.87-29.17-10.82a45,45,0,0,1,1.87-5.13Zm-1.71,22.19,0-.05c-4.87-3.47-6.08-8.45-5.23-14,5.76,2.31,23,9.13,29.63,10.89l24.55,21.47a5.87,5.87,0,0,1,1.75,6.15l-8.57,27.72-.08,0-.54,2.06-5.81,18.79a5.87,5.87,0,0,1-5.14,4.12,5.32,5.32,0,0,1-2.21-.22,5.9,5.9,0,0,1-3.87-7.4L134,146.76l-31.26-23.12C99.42,121.17,97.91,120.05,97.11,119.54Zm13.29,14.72,19,14.05-4.18,14.25-15.37-28.3Zm42.83,53A20.57,20.57,0,0,1,141,214.67a19.53,19.53,0,0,1-9.48.63l-4.16-.69-4-.62c-7.56-1.21-25.28-4-33.5-5.62-5.67-1.08-11.72-4.64-11.72-11.38,0-7.34,7.41-10.29,11.83-11.39,4.81-1.19,13.68-3.36,21.22-5.2l9.51-2.32-2.87,9.78a9.86,9.86,0,0,0,9.43,12.8,8.36,8.36,0,0,0,.92,0,9.82,9.82,0,0,0,8.52-6.92l5.27-17.06a20.52,20.52,0,0,1,5.85,3.36A18.82,18.82,0,0,1,153.23,187.26Zm-5.12-12a24.4,24.4,0,0,0-5-2.47l8.55-27.65a9.89,9.89,0,0,0-2.94-10.36L125.5,114.49a19.88,19.88,0,0,0,2.28-3.11l8.73-14.7L145,105a9.06,9.06,0,0,0,3.28,2,6.06,6.06,0,0,0-1,3.8c1,9.15,12.56,12.32,13.06,12.46l1.93.51,1-3.86-1.93-.52c-.09,0-9.43-2.61-10.11-9a4.11,4.11,0,0,1,1.36-2.5l25.13,4.24,6.11,21.51A82.41,82.41,0,0,0,148.11,175.28Z"/>
        </g>
      </g>
    </g>
  </g>
</svg>
