<svg xmlns="http://www.w3.org/2000/svg" width="452.66" height="206.44" viewBox="0 0 452.66 206.44">
  <defs>
    <style>
      .cls-1 {
        fill: #8763bf;
      }
    </style>
  </defs>
  <g id="Ebene_2" data-name="Ebene 2">
    <g id="Ebene_1-2" data-name="Ebene 1">
      <g>
        <rect class="cls-1" x="324.8" y="111.85" width="22.97" height="4"/>
        <path class="cls-1" d="M200.56,105.09h4c0-.74,0-1.48,0-2.22A102.31,102.31,0,1,0,27.76,172.94l1.38,1.46,2.91-2.74-1.37-1.46a98.31,98.31,0,1,1,169.93-67.33c0,.74,0,1.48-.05,2.22"/>
        <path class="cls-1" d="M199.59,117.09a97.87,97.87,0,0,1-25.65,53.11l-1.37,1.45,2.91,2.75,1.37-1.46a101.82,101.82,0,0,0,26.78-55.85Z"/>
        <g>
          <path d="M302,34.41a17.87,17.87,0,0,0,2.19.13A17.27,17.27,0,0,0,321,13a17.43,17.43,0,0,0-8-10.61,17.3,17.3,0,1,0-11.06,32ZM290.85,15.6A13.44,13.44,0,0,1,304.18,3.92a13.83,13.83,0,0,1,1.69.11,13.43,13.43,0,0,1,11.36,10,13,13,0,0,1,.29,4.94h0a13.47,13.47,0,0,1-24,6.47A13.2,13.2,0,0,1,290.85,15.6Z"/>
          <path d="M307.76,144.08l-11.14-14.86h0l-.59-.78-14.8-19.75-.11-.14a22.32,22.32,0,0,1-4.28-6.93c5.42,1.39,18.31,4.67,23.92,6l1.58.38,1.86,2.3a9.9,9.9,0,0,0,5.31,3.48l11.88,22a11.76,11.76,0,0,1,1,2.49l3.23,11.46a32,32,0,0,1,5,3.29l-4.45-15.8a16.81,16.81,0,0,0-1.31-3.3l-10.8-20a9.89,9.89,0,0,0,5.88-15.85l-7.19-8.84.41.06,4-29.45A20.61,20.61,0,0,0,284.13,41.1a20.9,20.9,0,0,0-4,4.12,5.87,5.87,0,0,0-.39-.58,6.36,6.36,0,0,0-4.22-2.49A16.62,16.62,0,0,0,256.73,56.2l-3.92,27.56a9.31,9.31,0,0,0,7.94,10.51l7.21,1a5.42,5.42,0,0,0,.89.07,6.3,6.3,0,0,0,2.56-.56,26.53,26.53,0,0,0,2,9l-4,35.49L253,160.65l-.05,0-1.09,1.54-1.23,1.59.06,0-9.36,13.13,29.59,20.83,2.16-3a16.16,16.16,0,0,0-.19-19.05l16-21.54L289,154a20.41,20.41,0,0,0,2.24-5.31L295.3,134l8.89,11.86.22.8a32,32,0,0,1,3.93-.51ZM318.1,105a6,6,0,0,1-2.31,4,6.1,6.1,0,0,1-8.52-1.1l-17.06-21a7.59,7.59,0,0,1-1.55-5.66l1.39-11c2.18-.82,7.72-2.32,11.9,1.59l-.82,9.4,15.74,19.33A5.93,5.93,0,0,1,318.1,105ZM286.52,44.21a16.69,16.69,0,0,1,26.77,15.15l-3.58,26.18L305.17,80l2-22.78-3.9-.34-.91,10.38c-4.17-2.49-8.77-2-11.76-1.25l1.51-11.81-3.89-.49-3.44,27a11.48,11.48,0,0,0,2.37,8.6L298.25,103c-7.8-1.94-20.54-5.19-22.63-5.72a22.38,22.38,0,0,1-.13-6.79l4.71-35.25A16.42,16.42,0,0,1,286.52,44.21Zm-18,47.18-7.2-1a5.39,5.39,0,0,1-3.59-2.11,5.29,5.29,0,0,1-1-4L257.87,76l2.74-19.25A12.69,12.69,0,0,1,275,46a2.45,2.45,0,0,1,1.64,1,2.38,2.38,0,0,1,.46,1.8L271.3,89.31A2.47,2.47,0,0,1,268.5,91.39ZM270,192.29,246.81,176l7.05-9.89,15.18,11a12.26,12.26,0,0,1,.95,15.15Zm17.47-44.65a16.64,16.64,0,0,1-1.77,4.22l-15.55,20.92c-.31-.25-.62-.5-.95-.74l-13-9.13,17-22.15,3.57-31.31L292.33,130Z"/>
          <path d="M423.43,180.43l3.76-1.36L400.9,106l12.72,0v-4l-18.42,0L410,143.13a185.8,185.8,0,0,0-30.45,2.94l-.78-3-3.87,1,.72,2.76a176.13,176.13,0,0,0-24.23,6.8l-12.33-34.53h-4.25L347.64,155c-24.55,9.48-38,21.17-38.27,21.37l-3.91,3.46,41.66.25A10.86,10.86,0,1,0,357.74,167a11,11,0,0,0-1.53.12l-3.5-9.77a171.83,171.83,0,0,1,23.92-6.67l.57,2.2,3.87-1-.51-1.94a181,181,0,0,1,30.87-2.84Zm-58.83-2.56a6.86,6.86,0,1,1-6.86-6.86A6.86,6.86,0,0,1,364.6,177.87Zm-12.18-9.45a10.85,10.85,0,0,0-5.38,7.69l-30.53-.18A147.58,147.58,0,0,1,349,158.76Z"/>
          <rect x="84.9" y="37.46" width="34.82" height="4"/>
          <path d="M63.83,134.05A10.85,10.85,0,1,0,74.68,144.9,10.87,10.87,0,0,0,63.83,134.05Zm0,17.7a6.85,6.85,0,1,1,6.85-6.85A6.85,6.85,0,0,1,63.83,151.75Z"/>
          <path d="M140.79,134.05a10.85,10.85,0,1,0,10.84,10.85A10.86,10.86,0,0,0,140.79,134.05Zm0,17.7a6.85,6.85,0,1,1,6.84-6.85A6.85,6.85,0,0,1,140.79,151.75Z"/>
          <path d="M154.78,47.44A22.47,22.47,0,0,0,132.56,28H72.05A22.48,22.48,0,0,0,49.83,47.44L43.57,95a22,22,0,0,0-.19,2.93v48.89a22.27,22.27,0,0,0,6.56,15.85l4.48,4.48a22.26,22.26,0,0,0,15.84,6.56h4.15l-13.51,26,3.55,1.85,4.42-8.5h66.88l4.41,8.5,3.55-1.85-13.51-26h4.15a22.29,22.29,0,0,0,15.85-6.56l4.47-4.48a22.24,22.24,0,0,0,6.57-15.85V97.92a23.89,23.89,0,0,0-.19-2.93ZM70.94,189.07l3-5.69h56.83l2.95,5.69Zm57.71-9.69H76l3-5.68H125.7Zm28.59-32.57a18.29,18.29,0,0,1-5.4,13l-4.47,4.48a18.32,18.32,0,0,1-13,5.39H70.26a18.3,18.3,0,0,1-13-5.39l-4.48-4.48a18.28,18.28,0,0,1-5.39-13V97.92a19.25,19.25,0,0,1,.15-2.41L53.8,48A18.46,18.46,0,0,1,72.05,32h60.51a18.47,18.47,0,0,1,18.26,16l6.26,47.55a19.51,19.51,0,0,1,.16,2.41Z"/>
          <path d="M102.33,104.46h36.93a7.55,7.55,0,0,0,7.49-8.54l-5.44-41.27A8.85,8.85,0,0,0,132.56,47H72.05a8.86,8.86,0,0,0-8.75,7.68L57.87,95.92a7.55,7.55,0,0,0,7.48,8.54h37Zm35-49.29,5.43,41.28a3.55,3.55,0,0,1-3.52,4H104.31V51h28.25A4.86,4.86,0,0,1,137.35,55.17ZM62.68,99.25a3.55,3.55,0,0,1-.85-2.81l5.44-41.27A4.84,4.84,0,0,1,72.05,51h28.26v49.49h-35A3.51,3.51,0,0,1,62.68,99.25Z"/>
          <path d="M250.2,109.41,239.93,99.14,237.1,102l6.85,6.86H182.07v4H244l-6.85,6.85,2.83,2.83,10.27-10.27A2,2,0,0,0,250.2,109.41Z"/>
        </g>
        <path class="cls-1" d="M424.47,150.05a27.94,27.94,0,0,0-4.12.31l1.37,3.85a24.92,24.92,0,0,1,2.75-.16,24.24,24.24,0,1,1-12.75,3.65l-1.37-3.84a28.16,28.16,0,1,0,14.12-3.81"/>
        <path class="cls-1" d="M334.27,183.06a24.23,24.23,0,1,1-7.21-22.48l3.6-2.07a28.18,28.18,0,1,0,7.67,24.55Z"/>
      </g>
    </g>
  </g>
</svg>
