<svg xmlns="http://www.w3.org/2000/svg" width="326" height="164.52" viewBox="0 0 326 164.52">
  <defs>
    <style>
      .cls-1 {
        fill: #8763bf;
      }
    </style>
  </defs>
  <g id="Ebene_2" data-name="Ebene 2">
    <g id="Ebene_1-2" data-name="Ebene 1">
      <g>
        <path class="cls-1" d="M37.44,74.88A37.44,37.44,0,1,1,74.88,37.44,37.48,37.48,0,0,1,37.44,74.88M37.44,4A33.44,33.44,0,1,0,70.88,37.44,33.48,33.48,0,0,0,37.44,4"/>
        <path class="cls-1" d="M113.65,164.52a26.43,26.43,0,1,1,2.83-.15,27,27,0,0,1-2.83.15m.07-48.77c-.79,0-1.58,0-2.38.12a22.43,22.43,0,1,0,2.38-.12"/>
        <path class="cls-1" d="M245.22,150.59a26.45,26.45,0,1,1,2.8-.15,26.41,26.41,0,0,1-2.8.15m-22.23-24A22.38,22.38,0,1,0,242.89,102,22.41,22.41,0,0,0,223,126.56"/>
        <g>
          <path d="M25.65,46.8c-2.49,0-4-1.4-4.53-4.21l-3.68.5a7.73,7.73,0,0,0,2.63,5.22,8.17,8.17,0,0,0,5.58,2,8.24,8.24,0,0,0,6-2.32A8.1,8.1,0,0,0,34,42a8.14,8.14,0,0,0-1.8-5.49,5.85,5.85,0,0,0-4.68-2.11,9,9,0,0,0-1,.07l6.15-8.35V24.84h-14v3.53h8.53l-5.22,7.16,1.52,2.13a4.85,4.85,0,0,1,2.23-.51A4.25,4.25,0,0,1,29,38.45,5,5,0,0,1,30.19,42,4.85,4.85,0,0,1,29,45.52,4.41,4.41,0,0,1,25.65,46.8Z"/>
          <path d="M48.19,50.33A7.94,7.94,0,0,0,55,46.91c1.6-2.28,2.41-5.44,2.41-9.47S56.63,30.27,55,28a7.93,7.93,0,0,0-6.84-3.46A7.92,7.92,0,0,0,41.35,28q-2.41,3.39-2.41,9.43t2.41,9.47A7.93,7.93,0,0,0,48.19,50.33Zm-4-19.82a4.56,4.56,0,0,1,8.1.06,14.22,14.22,0,0,1,1.38,6.87,14.21,14.21,0,0,1-1.38,6.93,4.57,4.57,0,0,1-8.1,0,14.16,14.16,0,0,1-1.39-6.88A14.09,14.09,0,0,1,44.14,30.51Z"/>
          <path d="M91.55,158.92H41.08L40,81.85l-4,.06,1.08,77H2v3.92H96.06c-.49-.35-1-.7-1.46-1.08A31.72,31.72,0,0,1,91.55,158.92Z"/>
          <path d="M326,158.92H282.43c-1.7-6.23-7.34-11.42-14.9-14.07a30.56,30.56,0,0,1-3.28,3.06c8.64,2.32,14.79,8.15,14.79,15H283v0h43Z"/>
          <path d="M222.85,144.72c-7.75,2.62-13.55,7.87-15.28,14.2H135.84a30.62,30.62,0,0,1-4.46,3.92H207v0H211c0-6.92,6.33-12.83,15.18-15.07A31,31,0,0,1,222.85,144.72Z"/>
          <path d="M215.46,130.21c-.18-.92-.33-1.85-.43-2.81,0-.38-.07-.77-.09-1.15l-71.18,7.53c.06.38.11.77.15,1.15.1.95.15,1.9.17,2.84Z"/>
          <path d="M291.43,88.69a19.74,19.74,0,0,1,5.18,11.23l.31,2.91a14.68,14.68,0,0,1-13,16.12l-8.58.91c.05.38.11.76.15,1.15.1.95.15,1.89.16,2.83l8.69-.91a18.69,18.69,0,0,0,16.59-20.52l-.31-2.91A24,24,0,0,0,294.44,86c-5.79-6.56-14.49-10.45-24.5-11L243.65,73.5h0a14.52,14.52,0,0,1-6.28-1.43L193.34,49a44.76,44.76,0,0,0-25.58-4.88l-23.43,2.48-26.39,2.8C86.51,52.73,72.74,71.14,66.72,86a78.34,78.34,0,0,0-5.52,31.55v.08l1.07,10a18.69,18.69,0,0,0,20.51,16.59l1.14-.12c-.19-.92-.33-1.86-.43-2.81,0-.39-.07-.77-.1-1.16l-1,.11a14.67,14.67,0,0,1-16.12-13l-1-10A75,75,0,0,1,67.6,96.13l176-18.63,26.14,1.58C278.53,79.52,286.45,83,291.43,88.69ZM68.8,92c.48-1.48,1-3,1.63-4.48,6.23-15.38,17.13-25.69,32.46-30.83l-7.5,32.49Zm30.56-3.24,7.69-33.3a77.5,77.5,0,0,1,11.31-2.06l26.39-2.79,5.34-.57,3.49,33Zm58.2-6.16-3.49-33,14.11-1.49a40.76,40.76,0,0,1,23.3,4.45l42,22Z"/>
        </g>
      </g>
    </g>
  </g>
</svg>
