<svg width="209" height="180" viewBox="0 0 139 120" xmlns="http://www.w3.org/2000/svg"><g fill="none"><path d="M.186-14.578h139v142h-139z" fill="#fff"/><g fill="#000"><path d="M23.266 3.47c-.18-.118-.574-.263-1.044-.263-1.042 0-2.06.677-2.06 2.428 0 1.691.795 2.528 1.924 2.528.41 0 .735-.076.984-.169V6.312l-.523-.118c-.085-.017-.12-.043-.12-.093 0-.076.06-.178.095-.254h1.95s.009.051.009.094c0 .135-.078.237-.29.296l-.197.05v1.768c-.231.203-.864.66-2.122.66-1.505 0-2.685-.922-2.685-2.977 0-2.198 1.65-3.061 3.07-3.061.907 0 1.36.254 1.643.38.025.254.05.779.05.847 0 .261-.076.43-.3.43a.73.73 0 01-.195-.033l-.19-.83zm2.669 3.112c.009 1.049.514 1.54 1.249 1.54.547 0 .855-.212 1.069-.39a.421.421 0 01.128.288c0 .212-.564.694-1.514.694-1.052 0-1.84-.593-1.84-2.064 0-1.472.9-2.225 1.874-2.225.967 0 1.455.585 1.455 1.43 0 .22-.044.516-.103.727zm1.497-.448c.018-.076.044-.22.044-.364 0-.466-.172-.863-.668-.863-.504 0-.804.397-.864 1.226h1.488zm4.055-1.142h-1.043v3.162l.58.11c.086.018.12.043.12.11 0 .085-.06.211-.084.237h-2.036s-.01-.05-.01-.076c0-.152.104-.22.266-.279l.29-.102V4.992h-.632s-.01-.051-.01-.076c0-.161.104-.246.266-.288l.377-.101v-.084c0-1.361.838-2.021 1.574-2.021.427 0 .598.186.598.448 0 .212-.128.33-.256.398a.836.836 0 00-.564-.245c-.368 0-.496.203-.496.702 0 .261.017.803.017.803h1.137zm4.405 1.54c0 1.462-1.035 2.18-2.08 2.18-1.068 0-1.95-.676-1.95-2.097 0-1.43 1.027-2.19 2.113-2.19 1.07 0 1.917.634 1.917 2.106zm-2.78-2.69a.447.447 0 01-.461-.457c0-.287.205-.473.462-.473.264 0 .46.186.46.473a.441.441 0 01-.46.457zm-.333 2.723c0 1.134.462 1.641 1.095 1.641s1.103-.49 1.103-1.624c0-1.133-.47-1.658-1.103-1.658s-1.095.5-1.095 1.641zm1.88-2.723c-.273 0-.47-.186-.47-.457 0-.287.197-.473.47-.473.257 0 .455.186.455.473a.44.44 0 01-.454.457zm3.218 1.362h.025c.18-.287.496-.779 1.052-.779.403 0 .59.187.59.45a.715.715 0 01-.152.43 1.336 1.336 0 00-.574-.126c-.47 0-.71.186-.89.43v2.546l.616.11c.086.018.12.043.12.11a.594.594 0 01-.085.237h-2.07s-.01-.05-.01-.076c0-.152.104-.22.266-.28l.3-.1v-3.13l-.607-.093s-.01-.05-.01-.084c0-.144.112-.246.317-.262l1.163-.11zm5.662 2.934l.625.085s.01.034.01.068c0 .152-.113.253-.318.27l-1.13.102v-.55H42.7c-.188.262-.548.6-1.215.6-.837 0-1.624-.533-1.624-2.004 0-1.573 1.112-2.284 2.207-2.284.247 0 .46.043.607.077v-1.48l-.607-.084s-.01-.06-.01-.093c0-.144.112-.246.317-.262l1.163-.11zm-.863-2.951c-.128-.119-.36-.254-.72-.254-.692 0-1.205.49-1.205 1.607 0 1.09.48 1.53 1.052 1.53.496 0 .762-.228.873-.355zm2.892 1.395c.008 1.049.512 1.54 1.248 1.54.547 0 .855-.212 1.069-.39a.421.421 0 01.128.288c0 .212-.565.694-1.514.694-1.052 0-1.84-.593-1.84-2.064 0-1.472.9-2.225 1.874-2.225.967 0 1.455.585 1.455 1.43 0 .22-.044.516-.103.727zm1.496-.448c.018-.076.043-.22.043-.364 0-.466-.17-.863-.667-.863-.504 0-.803.397-.864 1.226h1.488zm2.943-.93h.025c.18-.287.497-.779 1.052-.779.403 0 .59.187.59.45a.715.715 0 01-.152.43 1.336 1.336 0 00-.574-.126c-.47 0-.71.186-.89.43v2.546l.616.11c.086.018.12.043.12.11a.594.594 0 01-.085.237h-2.07s-.01-.05-.01-.076c0-.152.104-.22.266-.28l.3-.1v-3.13l-.607-.093s-.01-.05-.01-.084c0-.144.11-.246.317-.262l1.163-.11-.05.727zm4.54-.212h-1.17v2.469c0 .38.119.693.547.693.333 0 .607-.144.676-.203a.614.614 0 01.077.28c0 .084-.3.482-1.078.482s-1.086-.448-1.086-1.1V4.992h-.641s-.01-.051-.01-.076c0-.161.104-.254.266-.288l.42-.101.196-1.142h.633v1.142h1.266zm6.007 3.146l.624.085s.009.034.009.068c0 .152-.112.253-.317.27l-1.13.102v-.55h-.025c-.187.262-.547.6-1.214.6-.838 0-1.625-.533-1.625-2.004 0-1.573 1.11-2.284 2.206-2.284.249 0 .462.043.608.077v-1.48l-.608-.084s-.008-.06-.008-.093c0-.144.112-.246.317-.262l1.163-.11zm-.864-2.951c-.13-.119-.36-.254-.72-.254-.692 0-1.204.49-1.204 1.607 0 1.09.479 1.53 1.05 1.53.498 0 .763-.228.874-.355zm5.799 2.951l.624.085s.01.034.01.068c0 .152-.113.253-.318.27l-1.13.102v-.558h-.016a1.53 1.53 0 01-1.265.609c-.915 0-1.343-.534-1.343-1.531V5.026l-.607-.093s-.01-.05-.01-.084c0-.144.113-.246.318-.262l1.163-.11v2.664c0 .77.41.947.787.947.436 0 .726-.186.923-.406V5.027l-.607-.093s-.008-.05-.008-.084c0-.144.11-.246.316-.263l1.163-.11zm2.42-2.934h.027c.18-.287.496-.779 1.052-.779.402 0 .59.187.59.45a.715.715 0 01-.153.43 1.335 1.335 0 00-.573-.126c-.47 0-.71.186-.89.43v2.546l.616.11c.085.018.12.043.12.11a.58.58 0 01-.086.237h-2.07s-.01-.05-.01-.076c0-.152.104-.22.267-.28l.3-.1v-3.13l-.61-.093s-.007-.05-.007-.084c0-.144.112-.246.317-.262l1.163-.11zm3.979-.271c-.573 0-1.07.406-1.07 1.514 0 1.065.42 1.682 1.225 1.682.53 0 .837-.27.974-.406a.492.492 0 01.137.287c0 .212-.47.703-1.41.703-1.113 0-1.831-.694-1.831-2.09 0-1.428.967-2.198 2.12-2.198.942 0 1.18.457 1.18.703 0 .229-.11.44-.435.507-.13-.296-.326-.702-.89-.702zm3.174.101h.017a1.672 1.672 0 011.317-.609c.856 0 1.342.5 1.342 1.49v2.24l.496.11c.086.018.12.043.12.11a.594.594 0 01-.085.237h-1.943s-.01-.05-.01-.076c0-.152.104-.228.266-.28l.283-.1v-2.14c0-.719-.393-.939-.83-.939-.53 0-.813.228-.975.39v2.688l.48.11c.084.018.118.043.118.11 0 .085-.06.211-.085.237H73.63s-.008-.05-.008-.076c0-.152.103-.228.265-.28l.299-.1V3.022l-.607-.084s-.01-.06-.01-.093c0-.144.112-.246.318-.262l1.17-.11v2.561h.003zm4.509.431c-.362 0-.642-.203-.642-.515 0-.322.28-.525.642-.525.363 0 .653.203.653.525 0 .312-.29.515-.653.515zm0 3.257c-.362 0-.642-.203-.642-.516 0-.321.28-.524.642-.524.363 0 .653.203.653.524 0 .313-.29.516-.653.516zM22.23 98.057c0 .339.129.44.275.44.196 0 .3-.101.324-.144a.55.55 0 01.103.254c0 .11-.222.44-.778.44-.394 0-.642-.17-.72-.593h-.016c-.093.162-.41.61-1.12.61-.65 0-1.112-.44-1.112-1.108 0-.905 1-1.243 1.959-1.243h.222v-.381c0-.77-.205-1.074-.736-1.074-.196 0-.367.059-.436.084-.077.16-.145.456-.188.744 0 0-.128.009-.196.009-.29 0-.453-.135-.453-.397 0-.525.7-.923 1.497-.923.94 0 1.376.508 1.376 1.463v1.82zm-1.06-.922c-.692.034-1.085.28-1.085.727 0 .355.205.592.556.592.35 0 .616-.228.728-.364v-.963zm5.945 1.353l.625.085s.009.034.009.067c0 .152-.112.253-.317.271l-1.13.102v-.559h-.016a1.53 1.53 0 01-1.266.61c-.915 0-1.342-.533-1.342-1.53v-2.158l-.607-.092s-.01-.05-.01-.084c0-.144.112-.246.318-.263l1.163-.11v2.665c0 .77.41.947.787.947.436 0 .728-.186.924-.406v-2.656l-.607-.093s-.01-.05-.01-.083c0-.145.11-.246.317-.263l1.164-.11v3.66h-.001zm3.534-3.146h-1.044v3.164l.582.11c.085.017.12.042.12.11a.48.48 0 01-.086.237h-2.035s-.01-.05-.01-.076c0-.152.104-.22.266-.28l.29-.101v-3.164H28.1s-.01-.05-.01-.075c0-.161.103-.246.266-.288l.377-.101v-.084c0-1.362.837-2.022 1.574-2.022.427 0 .598.186.598.449 0 .211-.128.33-.256.397a.84.84 0 00-.565-.245c-.367 0-.496.203-.496.701 0 .262.017.804.017.804h1.138zm4.268.017h-.692c.162.212.264.465.264.77 0 .896-.752 1.404-1.684 1.404a1.98 1.98 0 01-.402-.043c-.12.068-.24.185-.24.381 0 .203.137.296.427.296h.993c.787 0 1.232.354 1.232.963 0 .846-.838 1.624-2.284 1.624-1.052 0-1.565-.363-1.565-.98 0-.592.47-.872.778-.964v-.017a.636.636 0 01-.351-.592c0-.49.454-.719.616-.803v-.017c-.48-.211-.787-.642-.787-1.251 0-.889.752-1.354 1.625-1.354.23 0 .453.034.666.102h1.497zm-2.464 3.57c-.118 0-.221-.009-.316-.018a.694.694 0 00-.368.625c0 .44.274.72.899.72.83 0 1.342-.381 1.342-.828 0-.348-.196-.5-.633-.5h-.924zm-.376-2.791c0 .667.342.93.77.93.46 0 .795-.263.795-.93 0-.6-.333-.905-.778-.905s-.787.253-.787.905zm4.654-.584h.025c.18-.287.496-.779 1.052-.779.402 0 .59.186.59.45a.717.717 0 01-.153.43 1.336 1.336 0 00-.573-.126c-.47 0-.71.185-.89.43v2.546l.616.11c.085.017.12.042.12.11a.589.589 0 01-.085.237h-2.07s-.01-.05-.01-.076c0-.152.104-.22.266-.28l.3-.1v-3.13l-.608-.093s-.008-.05-.008-.084c0-.144.11-.246.316-.263l1.163-.11zm5.91 2.934l.625.085s.01.034.01.067c0 .152-.112.253-.318.271l-1.13.102v-.559h-.016a1.53 1.53 0 01-1.266.61c-.915 0-1.343-.533-1.343-1.53v-2.158l-.607-.092s-.01-.05-.01-.084c0-.144.113-.246.318-.263l1.164-.11v2.665c0 .77.41.947.787.947.436 0 .726-.186.924-.406v-2.656l-.608-.093s-.008-.05-.008-.083c0-.145.11-.246.317-.263l1.163-.11v3.66zm5.15.017l.504.11c.086.017.12.042.12.11a.589.589 0 01-.084.237h-1.943s-.01-.05-.01-.076c0-.152.105-.229.267-.28l.282-.1v-2.14c0-.72-.41-.939-.83-.939-.488 0-.804.228-.983.372v2.706l.487.11c.086.017.12.042.12.11a.576.576 0 01-.086.237h-1.94s-.01-.05-.01-.076c0-.152.104-.22.266-.28l.3-.1v-3.13l-.608-.093s-.008-.05-.008-.084c0-.144.11-.246.316-.263l1.164-.11-.051.592h.025c.23-.246.616-.643 1.403-.643.838 0 1.3.533 1.3 1.489v2.241zm4.739-.017l.625.085s.01.034.01.067c0 .152-.112.253-.318.271l-1.13.102v-.55h-.024c-.188.261-.548.6-1.215.6-.837 0-1.624-.533-1.624-2.004 0-1.573 1.112-2.284 2.207-2.284.247 0 .46.043.607.077v-1.48l-.607-.085s-.01-.058-.01-.092c0-.144.11-.246.317-.262l1.163-.11v5.665zm-.863-2.95c-.128-.119-.36-.254-.72-.254-.692 0-1.205.49-1.205 1.607 0 1.09.48 1.53 1.052 1.53.496 0 .762-.228.873-.355v-2.529zm4.67 1.394c.009 1.049.514 1.54 1.249 1.54.548 0 .856-.213 1.07-.39a.423.423 0 01.127.288c0 .212-.564.693-1.514.693-1.051 0-1.838-.592-1.838-2.064 0-1.471.898-2.224 1.873-2.224.967 0 1.454.584 1.454 1.429 0 .219-.043.516-.103.726h-2.317zm1.497-.447c.017-.077.042-.22.042-.364 0-.465-.17-.862-.666-.862-.504 0-.803.397-.864 1.226zm2.994 2.02l.504.11c.085.017.12.042.12.11a.589.589 0 01-.085.237h-1.96s-.008-.05-.008-.076c0-.152.103-.22.266-.28l.299-.1v-3.13l-.608-.093s-.008-.05-.008-.084c0-.144.11-.246.317-.263l1.163-.11v3.68zm-.437-4.516c-.316 0-.556-.211-.556-.541 0-.32.24-.542.556-.542.308 0 .565.22.565.542 0 .33-.257.541-.565.541zm5.595 4.516l.503.11c.086.017.12.042.12.11a.589.589 0 01-.084.237h-1.943s-.01-.05-.01-.076c0-.152.105-.229.267-.28l.282-.1v-2.14c0-.72-.41-.939-.83-.939-.488 0-.804.228-.983.372v2.706l.487.11c.086.017.12.042.12.11a.576.576 0 01-.086.237h-1.941s-.01-.05-.01-.076c0-.152.104-.22.267-.28l.299-.1v-3.13l-.608-.093s-.008-.05-.008-.084c0-.144.11-.246.317-.263l1.163-.11-.051.592h.025c.23-.246.616-.643 1.403-.643.838 0 1.3.533 1.3 1.489v2.241zm1.968-1.573c.008 1.049.514 1.54 1.248 1.54.548 0 .856-.213 1.07-.39a.423.423 0 01.127.288c0 .212-.564.693-1.513.693-1.052 0-1.84-.592-1.84-2.064 0-1.471.9-2.224 1.874-2.224.967 0 1.454.584 1.454 1.429 0 .219-.043.516-.103.726h-2.317zm1.497-.447c.017-.077.043-.22.043-.364 0-.465-.172-.862-.667-.862-.504 0-.804.397-.865 1.226zm3.6-1.083a1.029 1.029 0 00-.564-.17c-.282 0-.572.119-.572.475 0 .372.4.59.812.828.513.304 1.06.634 1.06 1.31 0 .694-.581 1.218-1.521 1.218-.48 0-.907-.143-1.086-.253a4.006 4.006 0 01-.06-.651c0-.339.093-.474.35-.474.044 0 .112.009.112.009l.18.72c.085.058.333.168.582.168.419 0 .684-.16.684-.516 0-.363-.41-.566-.796-.803-.522-.33-1.043-.66-1.043-1.387 0-.66.58-1.1 1.403-1.1.496 0 .847.17 1 .314.018.117.035.295.035.464 0 .296-.06.49-.367.49-.043 0-.103-.008-.103-.008zm6.339.541v.017c.83.136 1.377.6 1.377 1.37 0 .948-.787 1.632-2.326 1.632h-2.173s-.01-.05-.01-.093c0-.135.07-.253.292-.304l.36-.084v-4.888l-.523-.118c-.085-.017-.12-.043-.12-.093 0-.076.06-.178.095-.253h2.01c1.522 0 2.25.532 2.25 1.47 0 .803-.495 1.183-1.232 1.344zm-1.094-2.3h-.462v2.131h.454c.975 0 1.386-.473 1.386-1.074 0-.694-.437-1.057-1.378-1.057zm.103 2.621h-.565v2.182h.514c1 0 1.445-.465 1.445-1.124 0-.627-.471-1.058-1.394-1.058zm4.054.668c.009 1.049.514 1.54 1.249 1.54.547 0 .855-.213 1.069-.39a.423.423 0 01.128.288c0 .212-.564.693-1.514.693-1.052 0-1.84-.592-1.84-2.064 0-1.471.9-2.224 1.874-2.224.967 0 1.454.584 1.454 1.429 0 .219-.043.516-.102.726h-2.318zm1.497-.447c.017-.077.043-.22.043-.364 0-.465-.171-.862-.667-.862-.504 0-.804.397-.864 1.226zm3.602-1.083a1.03 1.03 0 00-.564-.17c-.283 0-.573.119-.573.475 0 .372.4.59.812.828.513.304 1.06.634 1.06 1.31 0 .694-.58 1.218-1.521 1.218-.48 0-.907-.143-1.087-.253a4.196 4.196 0 01-.06-.651c0-.339.095-.474.352-.474.043 0 .11.009.11.009l.18.72c.086.058.335.168.582.168.42 0 .685-.16.685-.516 0-.363-.41-.566-.795-.803-.523-.33-1.044-.66-1.044-1.387 0-.66.582-1.1 1.403-1.1.496 0 .846.17 1 .314.018.117.035.295.035.464 0 .296-.06.49-.367.49a.86.86 0 01-.103-.008zm3.387-.12c-.573 0-1.07.407-1.07 1.515 0 1.065.42 1.683 1.225 1.683.53 0 .837-.27.974-.406a.492.492 0 01.137.287c0 .212-.47.702-1.41.702-1.112 0-1.831-.693-1.831-2.09 0-1.428.967-2.198 2.12-2.198.942 0 1.18.457 1.18.702 0 .229-.11.44-.435.508-.128-.296-.325-.702-.89-.702zm3.175.102h.017a1.672 1.672 0 011.317-.609c.856 0 1.342.499 1.342 1.489v2.241l.496.11c.086.017.12.042.12.11a.589.589 0 01-.086.237h-1.941s-.01-.05-.01-.076c0-.152.104-.229.266-.28l.283-.1v-2.14c0-.72-.393-.939-.83-.939-.53 0-.813.228-.975.388v2.69l.479.11c.085.017.119.042.119.11a.48.48 0 01-.085.237h-1.942s-.008-.05-.008-.076c0-.152.102-.229.265-.28l.299-.1v-5.134l-.607-.085s-.01-.058-.01-.092c0-.144.112-.246.318-.262l1.17-.11v2.561zm5.029 3.121l.495.11c.086.017.12.042.12.11a.48.48 0 01-.085.237h-1.95s-.01-.05-.01-.076c0-.152.104-.229.266-.28l.299-.1v-5.134l-.607-.085s-.01-.058-.01-.092c0-.144.112-.246.318-.262l1.163-.11v5.682zm4.97-.017l.624.085s.009.034.009.067c0 .152-.112.253-.317.271l-1.13.102v-.559h-.017a1.53 1.53 0 01-1.266.61c-.915 0-1.342-.533-1.342-1.53v-2.158l-.607-.092s-.01-.05-.01-.084c0-.144.112-.246.318-.263l1.163-.11v2.665c0 .77.41.947.787.947.436 0 .727-.186.924-.406v-2.656l-.608-.093s-.008-.05-.008-.083c0-.145.112-.246.317-.263l1.163-.11zm3.079-3.086a1.03 1.03 0 00-.564-.17c-.283 0-.573.119-.573.475 0 .372.402.59.812.828.513.304 1.06.634 1.06 1.31 0 .694-.58 1.218-1.52 1.218-.48 0-.908-.143-1.088-.253a4.196 4.196 0 01-.06-.651c0-.339.095-.474.352-.474.043 0 .112.009.112.009l.18.72c.084.058.333.168.58.168.42 0 .685-.16.685-.516 0-.363-.41-.566-.795-.803-.523-.33-1.044-.66-1.044-1.387 0-.66.582-1.1 1.403-1.1.496 0 .846.17 1 .314.018.117.035.295.035.464 0 .296-.06.49-.367.49-.043 0-.103-.008-.103-.008zm3.37 0a1.03 1.03 0 00-.564-.17c-.283 0-.573.119-.573.475 0 .372.402.59.813.828.513.304 1.06.634 1.06 1.31 0 .694-.581 1.218-1.522 1.218-.48 0-.906-.143-1.086-.253a4.196 4.196 0 01-.06-.651c0-.339.095-.474.35-.474.045 0 .113.009.113.009l.18.72c.085.058.333.168.58.168.42 0 .685-.16.685-.516 0-.363-.41-.566-.795-.803-.522-.33-1.044-.66-1.044-1.387 0-.66.582-1.1 1.403-1.1.497 0 .847.17 1.002.314.017.117.034.295.034.464 0 .296-.06.49-.368.49a.936.936 0 01-.102-.008zm2.319 1.53c.008 1.049.514 1.54 1.248 1.54.548 0 .856-.213 1.07-.39a.423.423 0 01.127.288c0 .212-.564.693-1.513.693-1.052 0-1.84-.592-1.84-2.064 0-1.471.9-2.224 1.874-2.224.967 0 1.454.584 1.454 1.429 0 .219-.043.516-.103.726h-2.317zm1.497-.447c.017-.077.043-.22.043-.364 0-.465-.172-.862-.667-.862-.504 0-.804.397-.865 1.226zm3.602-1.083a1.03 1.03 0 00-.565-.17c-.283 0-.573.119-.573.475 0 .372.402.59.813.828.513.304 1.06.634 1.06 1.31 0 .694-.581 1.218-1.521 1.218-.48 0-.907-.143-1.087-.253a4.196 4.196 0 01-.06-.651c0-.339.095-.474.35-.474.045 0 .113.009.113.009l.18.72c.085.058.333.168.58.168.42 0 .685-.16.685-.516 0-.363-.41-.566-.795-.803-.522-.33-1.043-.66-1.043-1.387 0-.66.58-1.1 1.402-1.1.497 0 .847.17 1.002.314.017.117.034.295.034.464 0 .296-.06.49-.367.49-.044 0-.103-.008-.103-.008zm-95.064 12.754l.624.085s.009.033.009.067c0 .152-.112.253-.317.27l-1.13.102v-.55h-.025c-.187.262-.547.6-1.214.6-.838 0-1.625-.532-1.625-2.004 0-1.572 1.11-2.283 2.206-2.283.249 0 .462.042.608.077v-1.481l-.608-.084s-.008-.059-.008-.093c0-.144.112-.245.317-.262l1.164-.11v5.666zm-.864-2.952c-.13-.117-.36-.253-.718-.253-.694 0-1.206.49-1.206 1.607 0 1.09.479 1.53 1.052 1.53.496 0 .76-.228.872-.355zm2.89 1.396c.01 1.048.515 1.538 1.25 1.538.547 0 .855-.21 1.069-.388a.423.423 0 01.127.288c0 .21-.563.692-1.513.692-1.052 0-1.84-.592-1.84-2.064 0-1.471.9-2.224 1.874-2.224.967 0 1.454.583 1.454 1.43 0 .218-.043.515-.102.726h-2.318zm1.498-.448c.017-.076.043-.22.043-.364 0-.464-.172-.862-.667-.862-.504 0-.804.398-.864 1.226zm3.6-1.083a1.029 1.029 0 00-.563-.17c-.282 0-.573.12-.573.474 0 .373.4.593.812.83.513.304 1.06.633 1.06 1.31 0 .693-.58 1.218-1.521 1.218-.48 0-.907-.144-1.086-.254a3.996 3.996 0 01-.06-.65c0-.339.093-.474.35-.474.044 0 .112.009.112.009l.18.718c.085.059.334.17.582.17.419 0 .685-.16.685-.517 0-.363-.411-.566-.796-.803-.523-.33-1.044-.66-1.044-1.387 0-.66.582-1.1 1.403-1.1.496 0 .847.17 1 .313.018.119.035.297.035.466 0 .296-.06.49-.367.49a.86.86 0 01-.103-.009zm5.15 3.561h-1.932s-.01-.05-.01-.093c0-.135.07-.254.292-.305l.359-.084v-4.888l-.522-.118c-.086-.017-.12-.042-.12-.093 0-.076.06-.178.094-.253h1.84c2.155 0 3.445.795 3.445 2.834.002 2.052-1.281 3-3.445 3zm-.025-5.32h-.342v4.803h.342c1.582 0 2.49-.82 2.49-2.46 0-1.581-.916-2.343-2.49-2.343zm5.14 3.29c.01 1.048.516 1.538 1.25 1.538.548 0 .856-.21 1.069-.388a.423.423 0 01.128.288c0 .21-.564.692-1.514.692-1.051 0-1.838-.592-1.838-2.064 0-1.471.898-2.224 1.873-2.224.967 0 1.454.583 1.454 1.43 0 .218-.043.515-.103.726h-2.318zm1.499-.448c.017-.076.043-.22.043-.364 0-.464-.172-.862-.667-.862-.504 0-.804.398-.865 1.226zm5.458 2.004l.624.085s.009.033.009.067c0 .152-.112.253-.317.27l-1.13.102v-.558h-.017a1.53 1.53 0 01-1.266.61c-.915 0-1.342-.533-1.342-1.531v-2.157l-.607-.093s-.01-.05-.01-.084c0-.144.112-.246.318-.262l1.163-.11v2.664c0 .77.41.948.787.948.436 0 .727-.186.924-.406v-2.656l-.608-.093s-.008-.05-.008-.084c0-.144.112-.246.317-.262l1.163-.11zm3.567-3.146h-1.171v2.47c0 .38.119.693.547.693.333 0 .607-.144.676-.203a.613.613 0 01.077.279c0 .084-.3.482-1.078.482s-1.086-.449-1.086-1.099v-2.622h-.641s-.01-.05-.01-.076c0-.16.104-.253.266-.287l.42-.102.196-1.142h.633v1.142h1.266zm2.507.059a1.029 1.029 0 00-.565-.17c-.282 0-.573.12-.573.474 0 .373.402.593.812.83.513.304 1.06.633 1.06 1.31 0 .693-.58 1.218-1.52 1.218-.48 0-.908-.144-1.087-.254a3.996 3.996 0 01-.06-.65c0-.339.093-.474.35-.474.044 0 .113.009.113.009l.179.718c.085.059.334.17.582.17.419 0 .685-.16.685-.517 0-.363-.411-.566-.796-.803-.523-.33-1.044-.66-1.044-1.387 0-.66.582-1.1 1.403-1.1.496 0 .847.17 1 .313.018.119.035.297.035.466 0 .296-.06.49-.367.49a.86.86 0 01-.103-.009l-.105-.634zm3.386-.118c-.573 0-1.07.406-1.07 1.513 0 1.065.42 1.683 1.224 1.683.53 0 .837-.27.974-.406a.496.496 0 01.137.288c0 .212-.47.701-1.41.701-1.112 0-1.83-.692-1.83-2.089 0-1.429.966-2.198 2.12-2.198.94 0 1.18.456 1.18.702 0 .228-.11.44-.435.507-.128-.295-.325-.701-.89-.701zm3.174.101h.017a1.672 1.672 0 011.318-.609c.855 0 1.34.499 1.34 1.489v2.24l.498.11c.085.017.118.043.118.11a.594.594 0 01-.084.238H61.16s-.01-.05-.01-.077c0-.151.104-.228.266-.28l.283-.1v-2.14c0-.72-.393-.94-.83-.94-.53 0-.813.23-.975.39v2.69l.48.11c.084.016.118.042.118.11 0 .084-.06.212-.084.237h-1.943s-.008-.05-.008-.077c0-.151.103-.228.265-.28l.299-.1v-5.134l-.607-.084s-.01-.059-.01-.093c0-.144.113-.245.318-.262l1.17-.11v2.562zm4.637 1.548c.008 1.048.512 1.538 1.248 1.538.547 0 .855-.21 1.069-.388a.423.423 0 01.128.288c0 .21-.565.692-1.514.692-1.052 0-1.84-.592-1.84-2.064 0-1.471.9-2.224 1.874-2.224.967 0 1.454.583 1.454 1.43 0 .218-.043.515-.102.726h-2.317zm1.496-.448c.017-.076.043-.22.043-.364 0-.464-.17-.862-.667-.862-.504 0-.803.398-.864 1.226zm5.67 2.02l.506.11c.085.017.12.043.12.11a.58.58 0 01-.086.238h-1.943s-.008-.05-.008-.077c0-.151.102-.228.265-.28l.283-.1v-2.14c0-.72-.41-.94-.83-.94-.488 0-.805.23-.985.374v2.706l.488.11c.086.016.12.042.12.11a.58.58 0 01-.085.237h-1.942s-.01-.05-.01-.077c0-.151.104-.219.266-.28l.3-.1v-3.13l-.607-.092s-.01-.051-.01-.085c0-.143.112-.246.317-.262l1.163-.11-.05.592h.025c.23-.246.616-.643 1.403-.643.838 0 1.3.533 1.3 1.489v2.24zm5.989-2.562v.017c.83.136 1.377.6 1.377 1.37 0 .947-.787 1.632-2.326 1.632h-2.172s-.01-.05-.01-.093c0-.135.069-.254.29-.304l.36-.085v-4.887l-.522-.119c-.085-.017-.12-.042-.12-.092 0-.077.06-.178.095-.254h2.01c1.522 0 2.25.533 2.25 1.472 0 .802-.496 1.182-1.232 1.343zm-1.095-2.3h-.461v2.131h.453c.976 0 1.386-.474 1.386-1.074 0-.694-.437-1.057-1.378-1.057zm.103 2.622h-.564v2.181h.514c1 0 1.444-.465 1.444-1.124 0-.626-.47-1.057-1.394-1.057zm6.963 2.224l.625.085s.01.033.01.067c0 .152-.112.253-.318.27l-1.13.102v-.558h-.016a1.53 1.53 0 01-1.266.61c-.916 0-1.343-.533-1.343-1.531v-2.157l-.607-.093s-.01-.05-.01-.084c0-.144.113-.246.318-.262l1.164-.11v2.664c0 .77.41.948.787.948.436 0 .727-.186.924-.406v-2.656l-.607-.093s-.01-.05-.01-.084c0-.144.112-.246.317-.262l1.163-.11v3.66zm5.149.016l.505.11c.085.017.12.043.12.11a.594.594 0 01-.085.238h-1.943s-.008-.05-.008-.077c0-.151.103-.228.265-.28l.282-.1v-2.14c0-.72-.41-.94-.83-.94-.487 0-.804.23-.983.374v2.706l.487.11c.086.016.12.042.12.11a.58.58 0 01-.085.237H84.71s-.01-.05-.01-.077c0-.151.104-.219.267-.28l.299-.1v-3.13l-.608-.092s-.008-.051-.008-.085c0-.143.112-.246.317-.262l1.163-.11-.051.592h.025c.232-.246.616-.643 1.403-.643.838 0 1.3.533 1.3 1.489zm4.74-.016l.624.085s.01.033.01.067c0 .152-.112.253-.318.27l-1.13.102v-.55h-.024c-.187.262-.547.6-1.214.6-.838 0-1.625-.532-1.625-2.004 0-1.572 1.11-2.283 2.206-2.283.248 0 .462.042.608.077v-1.481l-.608-.084s-.008-.059-.008-.093c0-.144.11-.245.317-.262l1.163-.11v5.666zm-.863-2.952c-.13-.117-.36-.253-.72-.253-.692 0-1.205.49-1.205 1.607 0 1.09.48 1.53 1.052 1.53.496 0 .762-.228.873-.355zm2.89 1.396c.009 1.048.514 1.538 1.249 1.538.548 0 .856-.21 1.07-.388a.423.423 0 01.127.288c0 .21-.565.692-1.514.692-1.051 0-1.838-.592-1.838-2.064 0-1.471.898-2.224 1.873-2.224.967 0 1.454.583 1.454 1.43 0 .218-.043.515-.103.726h-2.317zm1.498-.448c.017-.076.042-.22.042-.364 0-.464-.17-.862-.666-.862-.505 0-.804.398-.865 1.226zm3.6-1.083a1.029 1.029 0 00-.564-.17c-.282 0-.573.12-.573.474 0 .373.402.593.813.83.513.304 1.06.633 1.06 1.31 0 .693-.581 1.218-1.521 1.218-.48 0-.907-.144-1.086-.254a3.996 3.996 0 01-.06-.65c0-.339.093-.474.35-.474.044 0 .112.009.112.009l.18.718c.085.059.333.17.582.17.419 0 .684-.16.684-.517 0-.363-.41-.566-.796-.803-.522-.33-1.043-.66-1.043-1.387 0-.66.58-1.1 1.402-1.1.497 0 .848.17 1.002.313.017.119.034.297.034.466 0 .296-.06.49-.367.49a.837.837 0 01-.103-.009zm3.858-.059h-1.17v2.47c0 .38.119.693.547.693.333 0 .607-.144.676-.203a.613.613 0 01.077.279c0 .084-.3.482-1.078.482s-1.086-.449-1.086-1.099v-2.622h-.641s-.01-.05-.01-.076c0-.16.104-.253.266-.287l.42-.102.196-1.142h.633v1.142h1.266zm3.542 2.715c0 .338.128.44.274.44.196 0 .299-.102.324-.144a.548.548 0 01.103.253c0 .11-.222.44-.778.44-.394 0-.642-.17-.72-.592h-.016c-.094.16-.41.61-1.12.61-.65 0-1.112-.44-1.112-1.109 0-.905 1-1.243 1.958-1.243h.223V106c0-.77-.206-1.074-.736-1.074-.196 0-.368.058-.436.083-.077.16-.146.457-.188.745 0 0-.128.009-.197.009-.29 0-.453-.136-.453-.398 0-.524.7-.922 1.497-.922.94 0 1.377.508 1.377 1.462zm-1.06-.922c-.693.033-1.087.28-1.087.726 0 .355.205.592.557.592.35 0 .616-.228.727-.363v-.964l-.198.009zm5.919-1.777h-.693c.162.212.265.466.265.77 0 .896-.753 1.404-1.685 1.404a2.04 2.04 0 01-.401-.042c-.12.067-.24.185-.24.38 0 .203.137.296.427.296h.992c.787 0 1.232.355 1.232.964 0 .846-.837 1.624-2.283 1.624-1.052 0-1.565-.363-1.565-.981 0-.591.47-.871.778-.964v-.017a.639.639 0 01-.352-.592c0-.49.454-.719.616-.804v-.017c-.48-.211-.787-.642-.787-1.251 0-.889.753-1.354 1.626-1.354.23 0 .453.034.666.102h1.498zm-2.463 3.57c-.12 0-.222-.01-.316-.017a.694.694 0 00-.368.625c0 .44.273.72.898.72.83 0 1.343-.382 1.343-.83 0-.347-.197-.498-.633-.498zm-.376-2.79c0 .667.342.929.77.929.46 0 .795-.262.795-.93 0-.6-.334-.905-.778-.905-.445 0-.787.254-.787.905zm4.26.794c.009 1.048.514 1.538 1.249 1.538.547 0 .855-.21 1.069-.388a.423.423 0 01.127.288c0 .21-.563.692-1.513.692-1.052 0-1.84-.592-1.84-2.064 0-1.471.9-2.224 1.874-2.224.967 0 1.454.583 1.454 1.43 0 .218-.043.515-.102.726h-2.318zm1.496-.448c.017-.076.043-.22.043-.364 0-.464-.171-.862-.667-.862-.504 0-.804.398-.864 1.226zm3.6-1.083a1.029 1.029 0 00-.563-.17c-.282 0-.573.12-.573.474 0 .373.402.593.812.83.514.304 1.06.633 1.06 1.31 0 .693-.581 1.218-1.521 1.218-.48 0-.907-.144-1.086-.254a3.996 3.996 0 01-.06-.65c0-.339.094-.474.35-.474.044 0 .113.009.113.009l.179.718c.085.059.334.17.582.17.42 0 .685-.16.685-.517 0-.363-.41-.566-.796-.803-.523-.33-1.044-.66-1.044-1.387 0-.66.582-1.1 1.403-1.1.496 0 .847.17 1 .313a3.5 3.5 0 01.036.466c0 .296-.06.49-.368.49a.86.86 0 01-.103-.009z"/></g><path d="M33.848 32.811c.839 1.301 1.497 1.28 2.489 1.28-.821-.618-1.364-1.407-1.623-1.81l-1.533-2.406a3.55 3.55 0 00-1.13-1.954c.198-.073.362-.15.46-.223-1 0-1.992-.499-2.538-.499-.35 0-.577.206-.577.478.023.303.34.61.928.61.134 0 .303-.016.49-.047.318.435.575.828.575 1.389 0 1.053-1.284 1.873-2.58 1.873-.073 0-.143-.002-.217-.008-.118-.26-.508-.7-.508-1.197 0-.837.557-1.52.557-2.35 0-.515-.256-.833-.355-.966.159-.144.333-.323.374-.444-.093.039-.202.044-.363.044-.621 0-1.127-.159-1.622-.159-.281 0-.357.085-.357.166 0 .03.005.06.013.075a1.698 1.698 0 00-.322-.088 2.546 2.546 0 00-.47-.041c-.6 0-.813.247-.813.458 0 .18.144.506.307.754.234-.115.515-.194.644-.194.318 0 .6.298.75.65-.213.025-.254.035-.471.035-.584 0-.981-.205-1.063-.205-.01 0-.024.004-.024.017 0 .08.166.293.493.41.43.154 1.075.219 1.182.235 0 .019-.11.218-.231.257a.143.143 0 01-.076.003c-.45-.087-.575-.124-1.145-.337-.017-.006-.028.004-.028.023 0 .22.584.709 1.107.895-.437.547-.982 1.106-1.24 1.96a2.783 2.783 0 01-.216.007c-1.297 0-2.581-.82-2.581-1.873 0-.562.256-.954.575-1.389.187.03.357.048.49.048.588 0 .907-.309.93-.611 0-.272-.226-.478-.58-.478-.545 0-1.536.499-2.538.499.1.073.263.15.46.223a3.548 3.548 0 00-1.128 1.954l-1.534 2.405c-.258.404-.802 1.193-1.623 1.81.992 0 1.65.022 2.49-1.279l.785-1.233c.058.16.13.316.214.469l-1.564 2.452c-.26.407-.8 1.19-1.623 1.81.992 0 1.65.023 2.49-1.278l1.345-2.112c.1.105.207.208.319.306l-1.9 2.98c-.26.408-.796 1.189-1.622 1.81.992 0 1.65.023 2.49-1.279l1.85-2.906c.123.076.248.15.376.218l-2.26 3.545c-.26.408-.797 1.187-1.622 1.809.992 0 1.65.022 2.49-1.278l2.326-3.652c.138.051.277.101.42.146l-2.63 4.126c-.256.402-.806 1.195-1.622 1.809.99 0 1.65.022 2.488-1.278l2.803-4.398.084.015c.077.238.13.46.13.681 0 1.382-.925 2.602-2.035 3.544.07.03.194.041.309.041.229 0 .377-.012.48-.03-.257.574-.81 1.314-1.09 1.696a8.264 8.264 0 00-1.237-.114c-.362 0-.403.208-.403.393 0 .322.154.58.333.721.067-.164.202-.385.87-.385l.069.004c-.196.214-.81.699-.81 1.09 0 .259.29.647.673.647-.023-.084-.02-.16-.02-.218 0-.318.286-.687.528-.946-.007.077-.003.069-.003.158 0 .75.069 1.093.553 1.093.238 0 .402-.128.459-.167-.315-.284-.332-.507-.332-.927l.003-.363c0-.096 0-.223-.017-.315.174-.023.244-.023.378-.023 0 0 .688-.053.854.297.187-.168.458-.405.458-.666 0-.173-.083-.369-.438-.369-.135 0-.557.082-.91.082.095-.208.517-.814.883-1.254a1 1 0 00.334.506c.026-.283.196-1.178.647-1.7.053.353.123.716.123 1.48 0 1.86-.456 3.234-1.424 3.497.126.215.393.408.669.408.354 0 .547-.392.744-.763.102.273.385.944.669.944.283 0 .566-.67.669-.944.197.37.39.763.743.763.277 0 .544-.193.67-.408-.97-.263-1.426-1.636-1.426-3.496 0-.765.07-1.127.123-1.481.45.522.62 1.418.647 1.7a.998.998 0 00.335-.506c.366.44.789 1.046.884 1.254-.354 0-.777-.082-.91-.082-.355 0-.438.196-.438.369 0 .26.27.498.458.666.166-.351.855-.297.855-.297.133 0 .203 0 .377.023a1.905 1.905 0 00-.017.315l.003.363c0 .42-.017.643-.33.927.056.039.22.167.458.167.484 0 .554-.344.554-1.093 0-.09.002-.082-.003-.158.24.258.528.628.528.946 0 .057.003.134-.02.218.382 0 .672-.388.672-.647 0-.391-.613-.877-.81-1.09l.068-.004c.67 0 .805.22.872.385a.926.926 0 00.333-.721c0-.185-.04-.393-.403-.393-.346 0-.875.05-1.24.114-.277-.383-.83-1.122-1.088-1.696.104.018.253.03.48.03.116 0 .24-.01.31-.04-1.11-.943-2.035-2.163-2.035-3.545 0-.221.053-.443.13-.68.027-.007.056-.011.085-.016l2.802 4.398c.838 1.3 1.497 1.278 2.488 1.278-.817-.614-1.365-1.407-1.622-1.809l-2.63-4.126c.143-.045.282-.094.42-.146l2.327 3.652c.838 1.3 1.496 1.278 2.489 1.278-.826-.622-1.362-1.4-1.623-1.809l-2.26-3.545c.13-.07.255-.143.376-.218l1.852 2.906c.84 1.302 1.497 1.278 2.489 1.278-.825-.62-1.361-1.4-1.623-1.808l-1.9-2.981a4.86 4.86 0 00.319-.306l1.347 2.112c.84 1.3 1.496 1.278 2.49 1.278-.826-.62-1.364-1.403-1.624-1.81l-1.564-2.452c.084-.153.156-.31.214-.47zm-12.55-2.824c0-.916.68-1.641.92-1.845.057.014.114.028.17.039-.253.304-.701.814-.701 1.49 0 1.34 1.46 2.504 3.115 2.504-.01.115-.016.236-.016.36 0 .197.012.381.03.555-1.871-.01-3.518-1.5-3.518-3.103zm2.535 10.992l-.01.031h.032c.526 0 .782-.037.95-.06.09-.012.153-.021.222-.021.136 0 .24.013.24.176 0 .111-.132.285-.26.386-.193-.18-.461-.215-.855-.215a4.51 4.51 0 00-.554.05l-.02.003-.023.003.007.06c.015.107.034.24.034.419l-.002.162-.002.202c0 .437.062.686.218.875a.493.493 0 01-.15.027c-.275 0-.356-.118-.356-.901 0-.157-.01-.305-.015-.403l-.008-.145-.035.026c-.411.308-.835.857-.86 1.269-.125-.08-.26-.254-.26-.39 0-.224.345-.56.743-.951l.23-.225.028-.028-.075-.018a1.67 1.67 0 00-.38-.061c-.447 0-.726.083-.9.267a.912.912 0 01-.113-.414c0-.078.015-.132.047-.164.04-.037.1-.037.154-.037h.01c.493 0 1.08.087 1.31.123l.015.004.01-.012c.039-.052.978-1.278 1.22-1.927a.515.515 0 01.204-.036c.185 0 .236.122.29.31-.587.698-.953 1.241-1.086 1.615zm5.063-1.925c.098 0 .146.016.203.036.244.65 1.182 1.875 1.222 1.927l.009.012.014-.004a9.33 9.33 0 011.31-.123h.01c.054 0 .115 0 .154.037.032.032.047.086.047.164 0 .12-.051.325-.113.414-.173-.184-.452-.267-.9-.267-.135 0-.294.04-.38.06l-.035.009-.04.01.258.254c.399.39.743.726.743.951 0 .135-.134.311-.258.39-.026-.412-.45-.961-.862-1.27l-.035-.025-.007.145c-.005.098-.014.246-.014.403 0 .783-.082.9-.358.9a.513.513 0 01-.148-.026c.156-.188.218-.438.218-.875l-.003-.202-.001-.162c0-.18.018-.312.033-.42l.008-.06-.043-.005a4.51 4.51 0 00-.554-.05c-.393 0-.661.035-.855.215-.128-.102-.26-.276-.26-.386 0-.163.105-.176.24-.176.069 0 .133.01.222.02.17.024.425.061.95.061h.032l-.01-.031c-.133-.374-.498-.918-1.085-1.616.052-.188.103-.31.288-.31zm-2.173-10.692a1.666 1.666 0 00-.341-.666c-.145-.166-.383-.365-.704-.365-.147 0-.393.067-.55.132-.058-.104-.172-.356-.172-.47 0-.116.202-.234.585-.234.846 0 1.352.375 1.352 1.004 0 .22-.09.421-.17.6zm.38-.817c-.03-.178-.1-.338-.205-.476.005-.162.073-.317.34-.19-.144.145-.032.402-.032.402s.295-.135.234-.325c.437.101.122.677-.338.589zm1.646 5.546c.022-.18.035-.366.035-.556 0-.103 0-.223-.012-.36 1.634-.022 3.067-1.177 3.067-2.504 0-.675-.45-1.186-.702-1.49.057-.011.114-.024.172-.038.24.204.919.93.919 1.845 0 1.591-1.624 3.07-3.48 3.103z" fill="#000"/><path fill="#fc0" d="M42.956 59.345h1.23v16.077h-2.87V59.345z"/><path fill="red" d="M42.956 43.188h1.23v16.157h-2.87V43.188z"/><path fill="#000" d="M44.186 27.192v16.076h-2.87V27.192zM55.163 28.409c0 .237-.03.443-.086.62-.057.177-.137.33-.235.457a1.25 1.25 0 01-.346.31 1.648 1.648 0 01-.408.177v.02c.173.033.334.095.485.187.15.092.282.207.394.345.112.138.202.3.269.487.067.186.1.391.1.615 0 .268-.044.515-.134.738a1.5 1.5 0 01-.418.58 2.014 2.014 0 01-.716.384c-.288.091-.63.138-1.027.138h-1.356v-6.788h1.278c.39 0 .725.041 1.005.123.278.082.507.199.687.35a1.3 1.3 0 01.389.546c.079.211.12.448.12.711zm-.845.03c0-.316-.11-.574-.327-.778-.218-.203-.56-.305-1.028-.305h-.442v2.341h.432c.449 0 .788-.111 1.019-.335.23-.223.346-.53.346-.924zm.124 3.128c0-.367-.117-.657-.35-.87-.234-.214-.57-.32-1.005-.32h-.566v2.38h.519c.493 0 .85-.1 1.07-.3.222-.2.332-.496.332-.89zm5.15 1.898h-.71v-.531h-.02a1.25 1.25 0 01-.37.389c-.1.068-.22.129-.36.18a1.33 1.33 0 01-.47.08c-.206 0-.39-.032-.553-.094a1.003 1.003 0 01-.418-.3 1.406 1.406 0 01-.264-.537 3.1 3.1 0 01-.091-.811v-3.1h.778v3.04c0 .394.062.674.187.84.125.168.32.251.582.251a.918.918 0 00.566-.172c.154-.115.276-.228.365-.339v-3.62h.779v4.724zm3.71 0v-3.04c0-.4-.066-.686-.198-.86-.131-.174-.332-.26-.6-.26a.916.916 0 00-.577.176 2.15 2.15 0 00-.365.345v3.64h-.778v-4.722h.71v.532h.02a1.22 1.22 0 01.376-.389c.102-.069.223-.13.364-.182.14-.052.3-.078.48-.078.205 0 .39.031.557.093a.998.998 0 01.424.3c.115.138.205.317.268.537.064.22.097.49.097.811v3.099h-.78v-.002zm1.729-2.291c0-.48.06-.88.182-1.2.122-.322.279-.581.47-.778.193-.197.41-.336.654-.418.243-.082.487-.123.73-.123.147 0 .275.011.384.034.11.024.199.05.27.084V26.51l.777-.088v7.043h-.71v-.502h-.02a1.084 1.084 0 01-.318.369c-.09.069-.201.128-.336.177a1.36 1.36 0 01-.471.073 1.48 1.48 0 01-.62-.133 1.348 1.348 0 01-.514-.423 2.215 2.215 0 01-.35-.747 4.161 4.161 0 01-.128-1.105zm1.825 1.7a1.002 1.002 0 00.754-.324.964.964 0 00.11-.138V29.5a1.134 1.134 0 00-.244-.118 1.06 1.06 0 00-.35-.049c-.18 0-.347.032-.505.094a.983.983 0 00-.408.31 1.619 1.619 0 00-.274.56c-.067.23-.101.512-.101.846 0 .328.027.602.082.822.054.22.13.396.226.531a.872.872 0 00.327.29.86.86 0 00.383.089zm5.794-2.537c0 .203-.006.379-.02.527-.012.148-.025.277-.038.388h-2.354c.025.557.143.967.35 1.23.208.261.508.393.899.393.135 0 .256-.017.365-.05a1.344 1.344 0 00.485-.256c.054-.046.094-.082.12-.108l.288.56-.143.143c-.064.062-.15.125-.26.187a1.82 1.82 0 01-.403.162c-.16.046-.35.069-.567.069-.288 0-.55-.05-.783-.148a1.492 1.492 0 01-.596-.458 2.233 2.233 0 01-.38-.786c-.09-.319-.134-.7-.134-1.146 0-.42.046-.782.14-1.087a2.18 2.18 0 01.379-.753 1.52 1.52 0 01.557-.438 1.64 1.64 0 01.682-.142c.442 0 .788.142 1.038.428.25.286.375.715.375 1.285zm-1.46-1.062a.775.775 0 00-.663.354c-.167.235-.263.577-.29 1.023h1.683a.948.948 0 00.015-.143 3.91 3.91 0 00.005-.202c0-.328-.064-.582-.193-.762-.128-.18-.314-.27-.557-.27zm4.486.423a1.994 1.994 0 00-.278-.241c-.135-.102-.311-.152-.53-.152-.204 0-.36.05-.47.147a.46.46 0 00-.163.354c0 .177.05.324.15.438a2.1 2.1 0 00.456.37l.288.176c.314.19.56.395.74.615.179.22.268.503.268.85 0 .374-.126.69-.38.945-.252.255-.616.383-1.09.383a1.853 1.853 0 01-.86-.196 1.196 1.196 0 01-.264-.172 1.76 1.76 0 01-.173-.172l.375-.63c.039.04.085.085.14.138a1.257 1.257 0 00.456.275c.096.033.208.05.337.05.23 0 .406-.053.528-.157a.488.488 0 00.183-.384.89.89 0 00-.043-.29.672.672 0 00-.13-.222 1.206 1.206 0 00-.211-.186 9.756 9.756 0 00-.29-.197l-.287-.187a2.797 2.797 0 01-.677-.6c-.163-.21-.245-.479-.245-.807a1.14 1.14 0 01.384-.87 1.35 1.35 0 01.428-.256 1.46 1.46 0 01.523-.093c.18 0 .333.018.46.053a1.35 1.35 0 01.564.305c.06.057.11.104.149.143zm3.796 3.767v-3.04c0-.386-.054-.665-.163-.836-.11-.17-.285-.256-.53-.256a1.1 1.1 0 00-.806.334 3.206 3.206 0 00-.144.157v3.64h-.778v-4.722h.71v.532h.02c.033-.053.08-.117.145-.192a1.363 1.363 0 01.576-.389c.128-.045.272-.068.432-.068.526 0 .897.21 1.114.63a1.493 1.493 0 01.797-.57c.128-.04.27-.06.423-.06.935 0 1.403.558 1.403 1.673v3.168h-.778v-3.04c0-.387-.067-.665-.202-.836-.135-.17-.333-.256-.596-.256a.876.876 0 00-.543.162 2.118 2.118 0 00-.341.31c.013.072.022.15.029.232.006.082.01.168.01.26v3.168h-.778zm5.14 0h-.778v-4.722h.778zm-.384-5.863a.496.496 0 01-.385-.157.588.588 0 01-.144-.413c0-.164.048-.298.144-.403a.496.496 0 01.385-.157c.153 0 .278.052.374.157.096.105.145.24.145.403a.59.59 0 01-.145.413.486.486 0 01-.374.157zm4.093 5.863v-3.04c0-.4-.065-.686-.197-.86-.131-.174-.332-.26-.6-.26a.916.916 0 00-.577.176 2.15 2.15 0 00-.365.345v3.64h-.778v-4.722h.71v.532h.02a1.22 1.22 0 01.376-.389c.102-.069.223-.13.364-.182.14-.052.3-.078.48-.078.205 0 .39.031.557.093a.998.998 0 01.424.3c.115.138.205.317.268.537.064.22.096.49.096.811v3.099h-.778zm2.719 0h-.78v-4.722h.78zm-.385-5.863a.496.496 0 01-.384-.157.587.587 0 01-.144-.413c0-.164.048-.298.144-.403a.496.496 0 01.384-.157c.154 0 .279.052.375.157.096.105.144.24.144.403 0 .17-.05.308-.144.413a.485.485 0 01-.375.157zm3.565 2.096a1.947 1.947 0 00-.278-.241c-.135-.102-.311-.152-.53-.152-.204 0-.361.05-.47.147a.46.46 0 00-.163.354c0 .177.05.324.15.438.099.115.25.238.455.37l.289.176c.314.19.56.395.74.615.178.22.268.503.268.85 0 .374-.127.69-.38.945-.252.255-.616.383-1.09.383a1.853 1.853 0 01-.86-.196 1.196 1.196 0 01-.264-.172 1.76 1.76 0 01-.173-.172l.375-.63c.039.04.085.085.14.138a1.257 1.257 0 00.456.275c.096.033.208.05.335.05.23 0 .407-.053.53-.157a.487.487 0 00.182-.384.89.89 0 00-.043-.29.672.672 0 00-.13-.222 1.206 1.206 0 00-.212-.186 8.47 8.47 0 00-.288-.197l-.288-.187a2.797 2.797 0 01-.677-.6c-.164-.21-.245-.479-.245-.807a1.14 1.14 0 01.384-.87 1.35 1.35 0 01.428-.256 1.46 1.46 0 01.523-.093c.18 0 .333.018.46.053a1.35 1.35 0 01.564.305c.06.057.11.104.149.143zm3.344-.305h-1.008v2.616c0 .335.042.562.125.684.083.121.225.182.423.182a.806.806 0 00.298-.05.972.972 0 00.183-.088l.105.64a1.2 1.2 0 01-.721.207c-.397 0-.695-.114-.894-.34-.198-.227-.297-.602-.297-1.126v-2.726h-.558v-.532l.558-.118.086-1.318h.692v1.318h1.104l-.096.65zm3.776.944c0 .203-.007.379-.02.527-.012.148-.025.277-.038.388h-2.354c.026.557.142.967.35 1.23.209.261.508.393.9.393.134 0 .255-.017.364-.05a1.344 1.344 0 00.485-.256c.054-.046.095-.082.12-.108l.289.56-.144.143c-.064.062-.15.125-.26.187a1.82 1.82 0 01-.403.162c-.16.045-.35.069-.567.069-.288 0-.55-.05-.783-.148a1.492 1.492 0 01-.596-.458 2.233 2.233 0 01-.38-.786 4.297 4.297 0 01-.134-1.146c0-.42.047-.782.14-1.087.093-.305.22-.556.38-.753a1.526 1.526 0 011.239-.58c.44 0 .788.142 1.037.428.25.286.375.715.375 1.285zm-1.46-1.062a.775.775 0 00-.663.354c-.166.236-.262.577-.288 1.023h1.68a.948.948 0 00.015-.143 3.91 3.91 0 00.005-.202c0-.328-.064-.582-.192-.762-.128-.18-.314-.27-.557-.27zm4.525.167a.514.514 0 00-.125-.049.938.938 0 00-.26-.03c-.243 0-.433.067-.571.202-.138.135-.236.28-.293.438v3.463h-.78v-4.722h.713v.64h.019a1.47 1.47 0 01.125-.271.972.972 0 01.192-.237.842.842 0 01.274-.162 1.08 1.08 0 01.38-.058c.109 0 .197.01.264.03l.158.048zm1.547 4.023h-.78v-4.722h.78zm-.385-5.863a.496.496 0 01-.384-.157.587.587 0 01-.144-.413c0-.164.048-.298.144-.403a.496.496 0 01.384-.157c.154 0 .279.052.375.157.096.105.144.24.144.403 0 .17-.05.308-.144.413a.486.486 0 01-.375.157zm4.804 5.863h-.71v-.531h-.02a1.25 1.25 0 01-.37.389c-.1.068-.22.129-.36.18a1.33 1.33 0 01-.47.08c-.206 0-.39-.032-.553-.094a1.003 1.003 0 01-.418-.3 1.406 1.406 0 01-.264-.537 3.1 3.1 0 01-.092-.811v-3.1h.779v3.04c0 .394.062.674.187.84.125.168.319.251.58.251a.918.918 0 00.568-.172c.154-.115.276-.228.365-.339v-3.62h.778zm3.614 0v-3.04c0-.386-.054-.665-.163-.836-.11-.171-.285-.256-.53-.256a1.1 1.1 0 00-.805.334 2.798 2.798 0 00-.144.157v3.64h-.778v-4.722h.71v.532h.02c.033-.053.08-.117.144-.192a1.32 1.32 0 01.578-.388c.128-.047.272-.069.432-.069.525 0 .897.21 1.115.63a1.493 1.493 0 01.796-.57c.129-.04.27-.06.424-.06.935 0 1.402.558 1.402 1.673v3.168h-.778v-3.04c0-.387-.067-.665-.202-.836-.135-.171-.334-.256-.596-.256a.876.876 0 00-.543.162 2.108 2.108 0 00-.34.31c.013.072.022.15.029.232.006.082.01.168.01.26v3.168h-.781zm-60.522 5.848h-.942v4.073h-.778v-4.074h-.557v-.532l.557-.108v-.944c0-.256.036-.475.106-.659.07-.183.163-.335.278-.452.116-.118.25-.203.404-.256a1.52 1.52 0 01.49-.078c.167 0 .308.023.423.069.116.046.192.081.23.108l-.162.659a.969.969 0 00-.163-.084.666.666 0 00-.26-.044c-.185 0-.326.059-.422.177-.096.118-.144.335-.144.65v.845h1.038l-.098.649zm3.997 4.072h-.712v-.532h-.02a1.25 1.25 0 01-.37.389c-.098.068-.22.13-.36.182-.14.052-.297.078-.47.078-.205 0-.39-.031-.552-.093a1.003 1.003 0 01-.418-.3 1.406 1.406 0 01-.264-.537 3.1 3.1 0 01-.092-.812v-3.098h.779v3.04c0 .393.062.673.187.841.125.167.32.25.58.25a.918.918 0 00.568-.171c.154-.115.276-.228.365-.34v-3.619h.779zm-1.912-6.08a.494.494 0 01-.135.364.44.44 0 01-.327.138.437.437 0 01-.327-.138.499.499 0 01-.135-.363c0-.15.044-.272.135-.364a.442.442 0 01.327-.138c.128 0 .236.046.327.138.09.092.135.213.135.364zm1.48 0a.498.498 0 01-.135.364.44.44 0 01-.327.138.438.438 0 01-.327-.138.499.499 0 01-.135-.363.5.5 0 01.135-.364.44.44 0 01.327-.138.44.44 0 01.327.138c.09.092.135.213.135.364zm3.65 2.057a.542.542 0 00-.125-.05.903.903 0 00-.26-.03c-.242 0-.433.067-.571.202-.138.135-.236.28-.293.438v3.463h-.78v-4.723h.713v.639h.02c.03-.092.073-.182.124-.27a.99.99 0 01.193-.237.827.827 0 01.273-.162 1.08 1.08 0 01.38-.058c.109 0 .197.01.264.03.067.02.12.036.158.049l-.096.708zm2.748 4.023v-6.788h1.25c.537 0 1.006.059 1.407.177.4.118.733.305 1 .56.265.256.462.59.59 1 .129.41.192.906.192 1.49 0 .623-.076 1.159-.23 1.608-.154.45-.372.819-.654 1.107a2.569 2.569 0 01-1.032.64 4.246 4.246 0 01-1.37.206zm.836-6.11v5.401h.317c.385 0 .724-.05 1.018-.153a1.77 1.77 0 00.75-.491c.205-.227.36-.522.466-.886.105-.363.158-.805.158-1.323 0-.479-.051-.88-.154-1.205a1.939 1.939 0 00-.446-.787 1.656 1.656 0 00-.721-.429 3.41 3.41 0 00-.975-.128h-.413v.002zm5.429 6.11h-.778v-4.723h.778v4.722zm-.384-5.863a.496.496 0 01-.385-.157.588.588 0 01-.144-.413c0-.164.048-.299.144-.404a.496.496 0 01.385-.157c.153 0 .278.052.374.157.096.105.145.24.145.404a.59.59 0 01-.145.413.487.487 0 01-.374.157zm4.879 1.761h-.576c.148.249.22.532.22.846a1.8 1.8 0 01-.12.673 1.416 1.416 0 01-.845.822 1.808 1.808 0 01-.63.108h-.124a.863.863 0 01-.126-.01.964.964 0 00-.24.158.359.359 0 00-.125.285c0 .098.037.178.11.241.074.062.194.093.36.093h.587c.218 0 .42.024.605.07.186.045.347.119.485.22.138.102.245.232.323.39.077.156.115.347.115.57a1.531 1.531 0 01-.605 1.24c-.192.15-.426.268-.701.353a3.115 3.115 0 01-.922.128c-.494 0-.868-.11-1.124-.33-.256-.22-.385-.536-.385-.948 0-.177.03-.33.092-.457a1.409 1.409 0 01.47-.562l.207-.133v-.018c-.2-.15-.298-.37-.298-.659 0-.125.024-.233.072-.325a.909.909 0 01.345-.37c.06-.035.108-.06.14-.073v-.02a1.315 1.315 0 01-.572-.526c-.144-.239-.217-.546-.217-.92 0-.262.042-.494.125-.694.084-.2.196-.365.337-.497.14-.131.306-.23.495-.295.189-.065.393-.098.61-.098.219 0 .424.04.616.118h1.402l-.106.621zm-2.142 3.955c-.135 0-.253-.01-.356-.03a1.111 1.111 0 00-.168.118.818.818 0 00-.148.167.897.897 0 00-.11.232.995.995 0 00-.044.31c0 .505.272.757.816.757.467 0 .813-.094 1.037-.28.225-.187.336-.402.336-.645 0-.23-.07-.392-.211-.487-.14-.095-.33-.143-.567-.143h-.585zm1.028-3.11c0-.34-.078-.583-.236-.728a.792.792 0 00-.552-.216.829.829 0 00-.576.216c-.16.144-.24.387-.24.729 0 .34.079.583.24.728.16.144.345.217.557.217a.812.812 0 00.57-.217c.158-.145.237-.387.237-.728zm2.777 3.257h-.778v-4.723h.778v4.722zm-.383-5.863a.496.496 0 01-.385-.157.588.588 0 01-.144-.413c0-.164.048-.299.144-.404a.496.496 0 01.385-.157c.153 0 .278.052.374.157.096.105.144.24.144.404 0 .17-.05.308-.144.413a.487.487 0 01-.374.157zm3.545 1.79H78v2.617c0 .335.043.562.127.684.083.121.224.182.423.182a.806.806 0 00.298-.05.972.972 0 00.182-.088l.106.639a1.2 1.2 0 01-.721.207c-.397 0-.695-.114-.894-.34-.2-.227-.298-.602-.298-1.127v-2.725h-.557v-.531l.557-.119.087-1.318H78v1.318h1.106l-.096.652zm.614 2.873c0-.276.05-.506.154-.69a1.28 1.28 0 01.413-.447 1.73 1.73 0 01.61-.246c.235-.05.483-.074.745-.074h.24v-.451c0-.4-.068-.676-.206-.827-.138-.15-.332-.227-.581-.227-.231 0-.424.052-.577.153a3.513 3.513 0 00-.365.27l-.327-.532c.05-.052.117-.111.197-.177.08-.065.178-.128.293-.186a1.925 1.925 0 01.894-.207c.474 0 .832.135 1.076.403.244.269.365.702.365 1.299V42.4c0 .204.007.402.02.595.013.194.025.324.038.389h-.74l-.028-.522h-.02a1.26 1.26 0 01-.115.202.955.955 0 01-.192.207c-.077.062-.17.116-.28.162a.994.994 0 01-.383.068 1.206 1.206 0 01-1.14-.792 1.445 1.445 0 01-.091-.524zm1.394.64a.776.776 0 00.288-.05.921.921 0 00.217-.118.738.738 0 00.153-.153c.04-.056.078-.104.11-.143v-1.043l-.25.01c-.37.013-.652.079-.844.197-.192.118-.288.308-.288.57 0 .243.054.425.163.546.108.123.259.183.45.183zm3.478-.542c0 .197.028.335.082.413.054.079.148.118.283.118a.678.678 0 00.288-.06l.067.591a1.39 1.39 0 01-.625.128c-.262 0-.473-.082-.633-.246-.16-.164-.24-.456-.24-.875v-5.923l.777-.088v5.942zm4.38-2.026c0 .203-.005.378-.02.526-.011.148-.024.277-.037.389h-2.354c.026.557.142.967.35 1.23.208.261.508.393.899.393.135 0 .256-.017.365-.05a1.344 1.344 0 00.485-.256c.054-.046.094-.082.12-.109l.289.56c-.033.034-.08.081-.145.144-.064.062-.15.125-.26.187a1.82 1.82 0 01-.403.162c-.16.045-.35.068-.567.068-.288 0-.55-.05-.783-.147a1.485 1.485 0 01-.596-.457 2.22 2.22 0 01-.38-.787 4.292 4.292 0 01-.134-1.146c0-.42.046-.782.14-1.087.092-.305.22-.555.38-.752.159-.197.345-.342.556-.438.212-.095.439-.143.682-.143.442 0 .789.143 1.038.428.25.286.376.714.376 1.285zm-1.46-1.062a.775.775 0 00-.662.353c-.167.236-.263.577-.288 1.024h1.68a.948.948 0 00.016-.143 3.91 3.91 0 00.005-.202c0-.328-.064-.582-.192-.762-.13-.18-.315-.27-.558-.27zm4.488.423a1.947 1.947 0 00-.278-.242c-.135-.101-.311-.152-.53-.152-.204 0-.36.05-.47.147a.46.46 0 00-.163.354c0 .177.05.323.15.438.099.114.25.238.456.368l.288.177c.314.19.56.395.74.615.179.22.268.504.268.85 0 .374-.127.69-.38.945-.252.255-.616.383-1.09.383a1.853 1.853 0 01-.86-.196 1.196 1.196 0 01-.264-.172 1.76 1.76 0 01-.173-.172l.375-.63c.039.04.085.085.14.138a1.257 1.257 0 00.456.275c.096.033.208.05.336.05.23 0 .407-.052.529-.157a.488.488 0 00.182-.384.89.89 0 00-.043-.29.672.672 0 00-.13-.222 1.206 1.206 0 00-.211-.186 9.756 9.756 0 00-.29-.197l-.287-.187a2.797 2.797 0 01-.677-.6c-.163-.21-.245-.479-.245-.807a1.14 1.14 0 01.384-.87 1.35 1.35 0 01.428-.256 1.46 1.46 0 01.524-.093c.179 0 .332.018.46.054a1.35 1.35 0 01.563.305c.06.056.11.103.149.143l-.337.57zM54.75 53.305h-.711v-.532h-.02a1.25 1.25 0 01-.37.389c-.1.068-.22.13-.36.181-.14.053-.298.079-.47.079-.206 0-.39-.031-.553-.093a1.003 1.003 0 01-.418-.3 1.406 1.406 0 01-.264-.537 3.1 3.1 0 01-.091-.812v-3.098h.778v3.04c0 .393.062.673.187.841.126.167.32.25.582.25a.918.918 0 00.567-.171 2.07 2.07 0 00.365-.34v-3.62h.778zm3.71 0v-3.04c0-.4-.066-.687-.198-.86-.131-.174-.332-.26-.6-.26a.916.916 0 00-.577.176 2.181 2.181 0 00-.365.344v3.64h-.778v-4.723h.71v.531h.02a1.223 1.223 0 01.376-.389c.102-.069.223-.129.364-.181.14-.052.3-.079.48-.079.205 0 .39.032.557.094a.998.998 0 01.424.3c.115.138.205.317.268.536.064.22.096.49.096.811v3.099h-.778zm1.729-2.292c0-.478.06-.879.182-1.2.122-.322.279-.58.47-.777.193-.197.41-.337.654-.418.243-.082.487-.124.73-.124.148 0 .275.012.384.035.11.023.199.05.27.084V46.35l.777-.088v7.043h-.71v-.502h-.02a1.084 1.084 0 01-.318.369c-.09.068-.201.128-.335.176a1.38 1.38 0 01-.471.074c-.218 0-.425-.044-.62-.133a1.348 1.348 0 01-.515-.423 2.215 2.215 0 01-.35-.748 4.128 4.128 0 01-.128-1.105zm1.825 1.701a1.002 1.002 0 00.754-.324c.048-.053.085-.099.11-.139V49.34a1.174 1.174 0 00-.244-.118 1.058 1.058 0 00-.35-.05c-.18 0-.347.032-.505.094a.983.983 0 00-.408.31 1.619 1.619 0 00-.274.56c-.067.23-.101.512-.101.846 0 .328.027.602.082.821.054.22.13.397.226.532a.844.844 0 00.71.38zm9.06-6.197l-2.152 6.788h-.663l-2.095-6.788h.904l1.268 4.505c.07.25.133.489.187.719.055.23.085.42.092.57h.02c.006-.151.038-.34.095-.565.058-.227.122-.464.192-.714l1.316-4.515zm3.2 3.66c0 .203-.007.378-.02.526-.012.148-.025.277-.038.389h-2.354c.026.557.142.967.35 1.229.209.262.508.393.9.393.134 0 .255-.016.364-.05a1.344 1.344 0 00.485-.255c.054-.046.095-.082.12-.109l.289.56c-.032.034-.08.08-.145.144-.063.062-.15.125-.26.187a1.82 1.82 0 01-.402.162c-.16.045-.35.068-.567.068-.29 0-.55-.05-.783-.147a1.485 1.485 0 01-.596-.457 2.22 2.22 0 01-.38-.787c-.09-.318-.135-.7-.135-1.146 0-.42.047-.782.14-1.087.093-.305.22-.555.38-.752a1.52 1.52 0 01.557-.438c.21-.095.438-.143.682-.143.442 0 .788.143 1.037.428.25.286.376.714.376 1.285zm-1.46-1.063a.775.775 0 00-.664.354c-.166.236-.262.577-.288 1.024h1.682c.006-.034.01-.08.014-.143a3.91 3.91 0 00.005-.202c0-.328-.063-.582-.192-.762-.128-.18-.314-.27-.558-.27zm4.525.167a.542.542 0 00-.125-.05.903.903 0 00-.26-.029c-.243 0-.433.067-.571.202-.138.134-.236.28-.293.438v3.463h-.78v-4.723h.713v.639h.02c.03-.092.073-.182.124-.27a.99.99 0 01.192-.237.827.827 0 01.274-.162 1.08 1.08 0 01.38-.059c.109 0 .197.01.264.03.067.02.12.036.158.05l-.096.707zm2.508 1.466l1.585 2.558H80.5l-1.298-2.204h-.317v2.204h-.78V46.35l.78-.088v4.16h.327l1.24-1.838h.92zm5.053-.57c0 .203-.006.378-.02.526-.012.148-.025.277-.038.389h-2.354c.025.557.142.967.35 1.229.208.262.508.393.899.393.135 0 .256-.016.365-.05a1.344 1.344 0 00.485-.255c.054-.046.094-.082.12-.109l.288.56c-.032.034-.08.08-.143.144-.064.062-.15.125-.26.187a1.837 1.837 0 01-.403.162c-.16.045-.35.068-.567.068-.288 0-.55-.05-.783-.147a1.485 1.485 0 01-.596-.457 2.22 2.22 0 01-.38-.787c-.09-.318-.134-.7-.134-1.146 0-.42.046-.782.14-1.087.092-.305.219-.555.379-.752a1.52 1.52 0 01.557-.438c.21-.095.438-.143.682-.143.442 0 .788.143 1.038.428.25.286.375.714.375 1.285zm-1.46-1.063a.775.775 0 00-.663.354c-.166.237-.262.577-.288 1.024h1.682c.007-.034.01-.08.015-.143a3.91 3.91 0 00.004-.202c0-.328-.063-.582-.192-.762-.13-.18-.315-.27-.558-.27zm5.015 4.19v-3.039c0-.4-.065-.687-.197-.86-.131-.174-.332-.26-.6-.26a.916.916 0 00-.577.176 2.181 2.181 0 00-.365.344v3.64h-.778V46.35l.778-.088v2.804h.02c.025-.04.065-.092.12-.158.054-.065.13-.13.226-.196s.213-.123.35-.172c.138-.049.3-.074.485-.074.404 0 .724.135.96.404.238.268.357.715.357 1.337v3.098h-.78zm3.969-4.023a.542.542 0 00-.126-.05.903.903 0 00-.26-.029c-.242 0-.432.067-.57.202-.138.134-.236.28-.293.438v3.463h-.78v-4.723h.713v.639h.019c.032-.092.073-.182.125-.27a.99.99 0 01.192-.237.827.827 0 01.274-.162c.106-.04.232-.059.38-.059.108 0 .196.01.263.03.067.02.12.036.159.05l-.096.707z"/></g></svg>