<?xml version="1.0" encoding="UTF-8" standalone="no"?>
<svg
   width="209"
   height="180"
   viewBox="0 0 139 120"
   version="1.1"
   id="svg42"
   sodipodi:docname="bmdv.svg"
   inkscape:export-filename="../d410990f/BMDV.svg"
   inkscape:export-xdpi="96"
   inkscape:export-ydpi="96"
   xmlns:inkscape="http://www.inkscape.org/namespaces/inkscape"
   xmlns:sodipodi="http://sodipodi.sourceforge.net/DTD/sodipodi-0.dtd"
   xmlns="http://www.w3.org/2000/svg"
   xmlns:svg="http://www.w3.org/2000/svg">
  <defs
     id="defs46" />
  <sodipodi:namedview
     id="namedview44"
     pagecolor="#ffffff"
     bordercolor="#000000"
     borderopacity="0.25"
     inkscape:showpageshadow="2"
     inkscape:pageopacity="0.0"
     inkscape:pagecheckerboard="0"
     inkscape:deskcolor="#d1d1d1"
     showgrid="false" />
  <g
     fill-rule="nonzero"
     fill="none"
     id="g40"
     transform="translate(0.18588253,-14.578044)">
    <path
       d="M 0,0 H 139 V 142 H 0 Z"
       fill="#ffffff"
       id="path18" />
    <g
       fill="#000000"
       id="g26">
      <path
         d="m 23.08,18.048 c -0.18,-0.118 -0.574,-0.263 -1.044,-0.263 -1.042,0 -2.06,0.677 -2.06,2.428 0,1.691 0.795,2.528 1.924,2.528 0.41,0 0.735,-0.076 0.984,-0.169 V 20.89 l -0.523,-0.118 c -0.085,-0.017 -0.12,-0.043 -0.12,-0.093 0,-0.076 0.06,-0.178 0.095,-0.254 h 1.95 c 0,0 0.009,0.051 0.009,0.094 0,0.135 -0.078,0.237 -0.29,0.296 l -0.197,0.05 v 1.768 c -0.231,0.203 -0.864,0.66 -2.122,0.66 -1.505,0 -2.685,-0.922 -2.685,-2.977 0,-2.198 1.65,-3.061 3.07,-3.061 0.907,0 1.361,0.254 1.643,0.38 0.025,0.254 0.051,0.779 0.051,0.847 0,0.261 -0.077,0.43 -0.3,0.43 a 0.73,0.73 0 0 1 -0.196,-0.033 l -0.189,-0.83 z m 2.669,3.112 c 0.009,1.049 0.514,1.54 1.249,1.54 0.547,0 0.855,-0.212 1.069,-0.39 a 0.421,0.421 0 0 1 0.128,0.288 c 0,0.212 -0.564,0.694 -1.514,0.694 -1.052,0 -1.839,-0.593 -1.839,-2.064 0,-1.472 0.899,-2.225 1.873,-2.225 0.967,0 1.455,0.585 1.455,1.43 0,0.22 -0.044,0.516 -0.103,0.727 z m 1.497,-0.448 c 0.018,-0.076 0.044,-0.22 0.044,-0.364 0,-0.466 -0.172,-0.863 -0.668,-0.863 -0.504,0 -0.804,0.397 -0.864,1.226 h 1.488 z m 4.055,-1.142 h -1.043 v 3.162 l 0.581,0.11 c 0.085,0.018 0.12,0.043 0.12,0.11 0,0.085 -0.06,0.211 -0.085,0.237 h -2.036 c 0,0 -0.009,-0.05 -0.009,-0.076 0,-0.152 0.103,-0.22 0.265,-0.279 l 0.291,-0.102 V 19.57 h -0.633 c 0,0 -0.009,-0.051 -0.009,-0.076 0,-0.161 0.103,-0.246 0.265,-0.288 l 0.377,-0.101 v -0.084 c 0,-1.361 0.838,-2.021 1.574,-2.021 0.427,0 0.598,0.186 0.598,0.448 0,0.212 -0.128,0.33 -0.256,0.398 a 0.836,0.836 0 0 0 -0.564,-0.245 c -0.368,0 -0.496,0.203 -0.496,0.702 0,0.261 0.017,0.803 0.017,0.803 h 1.137 z m 4.405,1.54 c 0,1.462 -1.035,2.18 -2.079,2.18 -1.069,0 -1.95,-0.676 -1.95,-2.097 0,-1.43 1.026,-2.19 2.112,-2.19 1.07,0 1.917,0.634 1.917,2.106 z m -2.78,-2.69 a 0.447,0.447 0 0 1 -0.461,-0.457 c 0,-0.287 0.205,-0.473 0.462,-0.473 0.264,0 0.46,0.186 0.46,0.473 0,0.271 -0.196,0.457 -0.46,0.457 z m -0.333,2.723 c 0,1.134 0.462,1.641 1.095,1.641 0.633,0 1.103,-0.49 1.103,-1.624 0,-1.133 -0.47,-1.658 -1.103,-1.658 -0.633,0 -1.095,0.5 -1.095,1.641 z m 1.88,-2.723 c -0.273,0 -0.47,-0.186 -0.47,-0.457 0,-0.287 0.197,-0.473 0.47,-0.473 0.257,0 0.455,0.186 0.455,0.473 a 0.44,0.44 0 0 1 -0.454,0.457 z m 3.218,1.362 h 0.025 c 0.18,-0.287 0.496,-0.779 1.052,-0.779 0.403,0 0.59,0.187 0.59,0.45 a 0.715,0.715 0 0 1 -0.152,0.43 1.336,1.336 0 0 0 -0.574,-0.126 c -0.47,0 -0.71,0.186 -0.89,0.43 v 2.546 l 0.616,0.11 c 0.086,0.018 0.12,0.043 0.12,0.11 a 0.594,0.594 0 0 1 -0.085,0.237 h -2.07 c 0,0 -0.009,-0.05 -0.009,-0.076 0,-0.152 0.103,-0.22 0.265,-0.28 l 0.3,-0.1 v -3.13 l -0.607,-0.093 c 0,0 -0.01,-0.05 -0.01,-0.084 0,-0.144 0.112,-0.246 0.317,-0.262 l 1.163,-0.11 z m 5.662,2.934 0.625,0.085 c 0,0 0.01,0.034 0.01,0.068 0,0.152 -0.113,0.253 -0.318,0.27 l -1.13,0.102 v -0.55 h -0.025 c -0.188,0.262 -0.548,0.6 -1.215,0.6 -0.837,0 -1.624,-0.533 -1.624,-2.004 0,-1.573 1.112,-2.284 2.207,-2.284 0.247,0 0.46,0.043 0.607,0.077 V 17.6 l -0.607,-0.084 c 0,0 -0.01,-0.06 -0.01,-0.093 0,-0.144 0.112,-0.246 0.317,-0.262 l 1.163,-0.11 z M 42.49,19.765 c -0.128,-0.119 -0.36,-0.254 -0.719,-0.254 -0.693,0 -1.206,0.49 -1.206,1.607 0,1.09 0.48,1.53 1.052,1.53 0.496,0 0.762,-0.228 0.873,-0.355 z m 2.892,1.395 c 0.008,1.049 0.512,1.54 1.248,1.54 0.547,0 0.855,-0.212 1.069,-0.39 a 0.421,0.421 0 0 1 0.128,0.288 c 0,0.212 -0.565,0.694 -1.514,0.694 -1.052,0 -1.839,-0.593 -1.839,-2.064 0,-1.472 0.899,-2.225 1.873,-2.225 0.967,0 1.455,0.585 1.455,1.43 0,0.22 -0.044,0.516 -0.103,0.727 z m 1.496,-0.448 c 0.018,-0.076 0.043,-0.22 0.043,-0.364 0,-0.466 -0.17,-0.863 -0.667,-0.863 -0.504,0 -0.803,0.397 -0.864,1.226 h 1.488 z m 2.943,-0.93 h 0.025 c 0.18,-0.287 0.497,-0.779 1.052,-0.779 0.403,0 0.59,0.187 0.59,0.45 a 0.715,0.715 0 0 1 -0.152,0.43 1.336,1.336 0 0 0 -0.574,-0.126 c -0.47,0 -0.71,0.186 -0.89,0.43 v 2.546 l 0.616,0.11 c 0.086,0.018 0.12,0.043 0.12,0.11 a 0.594,0.594 0 0 1 -0.085,0.237 h -2.07 c 0,0 -0.009,-0.05 -0.009,-0.076 0,-0.152 0.103,-0.22 0.265,-0.28 l 0.3,-0.1 v -3.13 l -0.607,-0.093 c 0,0 -0.009,-0.05 -0.009,-0.084 0,-0.144 0.11,-0.246 0.316,-0.262 l 1.163,-0.11 -0.05,0.727 z m 4.541,-0.212 h -1.171 v 2.469 c 0,0.38 0.119,0.693 0.547,0.693 0.333,0 0.607,-0.144 0.676,-0.203 a 0.614,0.614 0 0 1 0.077,0.28 c 0,0.084 -0.299,0.482 -1.078,0.482 -0.778,0 -1.086,-0.448 -1.086,-1.1 V 19.57 h -0.641 c 0,0 -0.009,-0.051 -0.009,-0.076 0,-0.161 0.103,-0.254 0.265,-0.288 l 0.42,-0.101 0.196,-1.142 h 0.633 v 1.142 h 1.266 z m 6.006,3.146 0.624,0.085 c 0,0 0.009,0.034 0.009,0.068 0,0.152 -0.112,0.253 -0.317,0.27 l -1.13,0.102 v -0.55 h -0.025 c -0.187,0.262 -0.547,0.6 -1.214,0.6 -0.838,0 -1.625,-0.533 -1.625,-2.004 0,-1.573 1.111,-2.284 2.206,-2.284 0.249,0 0.462,0.043 0.608,0.077 V 17.6 l -0.608,-0.084 c 0,0 -0.008,-0.06 -0.008,-0.093 0,-0.144 0.112,-0.246 0.317,-0.262 l 1.163,-0.11 z m -0.864,-2.951 c -0.129,-0.119 -0.36,-0.254 -0.719,-0.254 -0.693,0 -1.205,0.49 -1.205,1.607 0,1.09 0.479,1.53 1.051,1.53 0.497,0 0.762,-0.228 0.873,-0.355 z m 5.799,2.951 0.624,0.085 c 0,0 0.01,0.034 0.01,0.068 0,0.152 -0.113,0.253 -0.318,0.27 l -1.129,0.102 v -0.558 h -0.017 a 1.53,1.53 0 0 1 -1.265,0.609 c -0.915,0 -1.343,-0.534 -1.343,-1.531 v -2.157 l -0.607,-0.093 c 0,0 -0.009,-0.05 -0.009,-0.084 0,-0.144 0.112,-0.246 0.317,-0.262 l 1.163,-0.11 v 2.664 c 0,0.77 0.411,0.947 0.787,0.947 0.436,0 0.726,-0.186 0.923,-0.406 v -2.655 l -0.607,-0.093 c 0,0 -0.008,-0.05 -0.008,-0.084 0,-0.144 0.111,-0.246 0.316,-0.263 l 1.163,-0.11 z m 2.421,-2.934 h 0.026 c 0.18,-0.287 0.496,-0.779 1.052,-0.779 0.402,0 0.59,0.187 0.59,0.45 a 0.715,0.715 0 0 1 -0.153,0.43 1.335,1.335 0 0 0 -0.573,-0.126 c -0.47,0 -0.71,0.186 -0.89,0.43 v 2.546 l 0.616,0.11 c 0.085,0.018 0.12,0.043 0.12,0.11 a 0.58,0.58 0 0 1 -0.086,0.237 h -2.07 c 0,0 -0.009,-0.05 -0.009,-0.076 0,-0.152 0.103,-0.22 0.266,-0.28 l 0.3,-0.1 v -3.13 l -0.609,-0.093 c 0,0 -0.008,-0.05 -0.008,-0.084 0,-0.144 0.112,-0.246 0.317,-0.262 l 1.163,-0.11 z m 3.978,-0.271 c -0.573,0 -1.07,0.406 -1.07,1.514 0,1.065 0.42,1.682 1.225,1.682 0.53,0 0.837,-0.27 0.974,-0.406 a 0.492,0.492 0 0 1 0.137,0.287 c 0,0.212 -0.47,0.703 -1.41,0.703 -1.113,0 -1.831,-0.694 -1.831,-2.09 0,-1.428 0.967,-2.198 2.121,-2.198 0.941,0 1.18,0.457 1.18,0.703 0,0.229 -0.11,0.44 -0.436,0.507 -0.129,-0.296 -0.326,-0.702 -0.89,-0.702 z m 3.174,0.101 h 0.017 a 1.672,1.672 0 0 1 1.317,-0.609 c 0.856,0 1.342,0.5 1.342,1.49 v 2.24 l 0.496,0.11 c 0.086,0.018 0.12,0.043 0.12,0.11 A 0.594,0.594 0 0 1 78.083,23.19 H 76.14 c 0,0 -0.009,-0.05 -0.009,-0.076 0,-0.152 0.103,-0.228 0.265,-0.28 l 0.283,-0.1 v -2.14 c 0,-0.719 -0.393,-0.939 -0.83,-0.939 -0.53,0 -0.813,0.228 -0.975,0.39 v 2.688 l 0.48,0.11 c 0.084,0.018 0.118,0.043 0.118,0.11 0,0.085 -0.06,0.211 -0.085,0.237 h -1.942 c 0,0 -0.008,-0.05 -0.008,-0.076 0,-0.152 0.103,-0.228 0.265,-0.28 l 0.299,-0.1 V 17.6 l -0.607,-0.084 c 0,0 -0.01,-0.06 -0.01,-0.093 0,-0.144 0.112,-0.246 0.318,-0.262 l 1.171,-0.11 v 2.561 h 0.002 z m 4.509,0.431 c -0.362,0 -0.642,-0.203 -0.642,-0.515 0,-0.322 0.28,-0.525 0.642,-0.525 0.363,0 0.653,0.203 0.653,0.525 0,0.312 -0.29,0.515 -0.653,0.515 z m 0,3.257 c -0.362,0 -0.642,-0.203 -0.642,-0.516 0,-0.321 0.28,-0.524 0.642,-0.524 0.363,0 0.653,0.203 0.653,0.524 0,0.313 -0.29,0.516 -0.653,0.516 z"
         id="path20" />
      <g
         id="g24">
        <path
           d="m 22.045,112.635 c 0,0.339 0.128,0.44 0.274,0.44 0.196,0 0.3,-0.101 0.324,-0.144 a 0.55,0.55 0 0 1 0.103,0.254 c 0,0.11 -0.222,0.44 -0.778,0.44 -0.394,0 -0.642,-0.17 -0.719,-0.593 h -0.017 c -0.093,0.162 -0.41,0.61 -1.12,0.61 -0.65,0 -1.112,-0.44 -1.112,-1.108 0,-0.905 1.001,-1.243 1.959,-1.243 h 0.222 v -0.381 c 0,-0.77 -0.205,-1.074 -0.736,-1.074 -0.196,0 -0.367,0.059 -0.436,0.084 -0.077,0.16 -0.145,0.456 -0.188,0.744 0,0 -0.128,0.009 -0.196,0.009 -0.29,0 -0.453,-0.135 -0.453,-0.397 0,-0.525 0.7,-0.923 1.497,-0.923 0.94,0 1.376,0.508 1.376,1.463 v 1.82 z m -1.06,-0.922 c -0.693,0.034 -1.086,0.28 -1.086,0.727 0,0.355 0.205,0.592 0.556,0.592 0.351,0 0.616,-0.228 0.728,-0.364 v -0.963 z m 5.944,1.353 0.625,0.085 c 0,0 0.009,0.034 0.009,0.067 0,0.152 -0.112,0.253 -0.317,0.271 l -1.13,0.102 v -0.559 H 26.1 a 1.53,1.53 0 0 1 -1.266,0.61 c -0.915,0 -1.342,-0.533 -1.342,-1.53 v -2.158 l -0.607,-0.092 c 0,0 -0.01,-0.05 -0.01,-0.084 0,-0.144 0.112,-0.246 0.318,-0.263 l 1.163,-0.11 v 2.665 c 0,0.77 0.41,0.947 0.787,0.947 0.436,0 0.728,-0.186 0.924,-0.406 v -2.656 l -0.607,-0.093 c 0,0 -0.009,-0.05 -0.009,-0.083 0,-0.145 0.11,-0.246 0.316,-0.263 l 1.164,-0.11 v 3.66 H 26.93 Z m 3.534,-3.146 h -1.044 v 3.164 l 0.582,0.11 c 0.085,0.017 0.12,0.042 0.12,0.11 a 0.48,0.48 0 0 1 -0.086,0.237 H 28 c 0,0 -0.009,-0.05 -0.009,-0.076 0,-0.152 0.103,-0.22 0.265,-0.28 l 0.29,-0.101 v -3.164 h -0.632 c 0,0 -0.01,-0.05 -0.01,-0.075 0,-0.161 0.103,-0.246 0.266,-0.288 l 0.377,-0.101 v -0.084 c 0,-1.362 0.837,-2.022 1.574,-2.022 0.427,0 0.598,0.186 0.598,0.449 0,0.211 -0.128,0.33 -0.256,0.397 a 0.84,0.84 0 0 0 -0.565,-0.245 c -0.367,0 -0.496,0.203 -0.496,0.701 0,0.262 0.017,0.804 0.017,0.804 h 1.138 z m 4.268,0.017 h -0.692 c 0.162,0.212 0.264,0.465 0.264,0.77 0,0.896 -0.752,1.404 -1.684,1.404 a 1.98,1.98 0 0 1 -0.402,-0.043 c -0.12,0.068 -0.24,0.185 -0.24,0.381 0,0.203 0.137,0.296 0.427,0.296 h 0.993 c 0.787,0 1.232,0.354 1.232,0.963 0,0.846 -0.838,1.624 -2.284,1.624 -1.052,0 -1.565,-0.363 -1.565,-0.98 0,-0.592 0.47,-0.872 0.778,-0.964 v -0.017 a 0.636,0.636 0 0 1 -0.351,-0.592 c 0,-0.49 0.454,-0.719 0.616,-0.803 v -0.017 c -0.48,-0.211 -0.787,-0.642 -0.787,-1.251 0,-0.889 0.752,-1.354 1.625,-1.354 0.23,0 0.453,0.034 0.666,0.102 h 1.497 z m -2.464,3.57 c -0.118,0 -0.221,-0.009 -0.316,-0.018 a 0.694,0.694 0 0 0 -0.368,0.625 c 0,0.44 0.274,0.72 0.899,0.72 0.83,0 1.342,-0.381 1.342,-0.828 0,-0.348 -0.196,-0.5 -0.633,-0.5 h -0.924 z m -0.376,-2.791 c 0,0.667 0.342,0.93 0.77,0.93 0.461,0 0.795,-0.263 0.795,-0.93 0,-0.6 -0.333,-0.905 -0.778,-0.905 -0.445,0 -0.787,0.253 -0.787,0.905 z m 4.654,-0.584 h 0.025 c 0.18,-0.287 0.496,-0.779 1.052,-0.779 0.402,0 0.59,0.186 0.59,0.45 a 0.717,0.717 0 0 1 -0.153,0.43 1.336,1.336 0 0 0 -0.573,-0.126 c -0.47,0 -0.71,0.185 -0.89,0.43 v 2.546 l 0.616,0.11 c 0.085,0.017 0.12,0.042 0.12,0.11 a 0.589,0.589 0 0 1 -0.085,0.237 h -2.07 c 0,0 -0.01,-0.05 -0.01,-0.076 0,-0.152 0.104,-0.22 0.266,-0.28 l 0.3,-0.1 v -3.13 l -0.608,-0.093 c 0,0 -0.008,-0.05 -0.008,-0.084 0,-0.144 0.11,-0.246 0.316,-0.263 l 1.163,-0.11 z m 5.911,2.934 0.624,0.085 c 0,0 0.01,0.034 0.01,0.067 0,0.152 -0.112,0.253 -0.318,0.271 l -1.129,0.102 v -0.559 h -0.017 a 1.53,1.53 0 0 1 -1.266,0.61 c -0.915,0 -1.343,-0.533 -1.343,-1.53 v -2.158 l -0.607,-0.092 c 0,0 -0.009,-0.05 -0.009,-0.084 0,-0.144 0.112,-0.246 0.317,-0.263 l 1.164,-0.11 v 2.665 c 0,0.77 0.41,0.947 0.787,0.947 0.436,0 0.726,-0.186 0.924,-0.406 v -2.656 l -0.608,-0.093 c 0,0 -0.008,-0.05 -0.008,-0.083 0,-0.145 0.111,-0.246 0.317,-0.263 l 1.163,-0.11 v 3.66 z m 5.149,0.017 0.504,0.11 c 0.086,0.017 0.12,0.042 0.12,0.11 a 0.589,0.589 0 0 1 -0.084,0.237 h -1.943 c 0,0 -0.009,-0.05 -0.009,-0.076 0,-0.152 0.104,-0.229 0.266,-0.28 l 0.282,-0.1 v -2.14 c 0,-0.72 -0.41,-0.939 -0.83,-0.939 -0.488,0 -0.804,0.228 -0.983,0.372 v 2.706 l 0.487,0.11 c 0.086,0.017 0.12,0.042 0.12,0.11 a 0.576,0.576 0 0 1 -0.086,0.237 h -1.94 c 0,0 -0.01,-0.05 -0.01,-0.076 0,-0.152 0.104,-0.22 0.266,-0.28 l 0.3,-0.1 v -3.13 l -0.608,-0.093 c 0,0 -0.008,-0.05 -0.008,-0.084 0,-0.144 0.111,-0.246 0.316,-0.263 l 1.164,-0.11 -0.051,0.592 h 0.025 c 0.231,-0.246 0.616,-0.643 1.403,-0.643 0.838,0 1.3,0.533 1.3,1.489 v 2.241 z m 4.739,-0.017 0.625,0.085 c 0,0 0.01,0.034 0.01,0.067 0,0.152 -0.112,0.253 -0.318,0.271 l -1.129,0.102 v -0.55 h -0.025 c -0.188,0.261 -0.548,0.6 -1.215,0.6 -0.837,0 -1.624,-0.533 -1.624,-2.004 0,-1.573 1.112,-2.284 2.207,-2.284 0.247,0 0.46,0.043 0.607,0.077 v -1.48 l -0.607,-0.085 c 0,0 -0.01,-0.058 -0.01,-0.092 0,-0.144 0.111,-0.246 0.317,-0.262 l 1.163,-0.11 v 5.665 z m -0.863,-2.95 c -0.128,-0.119 -0.36,-0.254 -0.719,-0.254 -0.693,0 -1.206,0.49 -1.206,1.607 0,1.09 0.48,1.53 1.052,1.53 0.496,0 0.762,-0.228 0.873,-0.355 v -2.529 z m 4.671,1.394 c 0.008,1.049 0.513,1.54 1.248,1.54 0.548,0 0.856,-0.213 1.07,-0.39 a 0.423,0.423 0 0 1 0.127,0.288 c 0,0.212 -0.564,0.693 -1.514,0.693 -1.051,0 -1.838,-0.592 -1.838,-2.064 0,-1.471 0.898,-2.224 1.873,-2.224 0.967,0 1.454,0.584 1.454,1.429 0,0.219 -0.043,0.516 -0.103,0.726 h -2.317 z m 1.496,-0.447 c 0.017,-0.077 0.042,-0.22 0.042,-0.364 0,-0.465 -0.17,-0.862 -0.666,-0.862 -0.504,0 -0.803,0.397 -0.864,1.226 z m 2.994,2.02 0.504,0.11 c 0.085,0.017 0.12,0.042 0.12,0.11 a 0.589,0.589 0 0 1 -0.085,0.237 h -1.959 c 0,0 -0.009,-0.05 -0.009,-0.076 0,-0.152 0.103,-0.22 0.266,-0.28 l 0.299,-0.1 v -3.13 l -0.608,-0.093 c 0,0 -0.008,-0.05 -0.008,-0.084 0,-0.144 0.111,-0.246 0.317,-0.263 l 1.163,-0.11 v 3.68 z m -0.437,-4.516 c -0.316,0 -0.556,-0.211 -0.556,-0.541 0,-0.32 0.24,-0.542 0.556,-0.542 0.308,0 0.565,0.22 0.565,0.542 0,0.33 -0.257,0.541 -0.565,0.541 z m 5.595,4.516 0.503,0.11 c 0.086,0.017 0.12,0.042 0.12,0.11 a 0.589,0.589 0 0 1 -0.084,0.237 h -1.943 c 0,0 -0.009,-0.05 -0.009,-0.076 0,-0.152 0.104,-0.229 0.266,-0.28 l 0.282,-0.1 v -2.14 c 0,-0.72 -0.41,-0.939 -0.83,-0.939 -0.488,0 -0.804,0.228 -0.983,0.372 v 2.706 l 0.487,0.11 c 0.086,0.017 0.12,0.042 0.12,0.11 a 0.576,0.576 0 0 1 -0.086,0.237 h -1.941 c 0,0 -0.009,-0.05 -0.009,-0.076 0,-0.152 0.103,-0.22 0.266,-0.28 l 0.299,-0.1 v -3.13 l -0.608,-0.093 c 0,0 -0.008,-0.05 -0.008,-0.084 0,-0.144 0.111,-0.246 0.317,-0.263 l 1.163,-0.11 -0.051,0.592 h 0.025 c 0.231,-0.246 0.616,-0.643 1.403,-0.643 0.838,0 1.3,0.533 1.3,1.489 v 2.241 z m 1.968,-1.573 c 0.008,1.049 0.514,1.54 1.248,1.54 0.548,0 0.856,-0.213 1.07,-0.39 a 0.423,0.423 0 0 1 0.127,0.288 c 0,0.212 -0.564,0.693 -1.513,0.693 -1.052,0 -1.84,-0.592 -1.84,-2.064 0,-1.471 0.9,-2.224 1.874,-2.224 0.967,0 1.454,0.584 1.454,1.429 0,0.219 -0.043,0.516 -0.103,0.726 h -2.317 z m 1.497,-0.447 c 0.017,-0.077 0.043,-0.22 0.043,-0.364 0,-0.465 -0.172,-0.862 -0.667,-0.862 -0.504,0 -0.804,0.397 -0.865,1.226 z m 3.601,-1.083 a 1.029,1.029 0 0 0 -0.565,-0.17 c -0.282,0 -0.572,0.119 -0.572,0.475 0,0.372 0.401,0.59 0.812,0.828 0.513,0.304 1.06,0.634 1.06,1.31 0,0.694 -0.581,1.218 -1.521,1.218 -0.48,0 -0.907,-0.143 -1.086,-0.253 a 4.006,4.006 0 0 1 -0.06,-0.651 c 0,-0.339 0.093,-0.474 0.35,-0.474 0.044,0 0.112,0.009 0.112,0.009 l 0.18,0.72 c 0.085,0.058 0.333,0.168 0.582,0.168 0.419,0 0.684,-0.16 0.684,-0.516 0,-0.363 -0.41,-0.566 -0.796,-0.803 -0.522,-0.33 -1.043,-0.66 -1.043,-1.387 0,-0.66 0.581,-1.1 1.403,-1.1 0.496,0 0.847,0.17 1,0.314 0.018,0.117 0.035,0.295 0.035,0.464 0,0.296 -0.06,0.49 -0.367,0.49 -0.043,0 -0.103,-0.008 -0.103,-0.008 z m 6.338,0.541 v 0.017 c 0.83,0.136 1.377,0.6 1.377,1.37 0,0.948 -0.787,1.632 -2.326,1.632 h -2.173 c 0,0 -0.009,-0.05 -0.009,-0.093 0,-0.135 0.069,-0.253 0.291,-0.304 l 0.36,-0.084 v -4.888 l -0.523,-0.118 c -0.085,-0.017 -0.12,-0.043 -0.12,-0.093 0,-0.076 0.06,-0.178 0.095,-0.253 h 2.01 c 1.522,0 2.25,0.532 2.25,1.47 0,0.803 -0.495,1.183 -1.232,1.344 z m -1.094,-2.3 h -0.462 v 2.131 h 0.454 c 0.975,0 1.386,-0.473 1.386,-1.074 0,-0.694 -0.437,-1.057 -1.378,-1.057 z m 0.103,2.621 h -0.565 v 2.182 h 0.514 c 1,0 1.445,-0.465 1.445,-1.124 0,-0.627 -0.471,-1.058 -1.394,-1.058 z m 4.054,0.668 c 0.009,1.049 0.514,1.54 1.249,1.54 0.547,0 0.855,-0.213 1.069,-0.39 a 0.423,0.423 0 0 1 0.128,0.288 c 0,0.212 -0.564,0.693 -1.514,0.693 -1.052,0 -1.839,-0.592 -1.839,-2.064 0,-1.471 0.899,-2.224 1.873,-2.224 0.967,0 1.454,0.584 1.454,1.429 0,0.219 -0.043,0.516 -0.102,0.726 h -2.318 z m 1.497,-0.447 c 0.017,-0.077 0.043,-0.22 0.043,-0.364 0,-0.465 -0.171,-0.862 -0.667,-0.862 -0.504,0 -0.804,0.397 -0.864,1.226 z m 3.602,-1.083 a 1.03,1.03 0 0 0 -0.564,-0.17 c -0.283,0 -0.573,0.119 -0.573,0.475 0,0.372 0.401,0.59 0.812,0.828 0.513,0.304 1.06,0.634 1.06,1.31 0,0.694 -0.58,1.218 -1.521,1.218 -0.48,0 -0.907,-0.143 -1.087,-0.253 a 4.196,4.196 0 0 1 -0.06,-0.651 c 0,-0.339 0.095,-0.474 0.352,-0.474 0.043,0 0.111,0.009 0.111,0.009 l 0.18,0.72 c 0.085,0.058 0.334,0.168 0.581,0.168 0.42,0 0.685,-0.16 0.685,-0.516 0,-0.363 -0.41,-0.566 -0.795,-0.803 -0.523,-0.33 -1.044,-0.66 -1.044,-1.387 0,-0.66 0.582,-1.1 1.403,-1.1 0.496,0 0.846,0.17 1.001,0.314 0.017,0.117 0.034,0.295 0.034,0.464 0,0.296 -0.06,0.49 -0.367,0.49 a 0.86,0.86 0 0 1 -0.103,-0.008 z m 3.387,-0.12 c -0.573,0 -1.069,0.407 -1.069,1.515 0,1.065 0.42,1.683 1.224,1.683 0.53,0 0.837,-0.27 0.974,-0.406 a 0.492,0.492 0 0 1 0.137,0.287 c 0,0.212 -0.47,0.702 -1.41,0.702 -1.112,0 -1.831,-0.693 -1.831,-2.09 0,-1.428 0.967,-2.198 2.121,-2.198 0.941,0 1.18,0.457 1.18,0.702 0,0.229 -0.11,0.44 -0.436,0.508 -0.128,-0.296 -0.325,-0.702 -0.89,-0.702 z m 3.175,0.102 h 0.017 a 1.672,1.672 0 0 1 1.317,-0.609 c 0.856,0 1.342,0.499 1.342,1.489 v 2.241 l 0.496,0.11 c 0.086,0.017 0.12,0.042 0.12,0.11 a 0.589,0.589 0 0 1 -0.086,0.237 h -1.941 c 0,0 -0.009,-0.05 -0.009,-0.076 0,-0.152 0.103,-0.229 0.265,-0.28 l 0.283,-0.1 v -2.14 c 0,-0.72 -0.393,-0.939 -0.83,-0.939 -0.53,0 -0.813,0.228 -0.975,0.388 v 2.69 l 0.479,0.11 c 0.085,0.017 0.119,0.042 0.119,0.11 a 0.48,0.48 0 0 1 -0.085,0.237 h -1.942 c 0,0 -0.008,-0.05 -0.008,-0.076 0,-0.152 0.102,-0.229 0.265,-0.28 l 0.299,-0.1 v -5.134 l -0.607,-0.085 c 0,0 -0.01,-0.058 -0.01,-0.092 0,-0.144 0.112,-0.246 0.318,-0.262 l 1.171,-0.11 v 2.561 z m 5.029,3.121 0.495,0.11 c 0.086,0.017 0.12,0.042 0.12,0.11 a 0.48,0.48 0 0 1 -0.085,0.237 h -1.95 c 0,0 -0.01,-0.05 -0.01,-0.076 0,-0.152 0.104,-0.229 0.266,-0.28 l 0.299,-0.1 v -5.134 l -0.607,-0.085 c 0,0 -0.01,-0.058 -0.01,-0.092 0,-0.144 0.112,-0.246 0.318,-0.262 l 1.163,-0.11 v 5.682 z m 4.97,-0.017 0.624,0.085 c 0,0 0.009,0.034 0.009,0.067 0,0.152 -0.112,0.253 -0.317,0.271 l -1.13,0.102 v -0.559 h -0.017 a 1.53,1.53 0 0 1 -1.266,0.61 c -0.915,0 -1.342,-0.533 -1.342,-1.53 v -2.158 l -0.607,-0.092 c 0,0 -0.01,-0.05 -0.01,-0.084 0,-0.144 0.112,-0.246 0.318,-0.263 l 1.163,-0.11 v 2.665 c 0,0.77 0.41,0.947 0.787,0.947 0.436,0 0.727,-0.186 0.924,-0.406 v -2.656 l -0.608,-0.093 c 0,0 -0.008,-0.05 -0.008,-0.083 0,-0.145 0.112,-0.246 0.317,-0.263 l 1.163,-0.11 z m 3.079,-3.086 a 1.03,1.03 0 0 0 -0.564,-0.17 c -0.283,0 -0.573,0.119 -0.573,0.475 0,0.372 0.402,0.59 0.812,0.828 0.513,0.304 1.06,0.634 1.06,1.31 0,0.694 -0.58,1.218 -1.52,1.218 -0.48,0 -0.908,-0.143 -1.088,-0.253 a 4.196,4.196 0 0 1 -0.06,-0.651 c 0,-0.339 0.095,-0.474 0.352,-0.474 0.043,0 0.112,0.009 0.112,0.009 l 0.18,0.72 c 0.084,0.058 0.333,0.168 0.58,0.168 0.42,0 0.685,-0.16 0.685,-0.516 0,-0.363 -0.41,-0.566 -0.795,-0.803 -0.523,-0.33 -1.044,-0.66 -1.044,-1.387 0,-0.66 0.582,-1.1 1.403,-1.1 0.496,0 0.846,0.17 1.001,0.314 0.017,0.117 0.034,0.295 0.034,0.464 0,0.296 -0.059,0.49 -0.367,0.49 -0.043,0 -0.103,-0.008 -0.103,-0.008 z m 3.371,0 a 1.03,1.03 0 0 0 -0.565,-0.17 c -0.283,0 -0.573,0.119 -0.573,0.475 0,0.372 0.402,0.59 0.813,0.828 0.513,0.304 1.06,0.634 1.06,1.31 0,0.694 -0.581,1.218 -1.522,1.218 -0.479,0 -0.906,-0.143 -1.086,-0.253 a 4.196,4.196 0 0 1 -0.06,-0.651 c 0,-0.339 0.095,-0.474 0.351,-0.474 0.044,0 0.112,0.009 0.112,0.009 l 0.18,0.72 c 0.085,0.058 0.333,0.168 0.58,0.168 0.42,0 0.685,-0.16 0.685,-0.516 0,-0.363 -0.41,-0.566 -0.795,-0.803 -0.522,-0.33 -1.044,-0.66 -1.044,-1.387 0,-0.66 0.582,-1.1 1.403,-1.1 0.497,0 0.847,0.17 1.002,0.314 0.017,0.117 0.034,0.295 0.034,0.464 0,0.296 -0.06,0.49 -0.368,0.49 -0.043,0 -0.102,-0.008 -0.102,-0.008 z m 2.318,1.53 c 0.008,1.049 0.514,1.54 1.248,1.54 0.548,0 0.856,-0.213 1.07,-0.39 a 0.423,0.423 0 0 1 0.127,0.288 c 0,0.212 -0.564,0.693 -1.513,0.693 -1.052,0 -1.84,-0.592 -1.84,-2.064 0,-1.471 0.9,-2.224 1.874,-2.224 0.967,0 1.454,0.584 1.454,1.429 0,0.219 -0.043,0.516 -0.103,0.726 h -2.317 z m 1.497,-0.447 c 0.017,-0.077 0.043,-0.22 0.043,-0.364 0,-0.465 -0.172,-0.862 -0.667,-0.862 -0.504,0 -0.804,0.397 -0.865,1.226 z m 3.602,-1.083 a 1.03,1.03 0 0 0 -0.565,-0.17 c -0.283,0 -0.573,0.119 -0.573,0.475 0,0.372 0.402,0.59 0.813,0.828 0.513,0.304 1.06,0.634 1.06,1.31 0,0.694 -0.581,1.218 -1.521,1.218 -0.48,0 -0.907,-0.143 -1.087,-0.253 a 4.196,4.196 0 0 1 -0.06,-0.651 c 0,-0.339 0.095,-0.474 0.351,-0.474 0.044,0 0.112,0.009 0.112,0.009 l 0.18,0.72 c 0.085,0.058 0.333,0.168 0.581,0.168 0.42,0 0.684,-0.16 0.684,-0.516 0,-0.363 -0.41,-0.566 -0.795,-0.803 -0.522,-0.33 -1.043,-0.66 -1.043,-1.387 0,-0.66 0.581,-1.1 1.402,-1.1 0.497,0 0.847,0.17 1.002,0.314 0.017,0.117 0.034,0.295 0.034,0.464 0,0.296 -0.06,0.49 -0.367,0.49 -0.044,0 -0.103,-0.008 -0.103,-0.008 z m -95.064,12.754 0.624,0.085 c 0,0 0.009,0.033 0.009,0.067 0,0.152 -0.112,0.253 -0.317,0.27 l -1.13,0.102 v -0.55 h -0.025 c -0.187,0.262 -0.547,0.6 -1.214,0.6 -0.838,0 -1.625,-0.532 -1.625,-2.004 0,-1.572 1.111,-2.283 2.206,-2.283 0.249,0 0.462,0.042 0.608,0.077 v -1.481 l -0.608,-0.084 c 0,0 -0.008,-0.059 -0.008,-0.093 0,-0.144 0.112,-0.245 0.317,-0.262 l 1.164,-0.11 v 5.666 z m -0.864,-2.952 c -0.129,-0.117 -0.36,-0.253 -0.718,-0.253 -0.694,0 -1.206,0.49 -1.206,1.607 0,1.09 0.479,1.53 1.052,1.53 0.496,0 0.761,-0.228 0.872,-0.355 z m 2.891,1.396 c 0.009,1.048 0.514,1.538 1.249,1.538 0.547,0 0.855,-0.21 1.069,-0.388 a 0.423,0.423 0 0 1 0.127,0.288 c 0,0.21 -0.563,0.692 -1.513,0.692 -1.052,0 -1.84,-0.592 -1.84,-2.064 0,-1.471 0.9,-2.224 1.874,-2.224 0.967,0 1.454,0.583 1.454,1.43 0,0.218 -0.043,0.515 -0.102,0.726 h -2.318 z m 1.497,-0.448 c 0.017,-0.076 0.043,-0.22 0.043,-0.364 0,-0.464 -0.172,-0.862 -0.667,-0.862 -0.504,0 -0.804,0.398 -0.864,1.226 z m 3.601,-1.083 a 1.029,1.029 0 0 0 -0.564,-0.17 c -0.282,0 -0.573,0.12 -0.573,0.474 0,0.373 0.401,0.593 0.812,0.83 0.513,0.304 1.06,0.633 1.06,1.31 0,0.693 -0.58,1.218 -1.521,1.218 -0.48,0 -0.907,-0.144 -1.086,-0.254 a 3.996,3.996 0 0 1 -0.06,-0.65 c 0,-0.339 0.093,-0.474 0.35,-0.474 0.044,0 0.112,0.009 0.112,0.009 l 0.18,0.718 c 0.085,0.059 0.334,0.17 0.582,0.17 0.419,0 0.685,-0.16 0.685,-0.517 0,-0.363 -0.411,-0.566 -0.796,-0.803 -0.523,-0.33 -1.044,-0.66 -1.044,-1.387 0,-0.66 0.582,-1.1 1.403,-1.1 0.496,0 0.847,0.17 1.001,0.313 0.017,0.119 0.034,0.297 0.034,0.466 0,0.296 -0.06,0.49 -0.367,0.49 -0.043,0 -0.103,-0.009 -0.103,-0.009 z m 5.15,3.561 h -1.933 c 0,0 -0.01,-0.05 -0.01,-0.093 0,-0.135 0.07,-0.254 0.292,-0.305 l 0.359,-0.084 v -4.888 l -0.522,-0.118 c -0.086,-0.017 -0.12,-0.042 -0.12,-0.093 0,-0.076 0.06,-0.178 0.094,-0.253 h 1.84 c 2.155,0 3.445,0.795 3.445,2.834 0.002,2.052 -1.281,3 -3.445,3 z m -0.026,-5.32 h -0.342 v 4.803 h 0.342 c 1.582,0 2.49,-0.82 2.49,-2.46 0,-1.581 -0.916,-2.343 -2.49,-2.343 z m 5.141,3.29 c 0.01,1.048 0.515,1.538 1.25,1.538 0.547,0 0.855,-0.21 1.068,-0.388 a 0.423,0.423 0 0 1 0.128,0.288 c 0,0.21 -0.564,0.692 -1.514,0.692 -1.051,0 -1.838,-0.592 -1.838,-2.064 0,-1.471 0.898,-2.224 1.873,-2.224 0.967,0 1.454,0.583 1.454,1.43 0,0.218 -0.043,0.515 -0.103,0.726 H 40.12 Z m 1.498,-0.448 c 0.017,-0.076 0.043,-0.22 0.043,-0.364 0,-0.464 -0.172,-0.862 -0.667,-0.862 -0.504,0 -0.804,0.398 -0.865,1.226 z m 5.458,2.004 0.624,0.085 c 0,0 0.009,0.033 0.009,0.067 0,0.152 -0.112,0.253 -0.317,0.27 l -1.13,0.102 V 122.7 h -0.017 a 1.53,1.53 0 0 1 -1.266,0.61 c -0.915,0 -1.342,-0.533 -1.342,-1.531 v -2.157 l -0.607,-0.093 c 0,0 -0.01,-0.05 -0.01,-0.084 0,-0.144 0.112,-0.246 0.318,-0.262 l 1.163,-0.11 v 2.664 c 0,0.77 0.41,0.948 0.787,0.948 0.436,0 0.727,-0.186 0.924,-0.406 v -2.656 l -0.608,-0.093 c 0,0 -0.008,-0.05 -0.008,-0.084 0,-0.144 0.112,-0.246 0.317,-0.262 l 1.163,-0.11 z m 3.567,-3.146 h -1.171 v 2.47 c 0,0.38 0.119,0.693 0.547,0.693 0.333,0 0.607,-0.144 0.676,-0.203 a 0.613,0.613 0 0 1 0.077,0.279 c 0,0.084 -0.3,0.482 -1.078,0.482 -0.778,0 -1.086,-0.449 -1.086,-1.099 v -2.622 h -0.641 c 0,0 -0.01,-0.05 -0.01,-0.076 0,-0.16 0.104,-0.253 0.266,-0.287 l 0.42,-0.102 0.196,-1.142 h 0.633 v 1.142 h 1.266 z m 2.507,0.059 a 1.029,1.029 0 0 0 -0.565,-0.17 c -0.282,0 -0.573,0.12 -0.573,0.474 0,0.373 0.402,0.593 0.812,0.83 0.513,0.304 1.06,0.633 1.06,1.31 0,0.693 -0.58,1.218 -1.52,1.218 -0.48,0 -0.908,-0.144 -1.087,-0.254 a 3.996,3.996 0 0 1 -0.06,-0.65 c 0,-0.339 0.093,-0.474 0.35,-0.474 0.044,0 0.113,0.009 0.113,0.009 l 0.179,0.718 c 0.085,0.059 0.334,0.17 0.582,0.17 0.419,0 0.685,-0.16 0.685,-0.517 0,-0.363 -0.411,-0.566 -0.796,-0.803 -0.523,-0.33 -1.044,-0.66 -1.044,-1.387 0,-0.66 0.582,-1.1 1.403,-1.1 0.496,0 0.847,0.17 1.001,0.313 0.017,0.119 0.034,0.297 0.034,0.466 0,0.296 -0.059,0.49 -0.367,0.49 a 0.86,0.86 0 0 1 -0.103,-0.009 l -0.105,-0.634 z m 3.386,-0.118 c -0.573,0 -1.069,0.406 -1.069,1.513 0,1.065 0.419,1.683 1.223,1.683 0.53,0 0.837,-0.27 0.974,-0.406 a 0.496,0.496 0 0 1 0.137,0.288 c 0,0.212 -0.47,0.701 -1.41,0.701 -1.112,0 -1.83,-0.692 -1.83,-2.089 0,-1.429 0.966,-2.198 2.12,-2.198 0.941,0 1.181,0.456 1.181,0.702 0,0.228 -0.111,0.44 -0.436,0.507 -0.128,-0.295 -0.325,-0.701 -0.89,-0.701 z m 3.174,0.101 h 0.017 a 1.672,1.672 0 0 1 1.318,-0.609 c 0.855,0 1.341,0.499 1.341,1.489 v 2.24 l 0.497,0.11 c 0.085,0.017 0.118,0.043 0.118,0.11 a 0.594,0.594 0 0 1 -0.084,0.238 h -1.942 c 0,0 -0.009,-0.05 -0.009,-0.077 0,-0.151 0.103,-0.228 0.265,-0.28 l 0.283,-0.1 v -2.14 c 0,-0.72 -0.393,-0.94 -0.83,-0.94 -0.53,0 -0.813,0.23 -0.975,0.39 v 2.69 l 0.48,0.11 c 0.084,0.016 0.118,0.042 0.118,0.11 0,0.084 -0.06,0.212 -0.084,0.237 H 58.28 c 0,0 -0.008,-0.05 -0.008,-0.077 0,-0.151 0.103,-0.228 0.265,-0.28 l 0.299,-0.1 v -5.134 l -0.607,-0.084 c 0,0 -0.009,-0.059 -0.009,-0.093 0,-0.144 0.112,-0.245 0.317,-0.262 l 1.171,-0.11 v 2.562 z m 4.637,1.548 c 0.008,1.048 0.512,1.538 1.248,1.538 0.547,0 0.855,-0.21 1.069,-0.388 a 0.423,0.423 0 0 1 0.128,0.288 c 0,0.21 -0.565,0.692 -1.514,0.692 -1.052,0 -1.839,-0.592 -1.839,-2.064 0,-1.471 0.899,-2.224 1.873,-2.224 0.967,0 1.454,0.583 1.454,1.43 0,0.218 -0.043,0.515 -0.102,0.726 h -2.317 z m 1.496,-0.448 c 0.017,-0.076 0.043,-0.22 0.043,-0.364 0,-0.464 -0.17,-0.862 -0.667,-0.862 -0.504,0 -0.803,0.398 -0.864,1.226 z m 5.671,2.02 0.505,0.11 c 0.085,0.017 0.12,0.043 0.12,0.11 a 0.58,0.58 0 0 1 -0.086,0.238 H 70.11 c 0,0 -0.008,-0.05 -0.008,-0.077 0,-0.151 0.102,-0.228 0.265,-0.28 l 0.283,-0.1 v -2.14 c 0,-0.72 -0.41,-0.94 -0.83,-0.94 -0.488,0 -0.805,0.23 -0.985,0.374 v 2.706 l 0.488,0.11 c 0.086,0.016 0.12,0.042 0.12,0.11 a 0.58,0.58 0 0 1 -0.085,0.237 h -1.942 c 0,0 -0.009,-0.05 -0.009,-0.077 0,-0.151 0.103,-0.219 0.265,-0.28 l 0.3,-0.1 v -3.13 l -0.607,-0.092 c 0,0 -0.01,-0.051 -0.01,-0.085 0,-0.143 0.112,-0.246 0.317,-0.262 l 1.163,-0.11 -0.05,0.592 h 0.025 c 0.23,-0.246 0.616,-0.643 1.403,-0.643 0.838,0 1.3,0.533 1.3,1.489 v 2.24 z m 5.988,-2.562 v 0.017 c 0.83,0.136 1.377,0.6 1.377,1.37 0,0.947 -0.787,1.632 -2.326,1.632 h -2.172 c 0,0 -0.01,-0.05 -0.01,-0.093 0,-0.135 0.069,-0.254 0.291,-0.304 l 0.36,-0.085 v -4.887 l -0.523,-0.119 c -0.085,-0.017 -0.12,-0.042 -0.12,-0.092 0,-0.077 0.06,-0.178 0.095,-0.254 h 2.01 c 1.522,0 2.25,0.533 2.25,1.472 0,0.802 -0.496,1.182 -1.232,1.343 z m -1.095,-2.3 h -0.461 v 2.131 h 0.453 c 0.976,0 1.386,-0.474 1.386,-1.074 0,-0.694 -0.437,-1.057 -1.378,-1.057 z m 0.103,2.622 h -0.564 v 2.181 h 0.514 c 1,0 1.444,-0.465 1.444,-1.124 0,-0.626 -0.47,-1.057 -1.394,-1.057 z m 6.963,2.224 0.625,0.085 c 0,0 0.01,0.033 0.01,0.067 0,0.152 -0.112,0.253 -0.318,0.27 l -1.129,0.102 V 122.7 h -0.017 a 1.53,1.53 0 0 1 -1.266,0.61 c -0.916,0 -1.343,-0.533 -1.343,-1.531 v -2.157 l -0.607,-0.093 c 0,0 -0.009,-0.05 -0.009,-0.084 0,-0.144 0.112,-0.246 0.317,-0.262 l 1.164,-0.11 v 2.664 c 0,0.77 0.41,0.948 0.787,0.948 0.436,0 0.727,-0.186 0.924,-0.406 v -2.656 l -0.607,-0.093 c 0,0 -0.01,-0.05 -0.01,-0.084 0,-0.144 0.112,-0.246 0.317,-0.262 l 1.163,-0.11 v 3.66 z m 5.149,0.016 0.505,0.11 c 0.085,0.017 0.12,0.043 0.12,0.11 a 0.594,0.594 0 0 1 -0.085,0.238 h -1.943 c 0,0 -0.008,-0.05 -0.008,-0.077 0,-0.151 0.103,-0.228 0.265,-0.28 l 0.282,-0.1 v -2.14 c 0,-0.72 -0.41,-0.94 -0.83,-0.94 -0.487,0 -0.804,0.23 -0.983,0.374 v 2.706 l 0.487,0.11 c 0.086,0.016 0.12,0.042 0.12,0.11 a 0.58,0.58 0 0 1 -0.085,0.237 h -1.942 c 0,0 -0.009,-0.05 -0.009,-0.077 0,-0.151 0.103,-0.219 0.266,-0.28 l 0.299,-0.1 v -3.13 l -0.608,-0.092 c 0,0 -0.008,-0.051 -0.008,-0.085 0,-0.143 0.112,-0.246 0.317,-0.262 l 1.163,-0.11 -0.051,0.592 h 0.025 c 0.232,-0.246 0.616,-0.643 1.403,-0.643 0.838,0 1.3,0.533 1.3,1.489 z m 4.74,-0.016 0.624,0.085 c 0,0 0.01,0.033 0.01,0.067 0,0.152 -0.112,0.253 -0.318,0.27 l -1.129,0.102 v -0.55 h -0.025 c -0.187,0.262 -0.547,0.6 -1.214,0.6 -0.838,0 -1.625,-0.532 -1.625,-2.004 0,-1.572 1.111,-2.283 2.206,-2.283 0.248,0 0.462,0.042 0.608,0.077 v -1.481 l -0.608,-0.084 c 0,0 -0.008,-0.059 -0.008,-0.093 0,-0.144 0.111,-0.245 0.317,-0.262 l 1.163,-0.11 v 5.666 z m -0.863,-2.952 c -0.129,-0.117 -0.36,-0.253 -0.719,-0.253 -0.693,0 -1.206,0.49 -1.206,1.607 0,1.09 0.48,1.53 1.052,1.53 0.496,0 0.762,-0.228 0.873,-0.355 z m 2.891,1.396 c 0.008,1.048 0.513,1.538 1.248,1.538 0.548,0 0.856,-0.21 1.07,-0.388 a 0.423,0.423 0 0 1 0.127,0.288 c 0,0.21 -0.565,0.692 -1.514,0.692 -1.051,0 -1.838,-0.592 -1.838,-2.064 0,-1.471 0.898,-2.224 1.873,-2.224 0.967,0 1.454,0.583 1.454,1.43 0,0.218 -0.043,0.515 -0.103,0.726 H 95.39 Z m 1.497,-0.448 c 0.017,-0.076 0.042,-0.22 0.042,-0.364 0,-0.464 -0.17,-0.862 -0.666,-0.862 -0.505,0 -0.804,0.398 -0.865,1.226 z m 3.601,-1.083 a 1.029,1.029 0 0 0 -0.565,-0.17 c -0.282,0 -0.573,0.12 -0.573,0.474 0,0.373 0.402,0.593 0.813,0.83 0.513,0.304 1.06,0.633 1.06,1.31 0,0.693 -0.581,1.218 -1.521,1.218 -0.48,0 -0.907,-0.144 -1.086,-0.254 a 3.996,3.996 0 0 1 -0.06,-0.65 c 0,-0.339 0.093,-0.474 0.35,-0.474 0.044,0 0.112,0.009 0.112,0.009 l 0.18,0.718 c 0.085,0.059 0.333,0.17 0.582,0.17 0.419,0 0.684,-0.16 0.684,-0.517 0,-0.363 -0.41,-0.566 -0.796,-0.803 -0.522,-0.33 -1.043,-0.66 -1.043,-1.387 0,-0.66 0.581,-1.1 1.402,-1.1 0.497,0 0.848,0.17 1.002,0.313 0.017,0.119 0.034,0.297 0.034,0.466 0,0.296 -0.06,0.49 -0.367,0.49 -0.044,0 -0.103,-0.009 -0.103,-0.009 z m 3.857,-0.059 h -1.17 v 2.47 c 0,0.38 0.119,0.693 0.547,0.693 0.333,0 0.607,-0.144 0.676,-0.203 a 0.613,0.613 0 0 1 0.077,0.279 c 0,0.084 -0.299,0.482 -1.078,0.482 -0.778,0 -1.086,-0.449 -1.086,-1.099 v -2.622 h -0.641 c 0,0 -0.009,-0.05 -0.009,-0.076 0,-0.16 0.103,-0.253 0.265,-0.287 l 0.42,-0.102 0.196,-1.142 h 0.633 v 1.142 h 1.266 z m 3.542,2.715 c 0,0.338 0.128,0.44 0.274,0.44 0.196,0 0.299,-0.102 0.324,-0.144 a 0.548,0.548 0 0 1 0.103,0.253 c 0,0.11 -0.222,0.44 -0.778,0.44 -0.394,0 -0.642,-0.17 -0.719,-0.592 h -0.017 c -0.094,0.16 -0.41,0.61 -1.12,0.61 -0.65,0 -1.112,-0.44 -1.112,-1.109 0,-0.905 1,-1.243 1.958,-1.243 h 0.223 v -0.38 c 0,-0.77 -0.206,-1.074 -0.736,-1.074 -0.196,0 -0.368,0.058 -0.436,0.083 -0.077,0.16 -0.146,0.457 -0.188,0.745 0,0 -0.128,0.009 -0.197,0.009 -0.29,0 -0.453,-0.136 -0.453,-0.398 0,-0.524 0.701,-0.922 1.497,-0.922 0.94,0 1.377,0.508 1.377,1.462 z m -1.06,-0.922 c -0.693,0.033 -1.087,0.28 -1.087,0.726 0,0.355 0.205,0.592 0.557,0.592 0.35,0 0.616,-0.228 0.727,-0.363 v -0.964 l -0.198,0.009 z m 5.919,-1.777 h -0.693 c 0.162,0.212 0.265,0.466 0.265,0.77 0,0.896 -0.753,1.404 -1.685,1.404 a 2.04,2.04 0 0 1 -0.401,-0.042 c -0.12,0.067 -0.24,0.185 -0.24,0.38 0,0.203 0.137,0.296 0.427,0.296 h 0.992 c 0.787,0 1.232,0.355 1.232,0.964 0,0.846 -0.837,1.624 -2.283,1.624 -1.052,0 -1.565,-0.363 -1.565,-0.981 0,-0.591 0.47,-0.871 0.778,-0.964 v -0.017 a 0.639,0.639 0 0 1 -0.352,-0.592 c 0,-0.49 0.454,-0.719 0.616,-0.804 v -0.017 c -0.479,-0.211 -0.787,-0.642 -0.787,-1.251 0,-0.889 0.753,-1.354 1.626,-1.354 0.23,0 0.453,0.034 0.666,0.102 h 1.498 z m -2.463,3.57 c -0.119,0 -0.222,-0.01 -0.316,-0.017 a 0.694,0.694 0 0 0 -0.368,0.625 c 0,0.44 0.273,0.72 0.898,0.72 0.83,0 1.343,-0.382 1.343,-0.83 0,-0.347 -0.197,-0.498 -0.633,-0.498 z m -0.376,-2.79 c 0,0.667 0.342,0.929 0.77,0.929 0.46,0 0.795,-0.262 0.795,-0.93 0,-0.6 -0.334,-0.905 -0.778,-0.905 -0.445,0 -0.787,0.254 -0.787,0.905 z m 4.26,0.794 c 0.009,1.048 0.514,1.538 1.249,1.538 0.547,0 0.855,-0.21 1.069,-0.388 a 0.423,0.423 0 0 1 0.127,0.288 c 0,0.21 -0.563,0.692 -1.513,0.692 -1.052,0 -1.84,-0.592 -1.84,-2.064 0,-1.471 0.9,-2.224 1.874,-2.224 0.967,0 1.454,0.583 1.454,1.43 0,0.218 -0.043,0.515 -0.102,0.726 h -2.318 z m 1.496,-0.448 c 0.017,-0.076 0.043,-0.22 0.043,-0.364 0,-0.464 -0.171,-0.862 -0.667,-0.862 -0.504,0 -0.804,0.398 -0.864,1.226 z m 3.601,-1.083 a 1.029,1.029 0 0 0 -0.564,-0.17 c -0.282,0 -0.573,0.12 -0.573,0.474 0,0.373 0.402,0.593 0.812,0.83 0.514,0.304 1.061,0.633 1.061,1.31 0,0.693 -0.582,1.218 -1.522,1.218 -0.479,0 -0.907,-0.144 -1.086,-0.254 a 3.996,3.996 0 0 1 -0.06,-0.65 c 0,-0.339 0.094,-0.474 0.351,-0.474 0.043,0 0.112,0.009 0.112,0.009 l 0.179,0.718 c 0.085,0.059 0.334,0.17 0.582,0.17 0.42,0 0.685,-0.16 0.685,-0.517 0,-0.363 -0.41,-0.566 -0.796,-0.803 -0.523,-0.33 -1.044,-0.66 -1.044,-1.387 0,-0.66 0.582,-1.1 1.403,-1.1 0.496,0 0.847,0.17 1.001,0.313 0.017,0.119 0.035,0.297 0.035,0.466 0,0.296 -0.06,0.49 -0.368,0.49 -0.043,0 -0.103,-0.009 -0.103,-0.009 z"
           id="path22" />
      </g>
    </g>
    <path
       d="m 33.662,47.389 c 0.839,1.301 1.497,1.28 2.489,1.28 -0.821,-0.618 -1.364,-1.407 -1.623,-1.81 l -1.533,-2.406 a 3.55,3.55 0 0 0 -1.129,-1.954 c 0.197,-0.073 0.361,-0.15 0.46,-0.223 -1,0 -1.993,-0.499 -2.539,-0.499 -0.35,0 -0.577,0.206 -0.577,0.478 0.023,0.303 0.34,0.61 0.928,0.61 0.134,0 0.303,-0.016 0.49,-0.047 0.318,0.435 0.575,0.828 0.575,1.389 0,1.053 -1.284,1.873 -2.58,1.873 -0.073,0 -0.143,-0.002 -0.217,-0.008 -0.118,-0.26 -0.508,-0.7 -0.508,-1.197 0,-0.837 0.557,-1.52 0.557,-2.35 0,-0.515 -0.256,-0.833 -0.355,-0.966 0.159,-0.144 0.333,-0.323 0.374,-0.444 -0.093,0.039 -0.202,0.044 -0.363,0.044 -0.621,0 -1.127,-0.159 -1.622,-0.159 -0.281,0 -0.357,0.085 -0.357,0.166 0,0.03 0.005,0.06 0.013,0.075 a 1.698,1.698 0 0 0 -0.322,-0.088 2.546,2.546 0 0 0 -0.47,-0.041 c -0.6,0 -0.813,0.247 -0.813,0.458 0,0.18 0.144,0.506 0.307,0.754 0.234,-0.115 0.515,-0.194 0.644,-0.194 0.318,0 0.601,0.298 0.751,0.65 -0.214,0.025 -0.255,0.035 -0.472,0.035 -0.584,0 -0.981,-0.205 -1.063,-0.205 -0.009,0 -0.024,0.004 -0.024,0.017 0,0.08 0.166,0.293 0.493,0.41 0.43,0.154 1.075,0.219 1.182,0.235 0,0.019 -0.109,0.218 -0.231,0.257 a 0.143,0.143 0 0 1 -0.076,0.003 c -0.45,-0.087 -0.575,-0.124 -1.145,-0.337 -0.017,-0.006 -0.028,0.004 -0.028,0.023 0,0.22 0.584,0.709 1.107,0.895 -0.437,0.547 -0.982,1.106 -1.24,1.96 a 2.783,2.783 0 0 1 -0.216,0.007 c -1.297,0 -2.581,-0.82 -2.581,-1.873 0,-0.562 0.256,-0.954 0.575,-1.389 0.187,0.03 0.357,0.048 0.49,0.048 0.588,0 0.907,-0.309 0.93,-0.611 0,-0.272 -0.226,-0.478 -0.579,-0.478 -0.546,0 -1.537,0.499 -2.539,0.499 0.1,0.073 0.263,0.15 0.46,0.223 a 3.548,3.548 0 0 0 -1.128,1.954 l -1.534,2.405 c -0.258,0.404 -0.802,1.193 -1.623,1.81 0.992,0 1.65,0.022 2.49,-1.279 l 0.785,-1.233 c 0.058,0.16 0.13,0.316 0.214,0.469 l -1.564,2.452 c -0.26,0.407 -0.8,1.19 -1.623,1.81 0.992,0 1.65,0.023 2.49,-1.278 l 1.345,-2.112 c 0.101,0.105 0.207,0.208 0.319,0.306 l -1.9,2.98 c -0.26,0.408 -0.796,1.189 -1.622,1.81 0.992,0 1.65,0.023 2.49,-1.279 l 1.85,-2.906 c 0.123,0.076 0.248,0.15 0.376,0.218 l -2.26,3.545 c -0.26,0.408 -0.797,1.187 -1.622,1.809 0.992,0 1.65,0.022 2.49,-1.278 l 2.326,-3.652 c 0.138,0.051 0.277,0.101 0.42,0.146 l -2.63,4.126 c -0.256,0.402 -0.806,1.195 -1.622,1.809 0.991,0 1.65,0.022 2.488,-1.278 l 2.803,-4.398 0.084,0.015 c 0.077,0.238 0.13,0.46 0.13,0.681 0,1.382 -0.925,2.602 -2.035,3.544 0.07,0.03 0.194,0.041 0.309,0.041 0.229,0 0.377,-0.012 0.48,-0.03 -0.257,0.574 -0.809,1.314 -1.089,1.696 a 8.264,8.264 0 0 0 -1.238,-0.114 c -0.362,0 -0.403,0.208 -0.403,0.393 0,0.322 0.154,0.58 0.333,0.721 0.067,-0.164 0.202,-0.385 0.871,-0.385 l 0.068,0.004 c -0.196,0.214 -0.809,0.699 -0.809,1.09 0,0.259 0.29,0.647 0.672,0.647 -0.023,-0.084 -0.02,-0.16 -0.02,-0.218 0,-0.318 0.286,-0.687 0.528,-0.946 -0.007,0.077 -0.003,0.069 -0.003,0.158 0,0.75 0.069,1.093 0.553,1.093 0.238,0 0.402,-0.128 0.459,-0.167 -0.315,-0.284 -0.332,-0.507 -0.332,-0.927 l 0.003,-0.363 c 0,-0.096 0,-0.223 -0.017,-0.315 0.174,-0.023 0.244,-0.023 0.378,-0.023 0,0 0.688,-0.053 0.854,0.297 0.187,-0.168 0.458,-0.405 0.458,-0.666 0,-0.173 -0.083,-0.369 -0.438,-0.369 -0.135,0 -0.557,0.082 -0.91,0.082 0.095,-0.208 0.517,-0.814 0.883,-1.254 0.055,0.17 0.142,0.355 0.334,0.506 0.026,-0.283 0.196,-1.178 0.647,-1.7 0.053,0.353 0.123,0.716 0.123,1.48 0,1.86 -0.456,3.234 -1.424,3.497 0.126,0.215 0.393,0.408 0.669,0.408 0.354,0 0.547,-0.392 0.744,-0.763 0.102,0.273 0.385,0.944 0.669,0.944 0.283,0 0.566,-0.67 0.669,-0.944 0.197,0.37 0.39,0.763 0.743,0.763 0.277,0 0.544,-0.193 0.67,-0.408 -0.969,-0.263 -1.426,-1.636 -1.426,-3.496 0,-0.765 0.071,-1.127 0.123,-1.481 0.451,0.522 0.621,1.418 0.647,1.7 0.192,-0.151 0.28,-0.335 0.335,-0.506 0.366,0.44 0.789,1.046 0.884,1.254 -0.354,0 -0.777,-0.082 -0.91,-0.082 -0.355,0 -0.438,0.196 -0.438,0.369 0,0.26 0.271,0.498 0.458,0.666 0.166,-0.351 0.855,-0.297 0.855,-0.297 0.133,0 0.203,0 0.377,0.023 a 1.905,1.905 0 0 0 -0.017,0.315 l 0.003,0.363 c 0,0.42 -0.017,0.643 -0.33,0.927 0.056,0.039 0.22,0.167 0.458,0.167 0.484,0 0.554,-0.344 0.554,-1.093 0,-0.09 0.002,-0.082 -0.003,-0.158 0.24,0.258 0.528,0.628 0.528,0.946 0,0.057 0.003,0.134 -0.02,0.218 0.382,0 0.672,-0.388 0.672,-0.647 0,-0.391 -0.613,-0.877 -0.809,-1.09 l 0.067,-0.004 c 0.67,0 0.805,0.22 0.872,0.385 a 0.926,0.926 0 0 0 0.333,-0.721 c 0,-0.185 -0.04,-0.393 -0.403,-0.393 -0.346,0 -0.875,0.05 -1.239,0.114 -0.278,-0.383 -0.83,-1.122 -1.089,-1.696 0.104,0.018 0.253,0.03 0.481,0.03 0.115,0 0.239,-0.01 0.31,-0.04 -1.111,-0.943 -2.036,-2.163 -2.036,-3.545 0,-0.221 0.053,-0.443 0.13,-0.68 0.027,-0.007 0.056,-0.011 0.085,-0.016 l 2.802,4.398 c 0.838,1.3 1.497,1.278 2.488,1.278 -0.817,-0.614 -1.365,-1.407 -1.622,-1.809 l -2.63,-4.126 c 0.143,-0.045 0.282,-0.094 0.42,-0.146 l 2.327,3.652 c 0.838,1.3 1.496,1.278 2.489,1.278 -0.826,-0.622 -1.362,-1.4 -1.623,-1.809 l -2.26,-3.545 c 0.13,-0.07 0.255,-0.143 0.376,-0.218 l 1.852,2.906 c 0.84,1.302 1.497,1.278 2.489,1.278 -0.825,-0.62 -1.361,-1.4 -1.623,-1.808 l -1.899,-2.981 c 0.112,-0.098 0.218,-0.201 0.318,-0.306 l 1.347,2.112 c 0.84,1.3 1.496,1.278 2.49,1.278 -0.826,-0.62 -1.364,-1.403 -1.624,-1.81 l -1.564,-2.452 c 0.084,-0.153 0.156,-0.31 0.214,-0.47 z m -12.55,-2.824 c 0,-0.916 0.68,-1.641 0.92,-1.845 0.057,0.014 0.114,0.028 0.171,0.039 -0.254,0.304 -0.702,0.814 -0.702,1.49 0,1.34 1.46,2.504 3.115,2.504 -0.01,0.115 -0.016,0.236 -0.016,0.36 0,0.197 0.012,0.381 0.031,0.555 -1.872,-0.01 -3.519,-1.5 -3.519,-3.103 z m 2.535,10.992 -0.01,0.031 h 0.032 c 0.526,0 0.782,-0.037 0.95,-0.06 0.09,-0.012 0.153,-0.021 0.222,-0.021 0.136,0 0.24,0.013 0.24,0.176 0,0.111 -0.132,0.285 -0.26,0.386 -0.193,-0.18 -0.461,-0.215 -0.855,-0.215 -0.184,0 -0.424,0.032 -0.554,0.05 l -0.02,0.003 -0.023,0.003 0.007,0.06 c 0.015,0.107 0.034,0.24 0.034,0.419 l -0.002,0.162 -0.002,0.202 c 0,0.437 0.062,0.686 0.218,0.875 a 0.493,0.493 0 0 1 -0.149,0.027 c -0.276,0 -0.357,-0.118 -0.357,-0.901 0,-0.157 -0.01,-0.305 -0.015,-0.403 l -0.008,-0.145 -0.035,0.026 c -0.411,0.308 -0.835,0.857 -0.86,1.269 -0.125,-0.08 -0.259,-0.254 -0.259,-0.39 0,-0.224 0.344,-0.56 0.742,-0.951 l 0.23,-0.225 0.028,-0.028 -0.075,-0.018 a 1.67,1.67 0 0 0 -0.38,-0.061 c -0.447,0 -0.726,0.083 -0.9,0.267 a 0.912,0.912 0 0 1 -0.113,-0.414 c 0,-0.078 0.015,-0.132 0.047,-0.164 0.04,-0.037 0.1,-0.037 0.154,-0.037 h 0.011 c 0.492,0 1.08,0.087 1.31,0.123 l 0.014,0.004 0.01,-0.012 c 0.039,-0.052 0.978,-1.278 1.221,-1.927 a 0.515,0.515 0 0 1 0.203,-0.036 c 0.185,0 0.236,0.122 0.29,0.31 -0.587,0.698 -0.953,1.241 -1.086,1.615 z m 5.063,-1.925 c 0.098,0 0.146,0.016 0.203,0.036 0.244,0.65 1.182,1.875 1.222,1.927 l 0.009,0.012 0.014,-0.004 a 9.33,9.33 0 0 1 1.31,-0.123 h 0.01 c 0.054,0 0.115,0 0.154,0.037 0.032,0.032 0.047,0.086 0.047,0.164 0,0.12 -0.051,0.325 -0.113,0.414 -0.173,-0.184 -0.452,-0.267 -0.9,-0.267 -0.135,0 -0.294,0.04 -0.38,0.06 l -0.035,0.009 -0.04,0.01 0.258,0.254 c 0.399,0.39 0.743,0.726 0.743,0.951 0,0.135 -0.134,0.311 -0.258,0.39 -0.026,-0.412 -0.45,-0.961 -0.862,-1.27 l -0.035,-0.025 -0.007,0.145 c -0.005,0.098 -0.014,0.246 -0.014,0.403 0,0.783 -0.082,0.9 -0.358,0.9 A 0.513,0.513 0 0 1 29.53,57.629 c 0.156,-0.188 0.218,-0.438 0.218,-0.875 L 29.745,56.552 29.744,56.39 c 0,-0.18 0.018,-0.312 0.033,-0.42 l 0.008,-0.06 -0.043,-0.005 c -0.13,-0.018 -0.37,-0.05 -0.554,-0.05 -0.393,0 -0.661,0.035 -0.855,0.215 -0.128,-0.102 -0.259,-0.276 -0.259,-0.386 0,-0.163 0.104,-0.176 0.24,-0.176 0.068,0 0.132,0.01 0.221,0.02 0.17,0.024 0.425,0.061 0.95,0.061 h 0.032 l -0.01,-0.031 c -0.133,-0.374 -0.498,-0.918 -1.085,-1.616 0.052,-0.188 0.103,-0.31 0.288,-0.31 z M 26.537,42.94 a 1.666,1.666 0 0 0 -0.341,-0.666 c -0.145,-0.166 -0.383,-0.365 -0.704,-0.365 -0.147,0 -0.393,0.067 -0.55,0.132 -0.058,-0.104 -0.172,-0.356 -0.172,-0.47 0,-0.116 0.202,-0.234 0.585,-0.234 0.846,0 1.352,0.375 1.352,1.004 0,0.22 -0.09,0.421 -0.17,0.6 z m 0.38,-0.817 c -0.03,-0.178 -0.1,-0.338 -0.205,-0.476 0.005,-0.162 0.073,-0.317 0.34,-0.19 -0.144,0.145 -0.032,0.402 -0.032,0.402 0,0 0.295,-0.135 0.234,-0.325 0.437,0.101 0.122,0.677 -0.338,0.589 z m 1.646,5.546 c 0.022,-0.18 0.035,-0.366 0.035,-0.556 0,-0.103 0.001,-0.223 -0.012,-0.36 1.634,-0.022 3.067,-1.177 3.067,-2.504 0,-0.675 -0.45,-1.186 -0.702,-1.49 0.057,-0.011 0.114,-0.024 0.172,-0.038 0.24,0.204 0.919,0.93 0.919,1.845 0,1.591 -1.624,3.07 -3.48,3.103 z"
       fill="#000000"
       id="path28" />
    <path
       fill="#ffcc00"
       d="M 42.77,73.923 H 44 V 90 H 41.13 V 73.923 Z"
       id="path30" />
    <path
       fill="#ff0000"
       d="M 42.77,57.766 H 44 V 73.923 H 41.13 V 57.766 Z"
       id="path32" />
    <path
       fill="#000000"
       d="M 44,41.77 V 57.846 H 41.13 V 41.77 Z"
       id="path34" />
    <g
       fill="#000000"
       id="g38">
      <path
         d="m 54.977,42.987 c 0,0.237 -0.029,0.443 -0.086,0.62 -0.057,0.177 -0.137,0.33 -0.235,0.457 a 1.25,1.25 0 0 1 -0.346,0.31 1.648,1.648 0 0 1 -0.408,0.177 v 0.02 c 0.173,0.033 0.334,0.095 0.485,0.187 0.151,0.092 0.282,0.207 0.394,0.345 0.112,0.138 0.202,0.3 0.269,0.487 0.067,0.186 0.1,0.391 0.1,0.615 0,0.268 -0.044,0.515 -0.134,0.738 a 1.5,1.5 0 0 1 -0.418,0.58 2.014,2.014 0 0 1 -0.716,0.384 c -0.288,0.091 -0.63,0.138 -1.027,0.138 h -1.356 v -6.788 h 1.278 c 0.39,0 0.725,0.041 1.005,0.123 0.278,0.082 0.507,0.199 0.687,0.35 0.179,0.15 0.309,0.333 0.389,0.546 0.079,0.211 0.12,0.448 0.12,0.711 z m -0.845,0.03 c 0,-0.316 -0.11,-0.574 -0.327,-0.778 -0.218,-0.203 -0.56,-0.305 -1.028,-0.305 h -0.442 v 2.341 h 0.432 c 0.449,0 0.788,-0.111 1.019,-0.335 0.23,-0.223 0.346,-0.53 0.346,-0.924 z m 0.124,3.128 c 0,-0.367 -0.117,-0.657 -0.35,-0.87 -0.234,-0.214 -0.569,-0.32 -1.005,-0.32 h -0.566 v 2.38 h 0.519 c 0.493,0 0.85,-0.1 1.071,-0.3 0.221,-0.2 0.331,-0.496 0.331,-0.89 z m 5.15,1.898 h -0.71 v -0.531 h -0.02 a 1.25,1.25 0 0 1 -0.37,0.389 c -0.1,0.068 -0.22,0.129 -0.36,0.18 a 1.33,1.33 0 0 1 -0.47,0.08 c -0.206,0 -0.39,-0.032 -0.553,-0.094 a 1.003,1.003 0 0 1 -0.418,-0.3 1.406,1.406 0 0 1 -0.264,-0.537 3.1,3.1 0 0 1 -0.091,-0.811 v -3.1 h 0.778 v 3.04 c 0,0.394 0.062,0.674 0.187,0.84 0.125,0.168 0.32,0.251 0.582,0.251 a 0.918,0.918 0 0 0 0.566,-0.172 c 0.154,-0.115 0.276,-0.228 0.365,-0.339 v -3.62 h 0.779 v 4.724 z m 3.71,0 v -3.04 c 0,-0.4 -0.066,-0.686 -0.198,-0.86 -0.131,-0.174 -0.332,-0.26 -0.6,-0.26 a 0.916,0.916 0 0 0 -0.577,0.176 2.15,2.15 0 0 0 -0.365,0.345 v 3.64 h -0.778 v -4.722 h 0.711 v 0.532 h 0.02 a 1.22,1.22 0 0 1 0.375,-0.389 c 0.102,-0.069 0.223,-0.13 0.364,-0.182 0.14,-0.052 0.301,-0.078 0.48,-0.078 0.205,0 0.391,0.031 0.557,0.093 a 0.998,0.998 0 0 1 0.424,0.3 c 0.115,0.138 0.205,0.317 0.268,0.537 0.064,0.22 0.097,0.49 0.097,0.811 v 3.099 h -0.779 v -0.002 z m 1.729,-2.291 c 0,-0.48 0.06,-0.88 0.182,-1.2 0.122,-0.322 0.279,-0.581 0.47,-0.778 0.193,-0.197 0.411,-0.336 0.654,-0.418 0.243,-0.082 0.487,-0.123 0.73,-0.123 0.147,0 0.275,0.011 0.384,0.034 0.11,0.024 0.199,0.05 0.27,0.084 V 41.088 L 68.312,41 v 7.043 h -0.71 v -0.502 h -0.02 a 1.084,1.084 0 0 1 -0.318,0.369 c -0.09,0.069 -0.201,0.128 -0.336,0.177 a 1.36,1.36 0 0 1 -0.471,0.073 1.48,1.48 0 0 1 -0.62,-0.133 1.348,1.348 0 0 1 -0.514,-0.423 2.215,2.215 0 0 1 -0.35,-0.747 4.161,4.161 0 0 1 -0.128,-1.105 z m 1.825,1.7 a 1.002,1.002 0 0 0 0.754,-0.324 c 0.049,-0.053 0.085,-0.098 0.11,-0.138 V 44.078 A 1.134,1.134 0 0 0 67.29,43.96 1.06,1.06 0 0 0 66.94,43.911 c -0.18,0 -0.347,0.032 -0.505,0.094 a 0.983,0.983 0 0 0 -0.408,0.31 1.619,1.619 0 0 0 -0.274,0.56 c -0.067,0.23 -0.101,0.512 -0.101,0.846 0,0.328 0.027,0.602 0.082,0.822 0.054,0.22 0.13,0.396 0.226,0.531 a 0.872,0.872 0 0 0 0.327,0.29 0.86,0.86 0 0 0 0.383,0.089 z m 5.794,-2.537 c 0,0.203 -0.006,0.379 -0.02,0.527 -0.012,0.148 -0.025,0.277 -0.038,0.388 h -2.354 c 0.025,0.557 0.143,0.967 0.35,1.23 0.208,0.261 0.508,0.393 0.899,0.393 0.135,0 0.256,-0.017 0.365,-0.05 a 1.344,1.344 0 0 0 0.485,-0.256 c 0.054,-0.046 0.094,-0.082 0.12,-0.108 l 0.288,0.56 -0.143,0.143 c -0.064,0.062 -0.15,0.125 -0.26,0.187 a 1.82,1.82 0 0 1 -0.403,0.162 c -0.16,0.046 -0.349,0.069 -0.567,0.069 -0.288,0 -0.549,-0.05 -0.783,-0.148 a 1.492,1.492 0 0 1 -0.596,-0.458 2.233,2.233 0 0 1 -0.38,-0.786 c -0.09,-0.319 -0.134,-0.7 -0.134,-1.146 0,-0.42 0.046,-0.782 0.14,-1.087 0.092,-0.305 0.219,-0.556 0.379,-0.753 0.16,-0.196 0.345,-0.343 0.557,-0.438 0.211,-0.095 0.438,-0.142 0.682,-0.142 0.442,0 0.788,0.142 1.038,0.428 0.25,0.286 0.375,0.715 0.375,1.285 z m -1.46,-1.062 a 0.775,0.775 0 0 0 -0.663,0.354 c -0.167,0.235 -0.263,0.577 -0.289,1.023 h 1.682 c 0.007,-0.033 0.012,-0.08 0.015,-0.143 a 3.91,3.91 0 0 0 0.005,-0.202 c 0,-0.328 -0.064,-0.582 -0.193,-0.762 -0.128,-0.18 -0.314,-0.27 -0.557,-0.27 z m 4.486,0.423 a 1.994,1.994 0 0 0 -0.278,-0.241 c -0.135,-0.102 -0.311,-0.152 -0.53,-0.152 -0.204,0 -0.36,0.05 -0.47,0.147 a 0.46,0.46 0 0 0 -0.163,0.354 c 0,0.177 0.05,0.324 0.15,0.438 0.099,0.115 0.25,0.238 0.456,0.37 l 0.288,0.176 c 0.314,0.19 0.56,0.395 0.74,0.615 0.179,0.22 0.268,0.503 0.268,0.85 0,0.374 -0.126,0.69 -0.38,0.945 -0.252,0.255 -0.616,0.383 -1.09,0.383 a 1.853,1.853 0 0 1 -0.86,-0.196 1.196,1.196 0 0 1 -0.264,-0.172 1.76,1.76 0 0 1 -0.173,-0.172 l 0.375,-0.63 c 0.039,0.04 0.085,0.085 0.14,0.138 a 1.257,1.257 0 0 0 0.456,0.275 c 0.096,0.033 0.208,0.05 0.337,0.05 0.23,0 0.406,-0.053 0.528,-0.157 a 0.488,0.488 0 0 0 0.183,-0.384 0.89,0.89 0 0 0 -0.043,-0.29 0.672,0.672 0 0 0 -0.13,-0.222 1.206,1.206 0 0 0 -0.211,-0.186 c -0.084,-0.06 -0.18,-0.125 -0.289,-0.197 l -0.288,-0.187 a 2.797,2.797 0 0 1 -0.677,-0.6 C 73.402,45.021 73.32,44.752 73.32,44.424 a 1.14,1.14 0 0 1 0.384,-0.87 c 0.122,-0.109 0.264,-0.194 0.428,-0.256 a 1.46,1.46 0 0 1 0.523,-0.093 c 0.18,0 0.333,0.018 0.461,0.053 a 1.35,1.35 0 0 1 0.563,0.305 c 0.06,0.057 0.11,0.104 0.149,0.143 z m 3.796,3.767 v -3.04 c 0,-0.386 -0.054,-0.665 -0.163,-0.836 -0.11,-0.17 -0.285,-0.256 -0.529,-0.256 a 1.1,1.1 0 0 0 -0.807,0.334 3.206,3.206 0 0 0 -0.144,0.157 v 3.64 H 76.865 V 43.32 h 0.71 v 0.532 h 0.02 c 0.033,-0.053 0.08,-0.117 0.145,-0.192 a 1.363,1.363 0 0 1 0.576,-0.389 c 0.128,-0.045 0.272,-0.068 0.432,-0.068 0.526,0 0.897,0.21 1.114,0.63 a 1.493,1.493 0 0 1 0.797,-0.57 c 0.128,-0.04 0.27,-0.06 0.423,-0.06 0.935,0 1.403,0.558 1.403,1.673 v 3.168 h -0.778 v -3.04 c 0,-0.387 -0.067,-0.665 -0.202,-0.836 -0.135,-0.17 -0.333,-0.256 -0.596,-0.256 a 0.876,0.876 0 0 0 -0.543,0.162 2.118,2.118 0 0 0 -0.341,0.31 c 0.013,0.072 0.022,0.15 0.029,0.232 0.006,0.082 0.01,0.168 0.01,0.26 v 3.168 h -0.778 z m 5.14,0 h -0.778 v -4.722 h 0.778 z M 84.042,42.18 A 0.496,0.496 0 0 1 83.657,42.023 0.588,0.588 0 0 1 83.513,41.61 c 0,-0.164 0.048,-0.298 0.144,-0.403 a 0.496,0.496 0 0 1 0.385,-0.157 c 0.153,0 0.278,0.052 0.374,0.157 0.096,0.105 0.145,0.24 0.145,0.403 0,0.17 -0.049,0.308 -0.145,0.413 a 0.486,0.486 0 0 1 -0.374,0.157 z m 4.093,5.863 v -3.04 c 0,-0.4 -0.065,-0.686 -0.197,-0.86 -0.131,-0.174 -0.332,-0.26 -0.6,-0.26 a 0.916,0.916 0 0 0 -0.577,0.176 2.15,2.15 0 0 0 -0.365,0.345 v 3.64 h -0.778 v -4.722 h 0.711 v 0.532 h 0.02 a 1.22,1.22 0 0 1 0.375,-0.389 c 0.102,-0.069 0.223,-0.13 0.364,-0.182 0.14,-0.052 0.301,-0.078 0.48,-0.078 0.205,0 0.391,0.031 0.557,0.093 a 0.998,0.998 0 0 1 0.424,0.3 c 0.115,0.138 0.205,0.317 0.268,0.537 0.064,0.22 0.096,0.49 0.096,0.811 v 3.099 h -0.778 z m 2.719,0 h -0.779 v -4.722 h 0.779 z M 90.469,42.18 A 0.496,0.496 0 0 1 90.085,42.023 0.587,0.587 0 0 1 89.941,41.61 c 0,-0.164 0.048,-0.298 0.144,-0.403 a 0.496,0.496 0 0 1 0.384,-0.157 c 0.154,0 0.279,0.052 0.375,0.157 0.096,0.105 0.144,0.24 0.144,0.403 0,0.17 -0.049,0.308 -0.144,0.413 a 0.485,0.485 0 0 1 -0.375,0.157 z m 3.565,2.096 a 1.947,1.947 0 0 0 -0.278,-0.241 c -0.135,-0.102 -0.311,-0.152 -0.53,-0.152 -0.204,0 -0.361,0.05 -0.47,0.147 a 0.46,0.46 0 0 0 -0.163,0.354 c 0,0.177 0.05,0.324 0.15,0.438 0.099,0.115 0.25,0.238 0.455,0.37 l 0.289,0.176 c 0.314,0.19 0.56,0.395 0.74,0.615 0.178,0.22 0.268,0.503 0.268,0.85 0,0.374 -0.127,0.69 -0.38,0.945 -0.252,0.255 -0.616,0.383 -1.09,0.383 a 1.853,1.853 0 0 1 -0.86,-0.196 1.196,1.196 0 0 1 -0.264,-0.172 1.76,1.76 0 0 1 -0.173,-0.172 l 0.375,-0.63 c 0.039,0.04 0.085,0.085 0.14,0.138 a 1.257,1.257 0 0 0 0.456,0.275 c 0.096,0.033 0.208,0.05 0.335,0.05 0.231,0 0.407,-0.053 0.53,-0.157 a 0.487,0.487 0 0 0 0.182,-0.384 0.89,0.89 0 0 0 -0.043,-0.29 0.672,0.672 0 0 0 -0.13,-0.222 1.206,1.206 0 0 0 -0.212,-0.186 c -0.083,-0.06 -0.179,-0.125 -0.288,-0.197 l -0.288,-0.187 a 2.797,2.797 0 0 1 -0.677,-0.6 c -0.164,-0.21 -0.245,-0.479 -0.245,-0.807 a 1.14,1.14 0 0 1 0.384,-0.87 c 0.122,-0.109 0.264,-0.194 0.428,-0.256 a 1.46,1.46 0 0 1 0.523,-0.093 c 0.18,0 0.333,0.018 0.461,0.053 a 1.35,1.35 0 0 1 0.563,0.305 c 0.06,0.057 0.11,0.104 0.149,0.143 z m 3.344,-0.305 H 96.37 v 2.616 c 0,0.335 0.042,0.562 0.125,0.684 0.083,0.121 0.225,0.182 0.423,0.182 a 0.806,0.806 0 0 0 0.298,-0.05 0.972,0.972 0 0 0 0.183,-0.088 l 0.105,0.64 a 1.2,1.2 0 0 1 -0.721,0.207 c -0.397,0 -0.695,-0.114 -0.894,-0.34 -0.198,-0.227 -0.297,-0.602 -0.297,-1.126 V 43.97 h -0.558 v -0.532 l 0.558,-0.118 0.086,-1.318 h 0.692 v 1.318 h 1.104 l -0.096,0.65 z m 3.776,0.944 c 0,0.203 -0.007,0.379 -0.02,0.527 -0.012,0.148 -0.025,0.277 -0.038,0.388 h -2.354 c 0.026,0.557 0.142,0.967 0.35,1.23 0.209,0.261 0.508,0.393 0.9,0.393 0.134,0 0.255,-0.017 0.364,-0.05 a 1.344,1.344 0 0 0 0.485,-0.256 c 0.054,-0.046 0.095,-0.082 0.12,-0.108 l 0.289,0.56 -0.144,0.143 c -0.064,0.062 -0.15,0.125 -0.259,0.187 a 1.82,1.82 0 0 1 -0.404,0.162 c -0.16,0.045 -0.349,0.069 -0.567,0.069 -0.288,0 -0.549,-0.05 -0.783,-0.148 a 1.492,1.492 0 0 1 -0.596,-0.458 2.233,2.233 0 0 1 -0.38,-0.786 c -0.089,-0.319 -0.134,-0.7 -0.134,-1.146 0,-0.42 0.047,-0.782 0.14,-1.087 0.093,-0.305 0.22,-0.556 0.38,-0.753 0.16,-0.196 0.345,-0.343 0.556,-0.438 0.212,-0.095 0.439,-0.142 0.683,-0.142 0.441,0 0.788,0.142 1.037,0.428 0.25,0.286 0.375,0.715 0.375,1.285 z m -1.46,-1.062 a 0.775,0.775 0 0 0 -0.663,0.354 c -0.166,0.236 -0.262,0.577 -0.288,1.023 h 1.68 c 0.007,-0.033 0.012,-0.08 0.015,-0.143 a 3.91,3.91 0 0 0 0.005,-0.202 c 0,-0.328 -0.064,-0.582 -0.192,-0.762 -0.128,-0.18 -0.314,-0.27 -0.557,-0.27 z m 4.525,0.167 a 0.514,0.514 0 0 0 -0.125,-0.049 0.938,0.938 0 0 0 -0.26,-0.03 c -0.243,0 -0.433,0.067 -0.571,0.202 -0.138,0.135 -0.236,0.28 -0.293,0.438 v 3.463 h -0.779 v -4.722 h 0.712 v 0.64 h 0.019 c 0.032,-0.093 0.073,-0.183 0.125,-0.271 a 0.972,0.972 0 0 1 0.192,-0.237 0.842,0.842 0 0 1 0.274,-0.162 c 0.106,-0.04 0.233,-0.058 0.38,-0.058 0.109,0 0.197,0.01 0.264,0.03 l 0.158,0.048 z m 1.547,4.023 h -0.779 v -4.722 h 0.779 z m -0.385,-5.863 a 0.496,0.496 0 0 1 -0.384,-0.157 0.587,0.587 0 0 1 -0.144,-0.413 c 0,-0.164 0.048,-0.298 0.144,-0.403 a 0.496,0.496 0 0 1 0.384,-0.157 c 0.154,0 0.279,0.052 0.375,0.157 0.096,0.105 0.144,0.24 0.144,0.403 0,0.17 -0.049,0.308 -0.144,0.413 a 0.486,0.486 0 0 1 -0.375,0.157 z m 4.804,5.863 h -0.71 v -0.531 h -0.02 a 1.25,1.25 0 0 1 -0.37,0.389 c -0.1,0.068 -0.22,0.129 -0.36,0.18 a 1.33,1.33 0 0 1 -0.47,0.08 c -0.206,0 -0.39,-0.032 -0.553,-0.094 a 1.003,1.003 0 0 1 -0.418,-0.3 1.406,1.406 0 0 1 -0.264,-0.537 3.1,3.1 0 0 1 -0.092,-0.811 v -3.1 h 0.779 v 3.04 c 0,0.394 0.062,0.674 0.187,0.84 0.125,0.168 0.319,0.251 0.581,0.251 a 0.918,0.918 0 0 0 0.567,-0.172 c 0.154,-0.115 0.276,-0.228 0.365,-0.339 v -3.62 h 0.778 z m 3.614,0 v -3.04 c 0,-0.386 -0.054,-0.665 -0.163,-0.836 -0.11,-0.171 -0.285,-0.256 -0.529,-0.256 a 1.1,1.1 0 0 0 -0.806,0.334 2.798,2.798 0 0 0 -0.144,0.157 v 3.64 h -0.778 V 43.32 h 0.711 v 0.532 h 0.02 c 0.032,-0.053 0.08,-0.117 0.143,-0.192 a 1.32,1.32 0 0 1 0.578,-0.388 c 0.128,-0.047 0.272,-0.069 0.432,-0.069 0.525,0 0.897,0.21 1.115,0.63 a 1.493,1.493 0 0 1 0.796,-0.57 c 0.129,-0.04 0.27,-0.06 0.424,-0.06 0.935,0 1.402,0.558 1.402,1.673 v 3.168 h -0.778 v -3.04 c 0,-0.387 -0.067,-0.665 -0.202,-0.836 -0.135,-0.171 -0.334,-0.256 -0.596,-0.256 a 0.876,0.876 0 0 0 -0.543,0.162 2.108,2.108 0 0 0 -0.34,0.31 c 0.013,0.072 0.022,0.15 0.029,0.232 0.006,0.082 0.01,0.168 0.01,0.26 v 3.168 h -0.781 z m -60.522,5.848 h -0.942 v 4.073 H 51.557 V 53.89 H 51 v -0.532 l 0.557,-0.108 v -0.944 c 0,-0.256 0.036,-0.475 0.106,-0.659 0.07,-0.183 0.163,-0.335 0.278,-0.452 0.116,-0.118 0.25,-0.203 0.404,-0.256 0.154,-0.052 0.317,-0.078 0.49,-0.078 0.167,0 0.308,0.023 0.423,0.069 0.116,0.046 0.192,0.081 0.231,0.108 l -0.163,0.659 a 0.969,0.969 0 0 0 -0.163,-0.084 0.666,0.666 0 0 0 -0.26,-0.044 c -0.185,0 -0.326,0.059 -0.422,0.177 -0.096,0.118 -0.144,0.335 -0.144,0.65 v 0.845 h 1.038 l -0.098,0.649 z m 3.997,4.072 h -0.712 v -0.532 h -0.02 a 1.25,1.25 0 0 1 -0.37,0.389 c -0.098,0.068 -0.219,0.13 -0.359,0.182 -0.14,0.052 -0.298,0.078 -0.47,0.078 -0.206,0 -0.39,-0.031 -0.553,-0.093 a 1.003,1.003 0 0 1 -0.418,-0.3 1.406,1.406 0 0 1 -0.264,-0.537 3.1,3.1 0 0 1 -0.092,-0.812 V 53.24 h 0.779 v 3.04 c 0,0.393 0.062,0.673 0.187,0.841 0.125,0.167 0.32,0.25 0.581,0.25 A 0.918,0.918 0 0 0 56.13,57.2 c 0.154,-0.115 0.276,-0.228 0.365,-0.34 v -3.619 h 0.779 z m -1.912,-6.08 a 0.494,0.494 0 0 1 -0.135,0.364 0.44,0.44 0 0 1 -0.327,0.138 0.437,0.437 0 0 1 -0.327,-0.138 0.499,0.499 0 0 1 -0.135,-0.363 c 0,-0.15 0.044,-0.272 0.135,-0.364 A 0.442,0.442 0 0 1 54.9,51.382 c 0.128,0 0.236,0.046 0.327,0.138 0.09,0.092 0.135,0.213 0.135,0.364 z m 1.48,0 a 0.498,0.498 0 0 1 -0.135,0.364 0.44,0.44 0 0 1 -0.327,0.138 0.438,0.438 0 0 1 -0.327,-0.138 0.499,0.499 0 0 1 -0.135,-0.363 c 0,-0.15 0.045,-0.272 0.135,-0.364 a 0.44,0.44 0 0 1 0.327,-0.138 0.44,0.44 0 0 1 0.327,0.138 c 0.09,0.092 0.135,0.213 0.135,0.364 z m 3.65,2.057 a 0.542,0.542 0 0 0 -0.125,-0.05 0.903,0.903 0 0 0 -0.26,-0.03 c -0.242,0 -0.433,0.067 -0.571,0.202 -0.138,0.135 -0.236,0.28 -0.293,0.438 v 3.463 H 58.464 V 53.24 h 0.712 v 0.639 h 0.02 c 0.031,-0.092 0.073,-0.182 0.124,-0.27 a 0.99,0.99 0 0 1 0.193,-0.237 0.827,0.827 0 0 1 0.273,-0.162 c 0.106,-0.04 0.233,-0.058 0.38,-0.058 0.109,0 0.197,0.01 0.264,0.03 0.067,0.02 0.12,0.036 0.158,0.049 l -0.096,0.708 z m 2.748,4.023 v -6.788 h 1.25 c 0.537,0 1.006,0.059 1.407,0.177 0.4,0.118 0.733,0.305 1,0.56 0.265,0.256 0.462,0.59 0.59,1 0.129,0.41 0.192,0.906 0.192,1.49 0,0.623 -0.076,1.159 -0.23,1.608 -0.154,0.45 -0.372,0.819 -0.654,1.107 a 2.569,2.569 0 0 1 -1.032,0.64 4.246,4.246 0 0 1 -1.37,0.206 z m 0.836,-6.11 v 5.401 h 0.317 c 0.385,0 0.724,-0.05 1.018,-0.153 0.295,-0.101 0.545,-0.265 0.75,-0.491 0.205,-0.227 0.36,-0.522 0.466,-0.886 0.105,-0.363 0.158,-0.805 0.158,-1.323 0,-0.479 -0.051,-0.88 -0.154,-1.205 A 1.939,1.939 0 0 0 66.185,52.409 1.656,1.656 0 0 0 65.464,51.98 3.41,3.41 0 0 0 64.489,51.852 h -0.413 v 0.002 z m 5.429,6.11 H 68.727 V 53.24 h 0.778 v 4.722 z M 69.121,52.1 A 0.496,0.496 0 0 1 68.736,51.943 0.588,0.588 0 0 1 68.592,51.53 c 0,-0.164 0.048,-0.299 0.144,-0.404 a 0.496,0.496 0 0 1 0.385,-0.157 c 0.153,0 0.278,0.052 0.374,0.157 0.096,0.105 0.145,0.24 0.145,0.404 0,0.17 -0.049,0.308 -0.145,0.413 A 0.487,0.487 0 0 1 69.121,52.1 Z M 74,53.861 h -0.576 c 0.148,0.249 0.221,0.532 0.221,0.846 0,0.248 -0.04,0.473 -0.12,0.673 a 1.416,1.416 0 0 1 -0.846,0.822 1.808,1.808 0 0 1 -0.63,0.108 h -0.124 a 0.863,0.863 0 0 1 -0.126,-0.01 0.964,0.964 0 0 0 -0.24,0.158 0.359,0.359 0 0 0 -0.125,0.285 c 0,0.098 0.037,0.178 0.11,0.241 0.074,0.062 0.194,0.093 0.36,0.093 h 0.587 c 0.218,0 0.42,0.024 0.605,0.07 0.186,0.045 0.347,0.119 0.485,0.22 0.138,0.102 0.245,0.232 0.323,0.39 0.077,0.156 0.115,0.347 0.115,0.57 a 1.531,1.531 0 0 1 -0.605,1.24 c -0.192,0.15 -0.426,0.268 -0.701,0.353 a 3.115,3.115 0 0 1 -0.922,0.128 c -0.494,0 -0.868,-0.11 -1.124,-0.33 -0.256,-0.22 -0.385,-0.536 -0.385,-0.948 0,-0.177 0.031,-0.33 0.092,-0.457 0.06,-0.129 0.133,-0.24 0.216,-0.335 0.083,-0.095 0.168,-0.17 0.254,-0.227 l 0.207,-0.133 V 57.6 c -0.199,-0.15 -0.298,-0.37 -0.298,-0.659 0,-0.125 0.024,-0.233 0.072,-0.325 a 0.909,0.909 0 0 1 0.345,-0.37 c 0.061,-0.035 0.108,-0.06 0.14,-0.073 v -0.02 a 1.315,1.315 0 0 1 -0.572,-0.526 c -0.144,-0.239 -0.217,-0.546 -0.217,-0.92 0,-0.262 0.042,-0.494 0.125,-0.694 0.084,-0.2 0.196,-0.365 0.337,-0.497 0.141,-0.131 0.306,-0.23 0.495,-0.295 0.189,-0.065 0.393,-0.098 0.61,-0.098 0.219,0 0.424,0.04 0.616,0.118 h 1.402 L 74,53.862 Z m -2.142,3.955 c -0.135,0 -0.253,-0.01 -0.356,-0.03 a 1.111,1.111 0 0 0 -0.168,0.118 0.818,0.818 0 0 0 -0.148,0.167 0.897,0.897 0 0 0 -0.11,0.232 0.995,0.995 0 0 0 -0.044,0.31 c 0,0.505 0.272,0.757 0.816,0.757 0.467,0 0.813,-0.094 1.037,-0.28 0.225,-0.187 0.336,-0.402 0.336,-0.645 0,-0.23 -0.07,-0.392 -0.211,-0.487 -0.14,-0.095 -0.33,-0.143 -0.567,-0.143 h -0.585 z m 1.028,-3.11 c 0,-0.34 -0.078,-0.583 -0.236,-0.728 a 0.792,0.792 0 0 0 -0.552,-0.216 0.829,0.829 0 0 0 -0.576,0.216 c -0.16,0.144 -0.24,0.387 -0.24,0.729 0,0.34 0.079,0.583 0.24,0.728 0.16,0.144 0.345,0.217 0.557,0.217 a 0.812,0.812 0 0 0 0.571,-0.217 c 0.157,-0.145 0.236,-0.387 0.236,-0.728 z m 2.777,3.257 H 74.885 V 53.24 h 0.778 v 4.722 z M 75.28,52.1 A 0.496,0.496 0 0 1 74.895,51.943 0.588,0.588 0 0 1 74.751,51.53 c 0,-0.164 0.048,-0.299 0.144,-0.404 a 0.496,0.496 0 0 1 0.385,-0.157 c 0.153,0 0.278,0.052 0.374,0.157 0.096,0.105 0.144,0.24 0.144,0.404 0,0.17 -0.049,0.308 -0.144,0.413 A 0.487,0.487 0 0 1 75.28,52.1 Z m 3.545,1.79 h -1.009 v 2.617 c 0,0.335 0.042,0.562 0.126,0.684 0.083,0.121 0.224,0.182 0.423,0.182 a 0.806,0.806 0 0 0 0.298,-0.05 0.972,0.972 0 0 0 0.182,-0.088 l 0.106,0.639 a 1.2,1.2 0 0 1 -0.721,0.207 c -0.397,0 -0.695,-0.114 -0.894,-0.34 -0.199,-0.227 -0.298,-0.602 -0.298,-1.127 v -2.725 h -0.557 v -0.531 l 0.557,-0.119 0.087,-1.318 h 0.691 v 1.318 h 1.105 l -0.096,0.652 z m 0.614,2.873 c 0,-0.276 0.051,-0.506 0.154,-0.69 a 1.28,1.28 0 0 1 0.413,-0.447 c 0.173,-0.115 0.376,-0.197 0.61,-0.246 0.235,-0.05 0.483,-0.074 0.745,-0.074 h 0.24 v -0.451 c 0,-0.4 -0.068,-0.676 -0.206,-0.827 -0.138,-0.15 -0.332,-0.227 -0.581,-0.227 -0.231,0 -0.424,0.052 -0.577,0.153 a 3.513,3.513 0 0 0 -0.365,0.27 l -0.327,-0.532 c 0.051,-0.052 0.117,-0.111 0.197,-0.177 0.08,-0.065 0.178,-0.128 0.293,-0.186 a 1.925,1.925 0 0 1 0.894,-0.207 c 0.474,0 0.832,0.135 1.076,0.403 0.244,0.269 0.365,0.702 0.365,1.299 v 2.154 c 0,0.204 0.007,0.402 0.02,0.595 0.013,0.194 0.025,0.324 0.038,0.389 h -0.74 L 81.66,57.44 h -0.02 a 1.26,1.26 0 0 1 -0.115,0.202 0.955,0.955 0 0 1 -0.192,0.207 c -0.077,0.062 -0.17,0.116 -0.279,0.162 a 0.994,0.994 0 0 1 -0.384,0.068 1.206,1.206 0 0 1 -1.139,-0.792 1.445,1.445 0 0 1 -0.092,-0.524 z m 1.394,0.64 a 0.776,0.776 0 0 0 0.288,-0.05 0.921,0.921 0 0 0 0.217,-0.118 0.738,0.738 0 0 0 0.153,-0.153 c 0.041,-0.056 0.078,-0.104 0.11,-0.143 v -1.043 l -0.249,0.01 c -0.371,0.013 -0.653,0.079 -0.845,0.197 -0.192,0.118 -0.288,0.308 -0.288,0.57 0,0.243 0.054,0.425 0.163,0.546 0.108,0.123 0.259,0.183 0.45,0.183 z m 3.478,-0.542 c 0,0.197 0.028,0.335 0.082,0.413 0.054,0.079 0.148,0.118 0.283,0.118 a 0.678,0.678 0 0 0 0.288,-0.06 l 0.067,0.591 a 1.39,1.39 0 0 1 -0.625,0.128 c -0.262,0 -0.473,-0.082 -0.633,-0.246 -0.16,-0.164 -0.24,-0.456 -0.24,-0.875 v -5.923 l 0.777,-0.088 v 5.942 z m 4.381,-2.026 c 0,0.203 -0.006,0.378 -0.02,0.526 -0.012,0.148 -0.025,0.277 -0.038,0.389 H 86.28 c 0.026,0.557 0.142,0.967 0.35,1.23 0.208,0.261 0.508,0.393 0.899,0.393 0.135,0 0.256,-0.017 0.365,-0.05 a 1.344,1.344 0 0 0 0.485,-0.256 c 0.054,-0.046 0.094,-0.082 0.12,-0.109 l 0.289,0.56 c -0.033,0.034 -0.08,0.081 -0.145,0.144 -0.064,0.062 -0.15,0.125 -0.26,0.187 a 1.82,1.82 0 0 1 -0.403,0.162 c -0.16,0.045 -0.349,0.068 -0.567,0.068 -0.288,0 -0.549,-0.05 -0.783,-0.147 a 1.485,1.485 0 0 1 -0.596,-0.457 2.22,2.22 0 0 1 -0.38,-0.787 c -0.089,-0.318 -0.134,-0.7 -0.134,-1.146 0,-0.42 0.046,-0.782 0.14,-1.087 0.092,-0.305 0.22,-0.555 0.38,-0.752 0.159,-0.197 0.345,-0.342 0.556,-0.438 0.212,-0.095 0.439,-0.143 0.682,-0.143 0.442,0 0.789,0.143 1.038,0.428 0.251,0.286 0.376,0.714 0.376,1.285 z m -1.46,-1.062 a 0.775,0.775 0 0 0 -0.663,0.353 c -0.167,0.236 -0.263,0.577 -0.288,1.024 h 1.681 c 0.007,-0.033 0.012,-0.08 0.015,-0.143 a 3.91,3.91 0 0 0 0.005,-0.202 c 0,-0.328 -0.064,-0.582 -0.192,-0.762 -0.129,-0.18 -0.315,-0.27 -0.558,-0.27 z m 4.487,0.423 a 1.947,1.947 0 0 0 -0.278,-0.242 c -0.135,-0.101 -0.311,-0.152 -0.53,-0.152 -0.204,0 -0.36,0.05 -0.47,0.147 a 0.46,0.46 0 0 0 -0.163,0.354 c 0,0.177 0.05,0.323 0.15,0.438 0.099,0.114 0.25,0.238 0.456,0.368 l 0.288,0.177 c 0.314,0.19 0.56,0.395 0.74,0.615 0.179,0.22 0.268,0.504 0.268,0.85 0,0.374 -0.127,0.69 -0.38,0.945 -0.252,0.255 -0.616,0.383 -1.09,0.383 a 1.853,1.853 0 0 1 -0.86,-0.196 1.196,1.196 0 0 1 -0.264,-0.172 1.76,1.76 0 0 1 -0.173,-0.172 l 0.375,-0.63 c 0.039,0.04 0.085,0.085 0.14,0.138 a 1.257,1.257 0 0 0 0.456,0.275 c 0.096,0.033 0.208,0.05 0.336,0.05 0.231,0 0.407,-0.052 0.529,-0.157 a 0.488,0.488 0 0 0 0.182,-0.384 0.89,0.89 0 0 0 -0.043,-0.29 0.672,0.672 0 0 0 -0.13,-0.222 1.206,1.206 0 0 0 -0.211,-0.186 c -0.084,-0.06 -0.18,-0.125 -0.289,-0.197 L 90.47,55.749 a 2.797,2.797 0 0 1 -0.677,-0.6 C 89.63,54.939 89.548,54.67 89.548,54.342 a 1.14,1.14 0 0 1 0.384,-0.87 c 0.122,-0.109 0.264,-0.194 0.428,-0.256 a 1.46,1.46 0 0 1 0.524,-0.093 c 0.179,0 0.332,0.018 0.46,0.054 a 1.35,1.35 0 0 1 0.563,0.305 c 0.06,0.056 0.111,0.103 0.149,0.143 l -0.337,0.57 z M 54.564,67.883 h -0.711 v -0.532 h -0.02 a 1.25,1.25 0 0 1 -0.37,0.389 c -0.099,0.068 -0.22,0.13 -0.36,0.181 -0.14,0.053 -0.298,0.079 -0.47,0.079 -0.206,0 -0.39,-0.031 -0.553,-0.093 a 1.003,1.003 0 0 1 -0.418,-0.3 1.406,1.406 0 0 1 -0.264,-0.537 3.1,3.1 0 0 1 -0.091,-0.812 V 63.16 h 0.778 v 3.04 c 0,0.393 0.062,0.673 0.187,0.841 0.126,0.167 0.32,0.25 0.582,0.25 a 0.918,0.918 0 0 0 0.567,-0.171 c 0.153,-0.115 0.275,-0.229 0.365,-0.34 v -3.62 h 0.778 z m 3.71,0 v -3.04 c 0,-0.4 -0.066,-0.687 -0.198,-0.86 -0.131,-0.174 -0.332,-0.26 -0.6,-0.26 a 0.916,0.916 0 0 0 -0.577,0.176 2.181,2.181 0 0 0 -0.365,0.344 v 3.64 H 55.756 V 63.16 h 0.711 v 0.531 h 0.02 a 1.223,1.223 0 0 1 0.375,-0.389 c 0.102,-0.069 0.223,-0.129 0.364,-0.181 0.14,-0.052 0.301,-0.079 0.48,-0.079 0.205,0 0.391,0.032 0.557,0.094 a 0.998,0.998 0 0 1 0.424,0.3 c 0.115,0.138 0.205,0.317 0.268,0.536 0.064,0.22 0.096,0.49 0.096,0.811 v 3.099 h -0.778 z m 1.729,-2.292 c 0,-0.478 0.06,-0.879 0.182,-1.2 0.122,-0.322 0.279,-0.58 0.47,-0.777 0.193,-0.197 0.411,-0.337 0.654,-0.418 0.243,-0.082 0.487,-0.124 0.73,-0.124 0.148,0 0.275,0.012 0.384,0.035 0.11,0.023 0.199,0.05 0.27,0.084 V 60.928 L 63.47,60.84 v 7.043 h -0.71 v -0.502 h -0.02 a 1.084,1.084 0 0 1 -0.318,0.369 c -0.09,0.068 -0.201,0.128 -0.335,0.176 A 1.38,1.38 0 0 1 61.616,68 c -0.218,0 -0.425,-0.044 -0.62,-0.133 a 1.348,1.348 0 0 1 -0.515,-0.423 2.215,2.215 0 0 1 -0.35,-0.748 4.128,4.128 0 0 1 -0.128,-1.105 z m 1.825,1.701 a 1.002,1.002 0 0 0 0.754,-0.324 c 0.048,-0.053 0.085,-0.099 0.11,-0.139 V 63.918 A 1.174,1.174 0 0 0 62.448,63.8 1.058,1.058 0 0 0 62.098,63.75 c -0.18,0 -0.347,0.032 -0.505,0.094 a 0.983,0.983 0 0 0 -0.408,0.31 1.619,1.619 0 0 0 -0.274,0.56 c -0.067,0.23 -0.101,0.512 -0.101,0.846 0,0.328 0.027,0.602 0.082,0.821 0.054,0.22 0.13,0.397 0.226,0.532 a 0.844,0.844 0 0 0 0.71,0.38 z m 9.06,-6.197 -2.152,6.788 h -0.663 l -2.095,-6.788 h 0.904 L 68.15,65.6 c 0.07,0.25 0.133,0.489 0.187,0.719 0.055,0.23 0.085,0.42 0.092,0.57 h 0.02 c 0.006,-0.151 0.038,-0.34 0.095,-0.565 0.058,-0.227 0.122,-0.464 0.192,-0.714 l 1.316,-4.515 z m 3.2,3.66 c 0,0.203 -0.007,0.378 -0.02,0.526 -0.012,0.148 -0.025,0.277 -0.038,0.389 h -2.354 c 0.026,0.557 0.142,0.967 0.35,1.229 0.209,0.262 0.508,0.393 0.9,0.393 0.134,0 0.255,-0.016 0.364,-0.05 a 1.344,1.344 0 0 0 0.485,-0.255 c 0.054,-0.046 0.095,-0.082 0.12,-0.109 l 0.289,0.56 c -0.032,0.034 -0.08,0.08 -0.145,0.144 -0.063,0.062 -0.15,0.125 -0.259,0.187 a 1.82,1.82 0 0 1 -0.403,0.162 c -0.16,0.045 -0.35,0.068 -0.567,0.068 -0.289,0 -0.55,-0.05 -0.783,-0.147 a 1.485,1.485 0 0 1 -0.596,-0.457 2.22,2.22 0 0 1 -0.38,-0.787 c -0.09,-0.318 -0.135,-0.7 -0.135,-1.146 0,-0.42 0.047,-0.782 0.14,-1.087 0.093,-0.305 0.22,-0.555 0.38,-0.752 0.16,-0.197 0.345,-0.342 0.557,-0.438 0.211,-0.095 0.438,-0.143 0.682,-0.143 0.442,0 0.788,0.143 1.037,0.428 0.25,0.286 0.376,0.714 0.376,1.285 z m -1.46,-1.063 a 0.775,0.775 0 0 0 -0.664,0.354 c -0.166,0.236 -0.262,0.577 -0.288,1.024 h 1.682 c 0.006,-0.034 0.011,-0.08 0.014,-0.143 a 3.91,3.91 0 0 0 0.005,-0.202 c 0,-0.328 -0.063,-0.582 -0.192,-0.762 -0.128,-0.18 -0.314,-0.27 -0.558,-0.27 z m 4.525,0.167 a 0.542,0.542 0 0 0 -0.125,-0.05 0.903,0.903 0 0 0 -0.26,-0.029 c -0.243,0 -0.433,0.067 -0.571,0.202 -0.138,0.134 -0.236,0.28 -0.293,0.438 v 3.463 H 75.125 V 63.16 h 0.712 v 0.639 h 0.02 c 0.031,-0.092 0.073,-0.182 0.124,-0.27 a 0.99,0.99 0 0 1 0.192,-0.237 0.827,0.827 0 0 1 0.274,-0.162 c 0.106,-0.04 0.233,-0.059 0.38,-0.059 0.109,0 0.197,0.01 0.264,0.03 0.067,0.02 0.12,0.036 0.158,0.05 l -0.096,0.707 z m 2.508,1.466 1.585,2.558 H 80.315 L 79.017,65.679 H 78.7 v 2.204 H 77.921 V 60.928 L 78.7,60.84 V 65 h 0.327 l 1.24,-1.838 h 0.921 z m 5.053,-0.57 c 0,0.203 -0.006,0.378 -0.02,0.526 -0.012,0.148 -0.025,0.277 -0.038,0.389 h -2.354 c 0.025,0.557 0.142,0.967 0.35,1.229 0.208,0.262 0.508,0.393 0.899,0.393 0.135,0 0.256,-0.016 0.365,-0.05 a 1.344,1.344 0 0 0 0.485,-0.255 c 0.054,-0.046 0.094,-0.082 0.12,-0.109 l 0.288,0.56 c -0.032,0.034 -0.08,0.08 -0.143,0.144 -0.064,0.062 -0.15,0.125 -0.26,0.187 a 1.837,1.837 0 0 1 -0.403,0.162 c -0.16,0.045 -0.349,0.068 -0.567,0.068 -0.288,0 -0.549,-0.05 -0.783,-0.147 a 1.485,1.485 0 0 1 -0.596,-0.457 2.22,2.22 0 0 1 -0.38,-0.787 c -0.09,-0.318 -0.134,-0.7 -0.134,-1.146 0,-0.42 0.046,-0.782 0.14,-1.087 0.092,-0.305 0.219,-0.555 0.379,-0.752 0.16,-0.197 0.345,-0.342 0.557,-0.438 0.211,-0.095 0.438,-0.143 0.682,-0.143 0.442,0 0.788,0.143 1.038,0.428 0.25,0.286 0.375,0.714 0.375,1.285 z m -1.46,-1.063 a 0.775,0.775 0 0 0 -0.663,0.354 c -0.166,0.237 -0.262,0.577 -0.288,1.024 h 1.682 C 83.992,65.036 83.996,64.99 84,64.927 a 3.91,3.91 0 0 0 0.004,-0.202 c 0,-0.328 -0.063,-0.582 -0.192,-0.762 -0.129,-0.18 -0.315,-0.27 -0.558,-0.27 z m 5.015,4.19 v -3.039 c 0,-0.4 -0.065,-0.687 -0.197,-0.86 -0.131,-0.174 -0.332,-0.26 -0.6,-0.26 a 0.916,0.916 0 0 0 -0.577,0.176 2.181,2.181 0 0 0 -0.365,0.344 v 3.64 H 85.752 V 60.928 L 86.53,60.84 v 2.804 h 0.02 c 0.025,-0.04 0.065,-0.092 0.12,-0.158 0.054,-0.065 0.13,-0.13 0.226,-0.196 0.096,-0.066 0.213,-0.123 0.35,-0.172 0.138,-0.049 0.3,-0.074 0.485,-0.074 0.404,0 0.724,0.135 0.961,0.404 0.237,0.268 0.356,0.715 0.356,1.337 v 3.098 h -0.779 z m 3.969,-4.023 a 0.542,0.542 0 0 0 -0.126,-0.05 0.903,0.903 0 0 0 -0.259,-0.029 c -0.243,0 -0.433,0.067 -0.571,0.202 -0.138,0.134 -0.236,0.28 -0.293,0.438 v 3.463 H 90.21 V 63.16 h 0.712 v 0.639 h 0.019 c 0.032,-0.092 0.073,-0.182 0.125,-0.27 a 0.99,0.99 0 0 1 0.192,-0.237 0.827,0.827 0 0 1 0.274,-0.162 c 0.106,-0.04 0.232,-0.059 0.38,-0.059 0.108,0 0.196,0.01 0.263,0.03 0.067,0.02 0.12,0.036 0.159,0.05 l -0.096,0.707 z"
         id="path36" />
    </g>
  </g>
</svg>
