<svg version="1.1" id="Ebene_1" xmlns="http://www.w3.org/2000/svg" x="0" y="0" viewBox="0 0 1040.49 368.89" style="enable-background:new 0 0 1040.49 368.89" xml:space="preserve"><style>.st0{fill:#1d1d1b}</style><path class="st0" d="m110.52 167.53-.22-98.73H85.5V54.72h24.79V35.07C110.29 14.29 125.04 0 146.92 0c19.88 0 34.62 12.06 38.64 28.82l-14.97 6.25c-2.45-11.61-11.84-20.33-23.01-20.33-11.84 0-20.33 9.38-20.33 23.23v16.75h48.69V68.8h-48.69l.22 98.73h-16.95zM273.13 119.28v-8.04l-34.85 4.24c-27.25 3.35-35.74 12.06-35.74 22.34 0 11.4 12.28 18.76 29.49 18.76 23.68 0 41.1-15.41 41.1-37.3m-87.56 18.76c0-18.09 14.29-32.61 50.93-37.08l27.92-3.35c5.59-.67 9.16-3.8 9.16-8.71 0-14.07-13.4-23.23-33.06-23.23-21.22 0-36.19 13.63-37.08 27.03l-15.41-6.48c2.01-18.54 23.9-35.96 53.16-35.96 28.82 0 49.14 16.08 49.14 41.32v57.18c0 4.47 2.45 7.59 6.03 7.59 3.13 0 6.7-2.68 9.16-6.7l9.16 10.72c-4.69 6.93-14.07 11.61-22.78 11.61-10.94 0-17.87-7.82-18.54-18.09l-.22-5.14h-.22c-8.04 14.29-23.68 23.23-43.78 23.23-25.7.01-43.57-13.83-43.57-33.94M327.41 54.73h16.98v112.8h-16.98V54.73zm-3.8-34.4c0-7.37 4.92-12.28 12.51-12.28 7.37 0 12.73 4.91 12.73 12.28 0 7.59-5.36 12.51-12.73 12.51-7.59 0-12.51-4.92-12.51-12.51M452.5 85.33l-14.74 4.91c-1.79-15.86-10.05-24.35-22.34-24.35-18.09 0-29.49 14.96-29.49 39.54v62.1h-16.98V54.72h14.52l1.57 17.65h.22c6.25-13.62 18.32-22.34 32.61-22.34 19.22 0 32.4 12.74 34.63 35.3M211.3 287.81l16.75-3.35c1.34 15.63 16.53 26.58 36.63 26.58 17.65 0 31.27-8.27 31.27-19.88 0-8.71-8.26-14.07-27.25-17.87l-17.87-3.57c-23.45-4.91-33.51-14.29-33.51-30.83.22-19.66 17.65-34.18 41.77-34.18 23.68 0 41.33 12.73 45.57 31.05l-16.31 4.47c-1.56-11.84-13.4-20.55-29.48-20.55-14.29 0-24.79 8.71-25.02 18.32 0 8.26 6.7 12.95 22.34 16.31l18.32 3.57c26.58 5.59 37.97 14.96 37.97 31.72 0 21.22-20.55 36.86-47.8 36.86-28.14-.01-51.37-14.53-53.38-38.65M429.09 265.69c0-26.13-17.87-45.34-42.22-45.34-24.35 0-42.21 19.66-42.21 45.34 0 25.46 17.87 45.12 42.21 45.12 24.57 0 42.22-19.65 42.22-45.12m-100.96 103.2V209.18h14.74l1.79 19.43h.22c9.6-14.97 25.02-23.9 44-23.9 33.06 0 57.41 25.69 57.41 60.98 0 35.07-24.35 60.76-57.18 60.76-18.76 0-33.95-8.71-43.78-23.23h-.23v65.67h-16.97zM545.02 273.73v-8.04l-34.85 4.24c-27.25 3.35-35.74 12.06-35.74 22.34 0 11.39 12.28 18.76 29.49 18.76 23.68.01 41.1-15.41 41.1-37.3m-87.56 18.77c0-18.09 14.29-32.61 50.93-37.08l27.92-3.35c5.59-.67 9.16-3.8 9.16-8.71 0-14.07-13.4-23.23-33.06-23.23-21.22 0-36.19 13.63-37.08 27.03l-15.41-6.48c2.01-18.54 23.9-35.96 53.16-35.96 28.82 0 49.14 16.09 49.14 41.32v57.18c0 4.47 2.45 7.59 6.03 7.59 3.13 0 6.7-2.68 9.16-6.7l9.16 10.72c-4.69 6.93-14.07 11.62-22.78 11.62-10.94 0-17.87-7.82-18.54-18.09l-.22-5.14h-.22c-8.04 14.29-23.68 23.23-43.78 23.23-25.7 0-43.57-13.85-43.57-33.95M582.11 265.69c0-35.74 23.23-60.98 56.29-60.98 25.46 0 46.23 15.86 51.82 38.64l-16.53 3.8c-4.47-16.31-18.76-26.8-35.29-26.8-22.56 0-39.31 18.32-39.31 45.34s18.09 45.35 42.67 45.35c20.55 0 37.52-13.18 40.65-32.61l16.53 3.35c-4.25 25.91-28.14 44.68-57.18 44.68-35.08-.01-59.65-25.25-59.65-60.77M894.83 257.87l-18.32-3.57c-15.64-3.35-22.34-8.04-22.34-16.31.22-9.6 10.72-18.32 25.02-18.32 16.08 0 27.92 8.71 29.49 20.55l16.31-4.47c-4.24-18.32-21.89-31.05-45.57-31.05-24.12 0-41.54 14.52-41.77 34.18 0 16.53 10.05 25.91 33.51 30.83l17.87 3.57c18.99 3.8 27.25 9.16 27.25 17.87 0 11.61-13.62 19.88-31.27 19.88-20.1 0-35.29-10.94-36.63-26.58l-16.75 3.35c1.04 12.49 7.34 21.67 17.5 28.33h69.78c9.27-6.6 13.91-15.44 13.91-26.55-.02-16.74-11.41-26.12-37.99-31.71M763.04 220.35c20.55 0 35.07 12.95 37.3 35.96H723.5c3.13-21.44 18.54-35.96 39.54-35.96m44 69.24c-6.26 12.28-21.22 21.44-38.87 21.44-24.35 0-42.44-16.31-44.9-39.76h94.93c.22-2.24.22-4.69.22-6.7-.45-34.85-22.11-59.86-55.17-59.86-33.51 0-57.63 25.02-57.63 59.64 0 22.38 9.35 40.37 25.73 51.21l72.87.58c8.06-5.3 14.22-12.36 17.55-20.52l-14.73-6.03z"/><path d="M0 12.77s323.66-.9 351.69 0c101.49-1.36 131.9 38.55 130.95 79.42.95 48.47-43.77 67.79-102.03 67.88-96.23 3.79-127.95-12.76-241.04 25.25-174.86 61.77-182.46 191.02 11.05 164.02 257.89-34.78 350.07-209.63 408.84-116.6 46.38 91.46 75.2 81.88 156.28 82.82 55.37.64 324.42 1.61 324.37 1.33" style="fill:none;stroke:#1d1d1b;stroke-width:.7"/></svg>
