<svg xmlns="http://www.w3.org/2000/svg" width="277.48" height="218.24" viewBox="0 0 277.48 218.24">
  <defs>
    <style>
      .cls-1 {
        fill: #8763bf;
      }
    </style>
  </defs>
  <g id="Ebene_2" data-name="Ebene 2">
    <g id="Ebene_1-2" data-name="Ebene 1">
      <g>
        <path class="cls-1" d="M30.36,137.68A72.54,72.54,0,0,1,91.22,37.14l0-4A76.54,76.54,0,0,0,75.91,182.94L80.6,180A73.94,73.94,0,0,1,70,176.65a72.18,72.18,0,0,1-39.59-39"/>
        <path class="cls-1" d="M167.71,79.64a76.15,76.15,0,0,0-41.77-41.12q-3.43-1.38-6.93-2.43L114.36,39a74.46,74.46,0,0,1,10.08,3.27A72.55,72.55,0,0,1,105,181.58l0,4a76.5,76.5,0,0,0,62.66-106"/>
        <path class="cls-1" d="M243,182.1a34.44,34.44,0,1,1,34.44-34.44A34.48,34.48,0,0,1,243,182.1m0-64.88a30.44,30.44,0,1,0,30.44,30.44A30.47,30.47,0,0,0,243,117.22"/>
        <g>
          <path d="M85,125.28A19.84,19.84,0,0,0,97.88,130a19.9,19.9,0,0,0,12.85-35.07A19.91,19.91,0,0,0,85,125.28ZM82,108.71a15.86,15.86,0,0,1,7.85-12.35,15.57,15.57,0,0,1,8-2.16A15.91,15.91,0,1,1,82,108.71Z"/>
          <path d="M74.16,145.09l3.57-3a36.89,36.89,0,0,0,5.4,2.81l-.41,4.65a7.21,7.21,0,0,0,6.55,7.81l8.75.77.64,0a7.22,7.22,0,0,0,7.18-6.58l.41-4.64a37.88,37.88,0,0,0,5.8-1.82l3,3.57a7.2,7.2,0,0,0,10.15.89l6.74-5.64a7.22,7.22,0,0,0,.89-10.16l-3-3.57a36.4,36.4,0,0,0,2.81-5.4l4.65.41a7.2,7.2,0,0,0,7.81-6.54l.77-8.76a7.2,7.2,0,0,0-6.55-7.81l-4.64-.41a38,38,0,0,0-1.82-5.81l3.57-3a7.22,7.22,0,0,0,.89-10.16L131.69,76a7.22,7.22,0,0,0-10.16-.9l-3.57,3a38.39,38.39,0,0,0-5.4-2.81l.41-4.64a7.21,7.21,0,0,0-6.54-7.81l-8.76-.78a7.2,7.2,0,0,0-7.81,6.55l-.41,4.64a37,37,0,0,0-5.81,1.83l-3-3.57a7.21,7.21,0,0,0-10.15-.9l-6.74,5.65a7.21,7.21,0,0,0-.9,10.15l3,3.57A38.44,38.44,0,0,0,63,95.39L58.4,95a7.21,7.21,0,0,0-7.81,6.55l-.78,8.75a7.23,7.23,0,0,0,6.55,7.82l4.64.41a38.27,38.27,0,0,0,1.83,5.8l-3.57,3a7.21,7.21,0,0,0-.9,10.15L64,144.2A7.22,7.22,0,0,0,74.16,145.09ZM61.83,130.37l3.71-3.11a3.74,3.74,0,0,0,1-4.32,33.6,33.6,0,0,1-1.72-5.46,3.75,3.75,0,0,0-3.33-2.94l-4.83-.43a3.2,3.2,0,0,1-2.91-3.47l.77-8.76a3.21,3.21,0,0,1,1.14-2.18A3.15,3.15,0,0,1,58.05,99l4.83.42a3.74,3.74,0,0,0,3.79-2.31A33.52,33.52,0,0,1,69.31,92,3.74,3.74,0,0,0,69,87.57l-3.11-3.72a3.21,3.21,0,0,1,.4-4.52l6.73-5.64A3.23,3.23,0,0,1,75.41,73a3.19,3.19,0,0,1,2.17,1.14L80.7,77.8a3.74,3.74,0,0,0,4.32,1,33.49,33.49,0,0,1,5.45-1.72,3.76,3.76,0,0,0,3-3.33L93.84,69a3.22,3.22,0,0,1,3.48-2.91l8.76.77A3.22,3.22,0,0,1,109,70.31l-.43,4.83a3.75,3.75,0,0,0,2.32,3.79A33,33,0,0,1,116,81.57a3.75,3.75,0,0,0,4.44-.27l3.71-3.11a3.2,3.2,0,0,1,4.52.4l5.65,6.73a3.22,3.22,0,0,1-.4,4.52L130.15,93a3.75,3.75,0,0,0-1,4.32,33.45,33.45,0,0,1,1.71,5.45,3.76,3.76,0,0,0,3.33,3l4.83.42a3.22,3.22,0,0,1,2.92,3.48l-.78,8.76a3.14,3.14,0,0,1-1.13,2.17,3.19,3.19,0,0,1-2.34.74l-4.83-.43a3.75,3.75,0,0,0-3.8,2.32,33.42,33.42,0,0,1-2.64,5.07,3.76,3.76,0,0,0,.27,4.44l3.12,3.71a3.22,3.22,0,0,1-.4,4.52l-6.74,5.65a3.17,3.17,0,0,1-2.34.73,3.2,3.2,0,0,1-2.18-1.13L115,142.41a3.76,3.76,0,0,0-4.32-1,33.56,33.56,0,0,1-5.46,1.71,3.74,3.74,0,0,0-2.94,3.33l-.43,4.83a3.23,3.23,0,0,1-3.47,2.92l-8.76-.78a3.19,3.19,0,0,1-2.91-3.47l.42-4.83a3.75,3.75,0,0,0-2.31-3.8,33.52,33.52,0,0,1-5.08-2.64,3.74,3.74,0,0,0-4.43.27L71.59,142a3.22,3.22,0,0,1-4.52-.4l-5.64-6.74A3.21,3.21,0,0,1,61.83,130.37Z"/>
          <path d="M196.07,103.47l-4,.15.07,2A93.89,93.89,0,0,1,101.73,203l-3.13.12.31,8.32-29.4-15.54,28.17-17.69.28,7.55,4-.15-.54-14.47L61.51,196.21l36.66,19.37,5,2.66L102.75,207a97.85,97.85,0,0,0,93.39-101.5Z"/>
          <path d="M94.48,15.22l3.13-.11L97.3,6.78l29.4,15.54L98.53,40l-.28-7.56-4,.15.54,14.48L134.7,22,98,2.65,93,0l.42,11.26A97.86,97.86,0,0,0,.07,112.76l.07,2,4-.15-.07-2A93.92,93.92,0,0,1,94.48,15.22Z"/>
          <polygon points="255.11 131.35 240.53 154.26 230.82 142.61 227.74 145.17 240.96 161.03 258.49 133.5 255.11 131.35"/>
        </g>
      </g>
    </g>
  </g>
</svg>
