<svg xmlns="http://www.w3.org/2000/svg" width="237.81" height="215.51" viewBox="0 0 237.81 215.51">
  <defs>
    <style>
      .cls-1 {
        fill: #8763bf;
      }
    </style>
  </defs>
  <g id="Ebene_2" data-name="Ebene 2">
    <g id="Ebene_1-2" data-name="Ebene 1">
      <g>
        <path class="cls-1" d="M64,117.39A17.49,17.49,0,1,1,81.5,99.9,17.51,17.51,0,0,1,64,117.39m0-31A13.49,13.49,0,1,0,77.5,99.9,13.5,13.5,0,0,0,64,86.41"/>
        <path class="cls-1" d="M187.64,156.79a17.49,17.49,0,1,1,17.49-17.49,17.51,17.51,0,0,1-17.49,17.49m0-31a13.49,13.49,0,1,0,13.49,13.49,13.51,13.51,0,0,0-13.49-13.49"/>
        <path class="cls-1" d="M158,47.68A17.49,17.49,0,1,1,175.5,30.19,17.51,17.51,0,0,1,158,47.68m0-31A13.49,13.49,0,1,0,171.5,30.19,13.5,13.5,0,0,0,158,16.7"/>
        <g>
          <path d="M63.71,68.85a31.36,31.36,0,0,0-31.32,31.32c0,16.68,28.51,54.72,29.72,56.34l1.6,2.12,1.6-2.12C66.52,154.89,95,116.85,95,100.17A31.36,31.36,0,0,0,63.71,68.85Zm0,83.08c-6.06-8.35-27.32-38.53-27.32-51.76a27.33,27.33,0,0,1,54.65,0C91,113.4,69.78,143.58,63.71,151.93Z"/>
          <path d="M158.31,88.92l1.6-2.12c1.2-1.6,29.43-39.26,29.43-55.77a31,31,0,1,0-62.06,0c0,16.51,28.23,54.17,29.43,55.77Zm0-84.92a27.06,27.06,0,0,1,27,27c0,13.07-21,42.9-27,51.19-6-8.29-27-38.12-27-51.19A27.06,27.06,0,0,1,158.31,4Z"/>
          <rect x="63.95" y="30.19" width="4" height="32.92"/>
          <rect x="184.7" y="189.64" width="61.43" height="4" transform="translate(-71.62 218.86) rotate(-47.07)"/>
          <rect x="220.65" y="122.24" width="18.59" height="4" transform="translate(-18.4 205.69) rotate(-46.54)"/>
          <rect x="139.72" y="200.41" width="32.31" height="4" transform="translate(-98.27 176.32) rotate(-46.54)"/>
          <rect x="187.17" y="53.36" width="49.17" height="4"/>
          <polygon points="0 169.67 63.95 169.67 63.95 214.14 67.95 214.14 67.95 165.67 0 165.67 0 169.67"/>
          <rect x="1.66" y="125" width="33.31" height="4"/>
          <path d="M187.34,108.26A31.36,31.36,0,0,0,156,139.58c0,16.67,28.52,54.72,29.73,56.33l1.6,2.12,1.6-2.12c1.21-1.61,29.72-39.66,29.72-56.33A31.36,31.36,0,0,0,187.34,108.26Zm0,83.07C181.27,183,160,152.8,160,139.58a27.33,27.33,0,0,1,54.65,0C214.66,152.8,193.4,183,187.34,191.33Z"/>
          <polygon points="139.91 75.41 106.42 108.91 106.42 29.93 102.42 29.93 102.42 118.56 142.74 78.23 139.91 75.41"/>
          <polygon points="237.19 87.36 237.23 83.36 182.32 82.91 97.94 163.27 97.32 163.87 97.32 212.17 101.32 212.17 101.32 165.58 183.91 86.92 237.19 87.36"/>
        </g>
      </g>
    </g>
  </g>
</svg>
