<svg xmlns="http://www.w3.org/2000/svg" width="202.77" height="231.83" viewBox="0 0 202.77 231.83">
  <defs>
    <style>
      .cls-1 {
        fill: #8763bf;
      }
    </style>
  </defs>
  <g id="Ebene_2" data-name="Ebene 2">
    <g id="Ebene_1-2" data-name="Ebene 1">
      <g>
        <path class="cls-1" d="M165.33,156.94a37,37,0,0,0-6.87.65l1.4,3.81a32.92,32.92,0,0,1,5.47-.46,33.5,33.5,0,1,1-16.76,4.53l-1.4-3.81a37.41,37.41,0,1,0,18.16-4.72"/>
        <path class="cls-1" d="M84.28,189.3a37.35,37.35,0,0,0-10.17-20.91l-2.35,3.33a33.41,33.41,0,0,1,8.49,17.58Z"/>
        <path class="cls-1" d="M80.18,199.89a33.47,33.47,0,1,1-16.75-34.73l2.31-3.28a37.42,37.42,0,1,0,18.49,38Z"/>
        <rect class="cls-1" x="68.82" y="130.36" width="22.97" height="4"/>
        <g>
          <path d="M164.13,196.94l3.76-1.35-26.29-73h.11a7.91,7.91,0,0,0,0-15.81H122v4h19.73a3.91,3.91,0,0,1,0,7.81h-5.8l6.26,17.4-54.34,28.9-7.56-27.23H76.12l3.34,12L43.11,196.38H83.78a10.84,10.84,0,0,0,12.57,8.69l4.07,10.85H94.8v4h15.82v-4H104.7l-4.61-12.27a10.82,10.82,0,0,0,3.49-15.13L146.5,148Zm-80.35-4.56H51.29l29.5-37.93,8.45,30.41A10.91,10.91,0,0,0,83.78,192.38Zm14.87,7.42-2.33-6.21L92.58,195l2.33,6.22-.46,0a6.87,6.87,0,1,1,4.2-1.44Zm2.18-14.19a10.87,10.87,0,0,0-6.38-2.09,10.72,10.72,0,0,0-1.4.11L88.93,168.8l54.61-29.05,1.48,4.12Z"/>
          <path d="M72.56,80.58a2.49,2.49,0,1,0-2.49-2.49A2.42,2.42,0,0,0,72.56,80.58Z"/>
          <path d="M81.7,80.58a2.49,2.49,0,1,0-2.49-2.49A2.43,2.43,0,0,0,81.7,80.58Z"/>
          <path d="M90.85,80.58a2.49,2.49,0,1,0-2.49-2.49A2.42,2.42,0,0,0,90.85,80.58Z"/>
          <path d="M79.89,114.75l.92.45,2.89,1.43V106.26a30.28,30.28,0,0,0-2-60.5,30.68,30.68,0,0,0-3.33.2,52.44,52.44,0,0,0,.41-6.57A39.39,39.39,0,1,0,37.39,78.73V92l2.89-1.43L41.5,90a98.65,98.65,0,0,0,10.74-5.94C54.89,96.92,64.15,107.23,79.89,114.75Zm1.81-65a26.28,26.28,0,1,1,0,52.56h-2v7.89c-7-3.49-21.23-11.75-23.84-28.63C67.77,73,75.07,62.43,77.68,50.09A25.36,25.36,0,0,1,81.7,49.76ZM41.39,85.6V74.78h-2A35.39,35.39,0,1,1,74.78,39.39C74.78,68,51.3,80.78,41.39,85.6Z"/>
          <polygon points="29.63 37.87 23.36 37.87 23.36 30.36 19.72 30.36 19.72 49.96 23.36 49.96 23.36 41.23 29.63 41.23 29.63 49.96 33.27 49.96 33.27 30.36 29.63 30.36 29.63 37.87"/>
          <path d="M43.69,34a2.24,2.24,0,1,0-2.24-2.24A2.21,2.21,0,0,0,43.69,34Z"/>
          <polygon points="45.59 35.85 38.45 35.85 38.45 38.82 42.12 38.82 42.12 47 37.75 47 37.75 49.96 49.96 49.96 49.96 47 45.59 47 45.59 35.85"/>
          <path d="M56.73,45.54a2.34,2.34,0,0,0-2.32,2.35,2.33,2.33,0,0,0,4.65,0A2.34,2.34,0,0,0,56.73,45.54Z"/>
          <polygon points="58.25 43.19 59.03 30.36 54.44 30.36 55.22 43.19 58.25 43.19"/>
        </g>
      </g>
    </g>
  </g>
</svg>
