<svg xmlns="http://www.w3.org/2000/svg" width="314.44" height="211.59" viewBox="0 0 314.44 211.59">
  <defs>
    <style>
      .cls-1 {
        fill: #8763bf;
      }
    </style>
  </defs>
  <g id="Ebene_2" data-name="Ebene 2">
    <g id="Ebene_1-2" data-name="Ebene 1">
      <g>
        <path class="cls-1" d="M155.58,136.71a37,37,0,0,0-6.87.64l1.39,3.81a34.15,34.15,0,0,1,5.48-.45,33.47,33.47,0,1,1-16.77,4.52l-1.39-3.81a37.42,37.42,0,1,0,18.16-4.71"/>
        <path class="cls-1" d="M74.53,169.07a37.3,37.3,0,0,0-10.18-20.91L62,151.48a33.36,33.36,0,0,1,8.49,17.59Z"/>
        <path class="cls-1" d="M70.42,179.66a33.45,33.45,0,1,1-16.75-34.74L56,141.64a37.43,37.43,0,1,0,18.48,38Z"/>
        <rect class="cls-1" x="59.07" y="110.13" width="22.97" height="4"/>
        <g>
          <path d="M249.76,72.51l-39.82,39.82L179.2,81.59l-34.46,34.53,2.84,2.82L179.2,87.25l27.91,27.91-22,22,2.82,2.83,37.75-37.75,5.37,5.37a3.77,3.77,0,0,0,5.32,0l5.34-5.34,5.33,5.34a3.79,3.79,0,0,0,5.33,0l5.33-5.34,5.34,5.34a3.78,3.78,0,0,0,5.32,0l5.46-5.46L311.62,140l2.82-2.83Zm15.9,32.14L260,99a3.36,3.36,0,0,0-4.75,0l-5.62,5.62L244,99a3.36,3.36,0,0,0-4.75,0l-5.62,5.62-5.2-5.2,21.29-21.28L271,99.36Z"/>
          <path d="M132,102.31a7.91,7.91,0,1,0,0-15.81H112.23v4H132a3.91,3.91,0,1,1,0,7.81h-5.8l6.26,17.4-54.33,28.9-7.57-27.23H66.36l3.34,12L33.35,176.15H74a10.78,10.78,0,0,0,12.57,8.68l4.07,10.85H85.05v4h15.81v-4H94.94l-4.6-12.27a10.81,10.81,0,0,0,3.48-15.13l42.93-40.54,17.62,49,3.77-1.36-26.3-73ZM74,172.15H41.53L71,134.21l8.45,30.41A10.91,10.91,0,0,0,74,172.15Zm14.87,7.41-2.33-6.2-3.75,1.4L85.16,181l-.46,0a6.89,6.89,0,1,1,4.2-1.45Zm46.37-55.92-44.2,41.74a10.75,10.75,0,0,0-6.37-2.09,10.88,10.88,0,0,0-1.41.1l-4.12-14.83,54.61-29Z"/>
          <path d="M69.68,16c1.76,0,3.22.78,3.92,3.61L77,18.57c-1.2-3.94-3.64-5.9-7.36-5.9-4.59,0-8.31,3.44-8.31,10s3.72,10,8.31,10c3.72,0,6.16-2,7.36-5.9L73.6,25.74c-.7,2.83-2.16,3.61-3.92,3.61a4.28,4.28,0,0,1-3.33-1.51c-.9-1-1.35-2.71-1.35-5.15s.45-4.14,1.35-5.15A4.28,4.28,0,0,1,69.68,16Z"/>
          <polygon points="87.99 18.38 80.85 18.38 80.85 21.35 84.52 21.35 84.52 29.52 80.15 29.52 80.15 32.49 92.36 32.49 92.36 29.52 87.99 29.52 87.99 18.38"/>
          <path d="M86.09,16.56a2.24,2.24,0,1,0-2.24-2.24A2.21,2.21,0,0,0,86.09,16.56Z"/>
          <path d="M105.8,29.75c-1.48,0-2.32-1-2.32-2.86V21.35h6.13v-3h-6.13V12.67L100,14.85v3.53H96.53v3H100v5.46c0,3.92,2,5.9,5.8,5.9a5.54,5.54,0,0,0,4.06-1.82l-1.18-2.8A3.84,3.84,0,0,1,105.8,29.75Z"/>
          <polygon points="121.11 26.75 117.47 18.38 113.83 18.38 119.43 30.73 116.27 38.2 119.74 38.2 128.12 18.38 124.47 18.38 121.11 26.75"/>
          <path d="M95.07,120.26h4V47.64h41.66l16.2-24L140.72,0H44.62V47.64H95.07ZM48.62,43.64V4h90l13.48,19.62-13.49,20Z"/>
        </g>
      </g>
    </g>
  </g>
</svg>
