<svg xmlns="http://www.w3.org/2000/svg" width="295.46" height="177.54" viewBox="0 0 295.46 177.54">
  <defs>
    <style>
      .cls-1 {
        fill: #8763bf;
      }
    </style>
  </defs>
  <g id="Ebene_2" data-name="Ebene 2">
    <g id="Ebene_1-2" data-name="Ebene 1">
      <g>
        <rect class="cls-1" x="51.91" y="78.33" width="22.97" height="4"/>
        <path class="cls-1" d="M37.44,177.54A37.45,37.45,0,1,1,74.88,140.1a37.49,37.49,0,0,1-37.44,37.44m0-70.89A33.45,33.45,0,1,0,70.88,140.1a33.48,33.48,0,0,0-33.44-33.45"/>
        <path class="cls-1" d="M265.22,117.05A30.16,30.16,0,0,0,254,119.2l2.18,3.44a26.36,26.36,0,1,1-9.88,6.46l-2.19-3.46a30.22,30.22,0,1,0,21.08-8.59"/>
        <g>
          <path d="M42.11,138.09l17-17.88a29.1,29.1,0,0,0-2.9-2.76L32.78,142.09h34c0-.66.07-1.32.07-2s0-1.33-.07-2Z"/>
          <path d="M264.3,150l3.36-2.17-19.84-30.7L256.37,107l-1.88-1.23c-.76-.5-9.25-5.92-25.59-10.82V39.21H198.13l13.2-24.92L184.35,0,155.73,54,180.17,67H138.23V88.58q-3.33.36-6.77.81L128,66.71A21.23,21.23,0,0,0,103.76,49l-2,.31.61,3.95,2-.3A17.21,17.21,0,0,1,124,67.32l10.94,70.78H105.88a10.89,10.89,0,0,0-10.67-8.87,10.55,10.55,0,0,0-3.2.49L64.26,84,60.84,86l9.84,16.23-6.17,6.49c1,.87,2,1.79,2.9,2.75l5.42-5.7L88.47,131.6a10.83,10.83,0,0,0-3.93,6.5H78.83c0,.66,0,1.32,0,2s0,1.33,0,2h5.71a10.81,10.81,0,0,0,14.1,8.29l5.46,9.55H99.17v4H115v-4H108.7l-6.56-11.49a10.91,10.91,0,0,0,3.74-6.35h34.34l86.61.37v-.19l18.3-21.89ZM96.91,139.29l-3.47,2,3.16,5.53a6.37,6.37,0,0,1-1.39.15,6.88,6.88,0,1,1,4.9-2.07ZM199.36,43.21H224.9V93.76a190.66,190.66,0,0,0-25.54-5ZM186,5.41,205.93,16l-24.88,47L161.14,52.36Zm9.35,39V67H183.43ZM142.23,71h53.13V88.24a258.41,258.41,0,0,0-53.13-.07ZM132.07,93.35c41.06-5.36,71.37-.93,89.66,3.8,15.15,3.91,24.74,8.64,28.61,10.77l-25.53,30.54-68.34-.29v-.07H139Z"/>
        </g>
      </g>
    </g>
  </g>
</svg>
