<svg width="32" height="33" viewBox="0 0 32 33" fill="none" xmlns="http://www.w3.org/2000/svg">
<rect y="0.422363" width="32" height="32" rx="16" fill="#FFFAED"/>
<path d="M11.3332 10.7557C11.5172 10.7557 11.6665 10.905 11.6665 11.089C11.6665 11.273 11.5172 11.4224 11.3332 11.4224C11.1492 11.4224 10.9998 11.273 10.9998 11.089C10.9998 10.905 11.1492 10.7557 11.3332 10.7557" stroke="black" stroke-width="2" stroke-linecap="round" stroke-linejoin="round"/>
<path d="M20.6667 10.7557C20.4827 10.7557 20.3333 10.905 20.3333 11.089C20.3333 11.273 20.4827 11.4224 20.6667 11.4224C20.8507 11.4224 21 11.273 21 11.089C21 10.905 20.8507 10.7557 20.6667 10.7557" stroke="black" stroke-width="2" stroke-linecap="round" stroke-linejoin="round"/>
<path d="M13.8398 25.0887C15.9852 22.514 19.4185 21.4007 22.6665 22.2287" stroke="black" stroke-width="2" stroke-linecap="round" stroke-linejoin="round"/>
<rect x="1" y="1.42236" width="30" height="30" rx="15" stroke="#FABE28" stroke-width="2"/>
<mask id="mask0_2711_1448" style="mask-type:luminance" maskUnits="userSpaceOnUse" x="0" y="0" width="32" height="33">
<rect x="1" y="1.42236" width="30" height="30" rx="15" fill="white" stroke="white" stroke-width="2"/>
</mask>
<g mask="url(#mask0_2711_1448)">
</g>
</svg>
