<svg width="32" height="33" viewBox="0 0 32 33" fill="none" xmlns="http://www.w3.org/2000/svg">
<rect y="0.422852" width="32" height="32" rx="16" fill="#FFFAED"/>
<path fill-rule="evenodd" clip-rule="evenodd" d="M21.1638 21.0898C21.8998 21.0885 22.4985 21.6845 22.4985 22.4218C22.4985 22.5338 22.4852 22.6472 22.4572 22.7552C21.5412 26.3218 17.9092 28.4698 14.3425 27.5552C11.9865 26.9498 10.1478 25.1112 9.5425 22.7552C9.3585 22.0418 9.78916 21.3152 10.5025 21.1312C10.6105 21.1032 10.7238 21.0898 10.8358 21.0898H21.1638Z" stroke="black" stroke-width="2" stroke-linecap="round" stroke-linejoin="round"/>
<path d="M24.9445 13.8901C24.3736 12.9773 23.3728 12.4229 22.2962 12.4229C21.2196 12.4229 20.2189 12.9773 19.6479 13.8901" stroke="black" stroke-width="2" stroke-linecap="round" stroke-linejoin="round"/>
<path d="M12.63 13.8901C12.0591 12.9773 11.0584 12.4229 9.98177 12.4229C8.90515 12.4229 7.90442 12.9773 7.3335 13.8901" stroke="black" stroke-width="2" stroke-linecap="round" stroke-linejoin="round"/>
<rect x="1" y="1.42285" width="30" height="30" rx="15" stroke="#FABE28" stroke-width="2"/>
<mask id="mask0_2711_2557" style="mask-type:luminance" maskUnits="userSpaceOnUse" x="0" y="0" width="32" height="33">
<rect x="1" y="1.42285" width="30" height="30" rx="15" fill="white" stroke="white" stroke-width="2"/>
</mask>
<g mask="url(#mask0_2711_2557)">
</g>
</svg>
